<svg width="1677" height="1015" viewBox="0 0 1677 1015" fill="none" xmlns="http://www.w3.org/2000/svg">
<g clip-path="url(#clip0)">
<path d="M1774.47 -112H-213.178V1085.94H1774.47V-112Z" fill="url(#paint0_linear)"/>
<path opacity="0.2" d="M572.596 923.35L560.99 611.665C560.99 573.853 530.316 543.191 492.488 543.191C476.476 543.191 461.743 548.708 450.066 557.918C450.421 555.622 450.682 553.278 450.682 550.863C450.682 526.191 430.667 506.184 405.986 506.184C399.022 506.184 392.461 507.818 386.586 510.659C380.831 476.801 351.365 451.016 315.859 451.016C278.932 451.016 248.542 478.908 244.539 514.755C234.851 486.579 208.133 466.335 176.677 466.335C168.055 466.335 159.812 467.851 152.162 470.645C139.063 439.131 107.986 416.945 71.7225 416.945C58.8844 416.945 46.7096 419.739 35.7428 424.735C38.1825 416.211 39.5326 407.214 39.5326 397.909C39.5326 344.186 -4.02675 300.644 -57.7713 300.644C-111.516 300.644 -155.075 344.186 -155.075 397.909C-155.075 422.273 -146.098 444.505 -131.294 461.576V923.374H572.596V923.35Z" fill="url(#paint1_linear)"/>
<path opacity="0.2" d="M1020.81 980.27L1032.42 668.585C1032.42 630.773 1063.09 600.111 1100.92 600.111C1116.93 600.111 1131.67 605.628 1143.34 614.838C1142.99 612.542 1142.73 610.198 1142.73 607.782C1142.73 583.111 1162.74 563.104 1187.42 563.104C1194.39 563.104 1200.95 564.738 1206.82 567.579C1212.58 533.721 1242.05 507.936 1277.55 507.936C1314.48 507.936 1344.87 535.828 1348.87 571.675C1358.56 543.499 1385.28 523.255 1416.73 523.255C1425.36 523.255 1433.6 524.771 1441.25 527.565C1454.35 496.05 1485.42 473.865 1521.69 473.865C1534.53 473.865 1546.7 476.659 1557.67 481.655C1555.23 473.131 1553.88 464.134 1553.88 454.829C1553.88 401.106 1597.44 357.563 1651.18 357.563C1704.93 357.563 1748.49 401.106 1748.49 454.829C1748.49 479.192 1739.51 501.425 1724.7 518.496V980.293H1020.81V980.27Z" fill="url(#paint2_linear)"/>
<path opacity="0.2" d="M669.38 322.189C659.313 322.142 650.43 327.28 645.267 335.093C641.335 317.383 625.583 304.076 606.658 303.982C601.778 303.958 597.112 304.81 592.801 306.397C593.18 304.266 593.37 302.064 593.393 299.815C593.512 277.866 575.794 259.99 553.837 259.895C531.88 259.777 513.996 277.487 513.902 299.436C513.902 301.543 514.044 303.603 514.352 305.615C509.093 302.017 502.745 299.909 495.924 299.862C478.419 299.767 464.065 313.382 462.905 330.618C461.01 330.263 459.068 330.05 457.078 330.05C439.147 329.955 424.509 344.233 424.012 362.062L695.127 363.411C696.927 359.67 697.969 355.527 697.993 351.099C698.064 335.188 685.249 322.26 669.38 322.189Z" fill="url(#paint3_linear)"/>
<path opacity="0.2" d="M1725.72 373.025C1706.66 372.93 1689.84 382.662 1680.06 397.46C1672.62 363.909 1642.77 338.741 1606.96 338.551C1597.72 338.504 1588.89 340.138 1580.72 343.121C1581.4 339.072 1581.81 334.905 1581.83 330.643C1582.04 289.09 1548.5 255.232 1506.93 255.019C1465.36 254.805 1431.49 288.332 1431.28 329.885C1431.25 333.863 1431.56 337.77 1432.13 341.582C1422.18 334.763 1410.17 330.761 1397.22 330.69C1364.06 330.525 1336.86 356.285 1334.71 388.912C1331.13 388.249 1327.46 387.847 1323.67 387.823C1289.7 387.657 1261.99 414.673 1261.02 448.436L1774.52 450.97C1777.93 443.914 1779.92 436.03 1779.94 427.648C1780.06 397.649 1755.78 373.167 1725.72 373.025Z" fill="url(#paint4_linear)"/>
<path opacity="0.2" d="M265.715 377.545C246.647 377.451 229.83 387.182 220.048 401.98C212.61 368.43 182.765 343.261 146.951 343.072C137.713 343.024 128.878 344.658 120.707 347.641C121.394 343.593 121.796 339.425 121.82 335.164C122.033 293.61 88.4931 259.752 46.9234 259.539C5.35367 259.326 -28.5179 292.853 -28.7311 334.406C-28.7548 338.384 -28.4469 342.29 -27.8784 346.102C-37.8267 339.283 -49.8357 335.282 -62.7922 335.211C-95.9532 335.045 -123.145 360.806 -125.301 393.433C-128.877 392.77 -132.549 392.367 -136.339 392.344C-170.305 392.178 -198.018 419.193 -198.989 452.957L314.509 455.49C317.92 448.435 319.91 440.55 319.933 432.168C320.052 402.193 295.797 377.688 265.715 377.545Z" fill="url(#paint5_linear)"/>
<path opacity="0.2" d="M1368.75 387.751C1354.91 387.68 1342.74 394.735 1335.63 405.461C1330.23 381.145 1308.61 362.89 1282.65 362.771C1275.97 362.748 1269.55 363.908 1263.62 366.086C1264.12 363.15 1264.41 360.143 1264.43 357.042C1264.57 326.924 1240.27 302.371 1210.14 302.229C1180.01 302.087 1155.45 326.38 1155.31 356.497C1155.28 359.386 1155.5 362.203 1155.92 364.973C1148.72 360.048 1140.01 357.136 1130.6 357.089C1106.56 356.97 1086.85 375.628 1085.29 399.281C1082.68 398.808 1080.03 398.5 1077.31 398.5C1052.67 398.382 1032.59 417.963 1031.9 442.445L1404.06 444.291C1406.53 439.177 1407.97 433.447 1407.99 427.386C1408.11 405.603 1390.54 387.869 1368.75 387.751Z" fill="url(#paint6_linear)"/>
<path opacity="0.2" d="M379.695 213.607C364.109 213.536 350.347 221.491 342.341 233.59C336.254 206.149 311.857 185.573 282.557 185.431C275.001 185.384 267.776 186.71 261.097 189.172C261.665 185.857 261.997 182.448 261.997 178.967C262.163 144.991 234.734 117.289 200.744 117.123C166.754 116.957 139.04 144.375 138.875 178.352C138.851 181.595 139.112 184.792 139.562 187.917C131.437 182.353 121.607 179.062 110.996 179.015C83.8747 178.873 61.6569 199.945 59.8804 226.629C56.9433 226.085 53.9588 225.753 50.8559 225.729C23.0717 225.587 0.403723 247.678 -0.37793 275.285L419.512 277.369C422.307 271.592 423.917 265.152 423.965 258.309C424.107 233.756 404.281 213.725 379.695 213.607Z" fill="url(#paint7_linear)"/>
<path opacity="0.2" d="M297.762 474.457C315.124 474.362 330.402 483.241 339.308 496.69C346.082 466.17 373.227 443.25 405.82 443.108C414.205 443.061 422.258 444.553 429.695 447.276C429.056 443.582 428.701 439.794 428.677 435.934C428.488 398.122 458.996 367.318 496.823 367.129C534.65 366.939 565.466 397.435 565.656 435.248C565.679 438.87 565.395 442.422 564.874 445.879C573.922 439.675 584.865 436.029 596.638 435.982C626.814 435.84 651.543 459.256 653.509 488.947C656.777 488.355 660.117 487.976 663.552 487.953C694.463 487.811 719.689 512.387 720.541 543.097L253.374 545.417C250.271 539 248.471 531.826 248.423 524.202C248.328 496.855 270.404 474.575 297.762 474.457Z" fill="url(#paint8_linear)"/>
<path opacity="0.2" d="M892.316 380.34C891.7 345.724 863.466 317.856 828.694 317.856C800.128 317.856 775.968 336.656 767.915 362.559C738.946 363.411 715.615 386.686 714.715 415.643H775.021H824.383H849.633H882.391H928.177C926.258 396.843 911.17 381.974 892.316 380.34Z" fill="url(#paint9_linear)"/>
<path opacity="0.2" d="M871.377 482.578C871.875 454.852 894.495 432.524 922.35 432.524C945.231 432.524 964.583 447.583 971.05 468.348C994.262 469.034 1012.95 487.668 1013.69 510.872H965.365H925.809H905.58H879.336H842.646C844.161 495.789 856.242 483.88 871.377 482.578Z" fill="url(#paint10_linear)"/>
<path opacity="0.2" d="M1560.94 180.791C1560.37 148.164 1533.75 121.883 1500.94 121.883C1474.01 121.883 1451.22 139.617 1443.62 164.028C1416.31 164.833 1394.3 186.782 1393.45 214.081H1450.32H1496.87H1520.67H1551.56H1594.74C1592.96 196.371 1578.75 182.33 1560.94 180.791Z" fill="url(#paint11_linear)"/>
<path opacity="0.2" d="M1176.06 484.495C1175.49 451.868 1148.86 425.587 1116.06 425.587C1089.13 425.587 1066.34 443.321 1058.74 467.732C1031.43 468.537 1009.42 490.486 1008.57 517.785H1065.44H1111.98H1135.79H1166.68H1209.86C1208.08 500.051 1193.84 486.034 1176.06 484.495Z" fill="url(#paint12_linear)"/>
<path d="M1635.5 611.867C1650.3 613.467 1670.33 631.867 1678.5 640.867L1536.5 661.367C1520.33 653.201 1492.6 634.467 1511 624.867C1534 612.867 1548.5 597.867 1558 593.867C1567.5 589.867 1575 600.867 1583.5 603.367C1592 605.867 1617 609.867 1635.5 611.867Z" fill="#6FA396"/>
<path d="M1432.5 592.316C1411.3 615.916 1354 644.816 1328 656.316L1349 683.816L1535.5 665.316C1558.5 664.65 1594.1 654.016 1552.5 616.816C1500.5 570.316 1515.5 600.316 1490 600.316C1464.5 600.316 1459 562.816 1432.5 592.316Z" fill="#4B786B"/>
<path d="M9.5 629.507C-5.53294 657.443 -69 682.007 -95 693.507L-74 721.008L112.5 702.508C135.5 701.841 149.18 706.229 129.5 654.008C90 549.191 85 641.691 59.5 641.691C34 641.691 35.5 581.191 9.5 629.507Z" fill="#4E8372"/>
<path d="M115.522 647.492C100.486 669.934 37.0055 689.669 11 698.907L32.0044 721L218.544 706.138C241.549 705.602 255.231 709.128 235.547 667.174C196.039 582.968 191.038 657.28 165.533 657.28C140.027 657.28 141.528 608.676 115.522 647.492Z" fill="#4B786B"/>
<path d="M1602.73 643.759C1614.57 630.166 1632.91 609.082 1649.13 590.38C1666.18 570.74 1697.36 572.008 1712.65 593.04L1737.22 626.832L1677.06 659.88L1602.73 643.759Z" fill="#416A5E"/>
<path d="M1929.47 638.533C1929.47 638.533 1098.33 575.742 333 743.186V964.661H1917.27L1929.47 638.533Z" fill="#A9D6B7"/>
<path d="M1929.47 658.533C1929.47 658.533 1098.33 595.742 333 763.186V984.661H1917.27L1929.47 658.533Z" fill="#8FC595"/>
<path d="M-138.399 676.539C-138.399 676.539 692.734 613.747 1458.07 781.192V1002.67H-126.201L-138.399 676.539Z" fill="url(#paint13_linear)"/>
<path d="M1458.07 781.193C692.734 613.725 -138.399 676.541 -138.399 676.541L-138.02 687.006C-63.5266 684.496 234.401 675.665 449.001 687.621C695.979 701.378 505.872 708.931 507.506 713.832C509.141 718.733 613.527 713.619 634.252 725.457C654.978 737.296 557.484 741.889 584.298 747.288C611.111 752.686 687.878 768.076 652.538 770.444C617.198 772.811 591.593 789.385 644.011 792.937C696.406 796.488 780.492 818.366 776.845 810.979C773.197 803.592 637.924 784.65 687.878 782.282C737.833 779.915 830.471 783.466 795.131 776.363C759.79 769.26 624.517 753.728 652.538 747.288C680.559 740.847 870.69 747.951 828.031 738.48C785.372 729.009 575.77 714.803 596.472 707.7C617.198 700.596 648.867 689.208 891.392 713.832C1133.92 738.48 1395.91 784.65 1395.91 784.65L1458.07 816.33V781.193Z" fill="white" fill-opacity="0.06"/>
<path d="M154.697 699.697C154.697 701.284 150.457 702.586 145.246 702.586C140.035 702.586 135.795 701.284 135.795 699.697C135.795 698.111 140.035 696.809 145.246 696.809C150.481 696.809 154.697 698.111 154.697 699.697Z" fill="#ADDF72"/>
<path d="M174.498 693.92C174.498 695.506 170.259 696.808 165.048 696.808C159.837 696.808 155.597 695.506 155.597 693.92C155.597 692.333 159.837 691.031 165.048 691.031C170.282 691.031 174.498 692.333 174.498 693.92Z" fill="#ADDF72"/>
<path d="M256.454 691.031C261.673 691.031 265.905 689.738 265.905 688.142C265.905 686.547 261.673 685.254 256.454 685.254C251.234 685.254 247.003 686.547 247.003 688.142C247.003 689.738 251.234 691.031 256.454 691.031Z" fill="#ADDF72"/>
<path d="M358.021 691.031C358.021 692.618 353.781 693.92 348.57 693.92C343.359 693.92 339.119 692.618 339.119 691.031C339.119 689.445 343.359 688.143 348.57 688.143C353.781 688.143 358.021 689.445 358.021 691.031Z" fill="#ADDF72"/>
<path d="M196.148 704.054C196.148 704.859 194.04 705.498 191.434 705.498C188.829 705.498 186.721 704.859 186.721 704.054C186.721 703.249 188.829 702.609 191.434 702.609C194.016 702.609 196.148 703.249 196.148 704.054Z" fill="#ADDF72"/>
<path d="M208.939 711.227C211.542 711.227 213.653 710.581 213.653 709.783C213.653 708.986 211.542 708.339 208.939 708.339C206.336 708.339 204.226 708.986 204.226 709.783C204.226 710.581 206.336 711.227 208.939 711.227Z" fill="#ADDF72"/>
<path d="M232.081 705.498C232.081 706.303 229.972 706.942 227.367 706.942C224.761 706.942 222.653 706.303 222.653 705.498C222.653 704.693 224.761 704.054 227.367 704.054C229.972 704.054 232.081 704.693 232.081 705.498Z" fill="#ADDF72"/>
<path d="M275.355 693.919C275.355 694.724 273.247 695.363 270.641 695.363C268.036 695.363 265.928 694.724 265.928 693.919C265.928 693.114 268.036 692.475 270.641 692.475C273.247 692.475 275.355 693.138 275.355 693.919Z" fill="#ADDF72"/>
<path d="M296.223 689.587C298.827 689.587 300.937 688.94 300.937 688.143C300.937 687.345 298.827 686.698 296.223 686.698C293.62 686.698 291.51 687.345 291.51 688.143C291.51 688.94 293.62 689.587 296.223 689.587Z" fill="#ADDF72"/>
<path d="M362.735 698.276C362.735 699.081 360.627 699.721 358.021 699.721C355.416 699.721 353.308 699.081 353.308 698.276C353.308 697.471 355.416 696.832 358.021 696.832C360.627 696.832 362.735 697.471 362.735 698.276Z" fill="#ADDF72"/>
<path d="M446.656 698.276C446.656 699.863 442.416 701.165 437.205 701.165C431.994 701.165 427.754 699.863 427.754 698.276C427.754 696.69 431.994 695.388 437.205 695.388C442.416 695.388 446.656 696.666 446.656 698.276Z" fill="#ADDF72"/>
<path d="M490.097 698.276C490.097 699.863 485.857 701.165 480.646 701.165C475.435 701.165 471.195 699.863 471.195 698.276C471.195 696.69 475.435 695.388 480.646 695.388C485.857 695.388 490.097 696.666 490.097 698.276Z" fill="#ADDF72"/>
<path d="M451.37 705.498C451.37 706.303 449.262 706.942 446.656 706.942C444.051 706.942 441.942 706.303 441.942 705.498C441.942 704.693 444.051 704.054 446.656 704.054C449.262 704.054 451.37 704.717 451.37 705.498Z" fill="#ADDF72"/>
<path d="M421.998 716.011C424.601 716.011 426.711 715.364 426.711 714.566C426.711 713.769 424.601 713.122 421.998 713.122C419.395 713.122 417.284 713.769 417.284 714.566C417.284 715.364 419.395 716.011 421.998 716.011Z" fill="#ADDF72"/>
<path d="M461.436 727.849C464.039 727.849 466.15 727.202 466.15 726.404C466.15 725.607 464.039 724.96 461.436 724.96C458.833 724.96 456.723 725.607 456.723 726.404C456.723 727.202 458.833 727.849 461.436 727.849Z" fill="#ADDF72"/>
<path d="M368.727 717.478C368.727 718.283 366.619 718.922 364.013 718.922C361.408 718.922 359.3 718.283 359.3 717.478C359.3 716.673 361.408 716.034 364.013 716.034C366.619 716.01 368.727 716.673 368.727 717.478Z" fill="#ADDF72"/>
<path d="M383.057 701.165C385.661 701.165 387.771 700.518 387.771 699.721C387.771 698.923 385.661 698.276 383.057 698.276C380.454 698.276 378.344 698.923 378.344 699.721C378.344 700.518 380.454 701.165 383.057 701.165Z" fill="#ADDF72"/>
<path d="M420.672 693.92C423.275 693.92 425.385 693.273 425.385 692.476C425.385 691.678 423.275 691.031 420.672 691.031C418.068 691.031 415.958 691.678 415.958 692.476C415.958 693.273 418.068 693.92 420.672 693.92Z" fill="#ADDF72"/>
<path d="M756.546 718.117C761.765 718.117 765.997 716.824 765.997 715.228C765.997 713.633 761.765 712.34 756.546 712.34C751.326 712.34 747.095 713.633 747.095 715.228C747.095 716.824 751.326 718.117 756.546 718.117Z" fill="#ADDF72"/>
<path d="M799.986 718.117C805.206 718.117 809.437 716.824 809.437 715.228C809.437 713.633 805.206 712.34 799.986 712.34C794.766 712.34 790.535 713.633 790.535 715.228C790.535 716.824 794.766 718.117 799.986 718.117Z" fill="#ADDF72"/>
<path d="M770.709 722.474C770.709 723.279 768.601 723.918 765.996 723.918C763.39 723.918 761.282 723.279 761.282 722.474C761.282 721.669 763.39 721.029 765.996 721.029C768.601 721.029 770.709 721.669 770.709 722.474Z" fill="#ADDF72"/>
<path d="M865.1 740.658C865.1 741.463 862.992 742.103 860.386 742.103C857.781 742.103 855.673 741.463 855.673 740.658C855.673 739.853 857.781 739.214 860.386 739.214C862.968 739.214 865.1 739.877 865.1 740.658Z" fill="#ADDF72"/>
<path d="M864.058 761.85C864.058 762.655 861.95 763.294 859.344 763.294C856.739 763.294 854.631 762.655 854.631 761.85C854.631 761.045 856.739 760.405 859.344 760.405C861.95 760.405 864.058 761.045 864.058 761.85Z" fill="#ADDF72"/>
<path d="M899.494 747.762C899.494 748.567 897.386 749.206 894.78 749.206C892.175 749.206 890.066 748.567 890.066 747.762C890.066 746.957 892.175 746.317 894.78 746.317C897.386 746.317 899.494 746.957 899.494 747.762Z" fill="#ADDF72"/>
<path d="M744.726 709.452C744.726 710.257 742.618 710.896 740.012 710.896C737.407 710.896 735.299 710.257 735.299 709.452C735.299 708.647 737.407 708.008 740.012 708.008C742.618 708.008 744.726 708.647 744.726 709.452Z" fill="#ADDF72"/>
<path d="M890.066 799.874C890.066 801.46 885.826 802.763 880.615 802.763C875.404 802.763 871.164 801.46 871.164 799.874C871.164 798.264 875.404 796.985 880.615 796.985C885.826 796.985 890.066 798.264 890.066 799.874Z" fill="#ADDF72"/>
<path d="M933.506 799.874C933.506 801.46 929.266 802.763 924.055 802.763C918.844 802.763 914.604 801.46 914.604 799.874C914.604 798.264 918.844 796.985 924.055 796.985C929.266 796.985 933.506 798.264 933.506 799.874Z" fill="#ADDF72"/>
<path d="M899.494 736.727C904.713 736.727 908.945 735.434 908.945 733.839C908.945 732.243 904.713 730.95 899.494 730.95C894.274 730.95 890.043 732.243 890.043 733.839C890.043 735.434 894.274 736.727 899.494 736.727Z" fill="#ADDF72"/>
<path d="M894.78 807.096C894.78 807.901 892.672 808.54 890.066 808.54C887.461 808.54 885.353 807.901 885.353 807.096C885.353 806.291 887.461 805.651 890.066 805.651C892.672 805.651 894.78 806.314 894.78 807.096Z" fill="#ADDF72"/>
<path d="M864.058 795.517C866.662 795.517 868.772 794.871 868.772 794.073C868.772 793.276 866.662 792.629 864.058 792.629C861.455 792.629 859.345 793.276 859.345 794.073C859.345 794.871 861.455 795.517 864.058 795.517Z" fill="#ADDF72"/>
<path d="M336.893 696.832C336.893 697.637 334.785 698.276 332.179 698.276C329.574 698.276 327.466 697.637 327.466 696.832C327.466 696.027 329.574 695.388 332.179 695.388C334.785 695.388 336.893 696.027 336.893 696.832Z" fill="#ADDF72"/>
<path d="M1690.27 748.163C1690.27 748.163 1042.68 717.928 539.886 1015.5H1690.27V748.163Z" fill="#81A566"/>
<path d="M628.331 1025.49C618.193 1025.56 613.408 1025.58 604.479 1025.58C615.54 952.916 790.464 909.61 848.093 890.053C959.396 852.265 1073.99 819.33 1189.6 795.913C1195.01 794.919 1197.63 794.422 1202.77 793.475C1089.88 817.578 978.108 850.82 869.553 888.869C809.319 909.966 643.751 952.419 628.331 1025.49Z" fill="white" fill-opacity="0.1"/>
<path d="M728.193 1023.83C714.621 1024.14 708.036 1024.28 695.411 1024.52C717.913 951.117 859.961 910.51 924.293 885.839C1024.16 847.53 1127 813.861 1231.27 788.076C1235.86 787.2 1238.09 786.774 1242.5 785.922C1142.82 812.416 1044.57 846.133 949.259 884.466C885.211 910.25 751.264 951.353 728.193 1023.83Z" fill="white" fill-opacity="0.1"/>
<path d="M853.636 1020.47C837.387 1020.96 829.429 1021.18 813.914 1021.63C835.54 952.064 950.04 909.398 1011.39 881.223C1094.24 843.15 1180.01 809.481 1267.13 781.258C1271.16 780.501 1273.12 780.122 1277.03 779.388C1196.02 808.605 1116.08 841.824 1039.1 879.731C980.359 908.641 872.704 953.296 853.636 1020.47Z" fill="white" fill-opacity="0.1"/>
<path d="M998.028 1015.85C979.932 1016.47 970.978 1016.75 953.332 1017.34C966.928 953.461 1054.33 907.717 1107.03 876.297C1169.16 839.266 1234.35 807.563 1299.3 775.338C1302.99 774.675 1304.84 774.368 1308.49 773.752C1251.26 807.468 1192.4 838.367 1137 874.9C1087.21 907.693 1009.16 953.674 998.028 1015.85Z" fill="white" fill-opacity="0.1"/>
<path d="M1154.71 1010.4C1135.53 1011.09 1125.98 1011.42 1107.06 1012.09C1111.91 907.741 1264.79 838.367 1329.88 770.296C1333.52 769.751 1335.32 769.491 1339 768.97C1289.4 847.506 1154.19 906.604 1154.71 1010.4Z" fill="white" fill-opacity="0.1"/>
<path d="M1317.04 1004.58C1297.59 1005.29 1287.83 1005.62 1268.39 1006.33C1269.88 954.29 1289.51 911.789 1315.19 866.614C1332.15 836.78 1362.89 801.407 1360.88 766.128C1364.69 765.678 1366.64 765.465 1370.55 765.039C1383.29 796.648 1358.92 835.857 1347.31 865.264C1329 911.647 1315.12 954.455 1317.04 1004.58Z" fill="white" fill-opacity="0.1"/>
<path d="M1478.39 998.827C1459.44 999.49 1449.89 999.821 1430.73 1000.51C1422.21 953.959 1423.48 909.54 1422.99 862.447C1422.66 831.004 1425.57 783.436 1394.49 762.766C1398.73 762.411 1400.91 762.246 1405.34 761.914C1473.91 796.814 1463.06 937.692 1478.39 998.827Z" fill="white" fill-opacity="0.1"/>
<path d="M1632.11 993.594C1614.49 994.162 1605.54 994.47 1587.42 995.086C1554.35 906.936 1525.5 806.829 1432.77 760.209C1437.7 759.949 1440.23 759.831 1445.42 759.594C1546.25 803.42 1593.29 900.093 1632.11 993.594Z" fill="white" fill-opacity="0.1"/>
<path d="M1771.53 989.284C1755.99 989.734 1748.04 989.947 1731.81 990.444C1686.93 885.034 1589.24 796.648 1477.8 758.338C1483.65 758.149 1486.66 758.078 1492.86 757.912C1606.68 793.972 1725.53 879.92 1771.53 989.284Z" fill="white" fill-opacity="0.1"/>
<path d="M1890.04 986.395C1877.41 986.632 1870.83 986.774 1857.25 987.082C1814.48 869.644 1646.33 789.142 1531.66 757.178C1538.7 757.083 1542.32 757.036 1549.76 756.965C1662.5 787.39 1851.62 866.282 1890.04 986.395Z" fill="white" fill-opacity="0.1"/>
<path d="M1980.95 985.33C1971.99 985.33 1967.21 985.354 1957.09 985.425C1948.12 926.019 1875.23 881.767 1826.91 852.549C1755.52 809.41 1677.92 777.706 1596.44 756.681C1604.92 756.657 1609.26 756.657 1618.21 756.657C1700.76 777.99 1779.87 809.575 1852.71 852.549C1899.58 880.251 1977.84 925.593 1980.95 985.33Z" fill="white" fill-opacity="0.1"/>
<path d="M886.75 862.097C894.33 860.322 1275.33 747.287 1690.24 758.889V748.14C1690.27 748.163 1297.83 729.837 886.75 862.097Z" fill="#8EAE75"/>
<path d="M-5.94434 748.163C-5.94434 748.163 756.759 717.928 1348.92 1015.5H-5.94434V748.163Z" fill="url(#paint14_linear)"/>
<path d="M-5.94434 772.862C-5.94434 772.862 756.759 742.627 1348.92 1040.2H-5.94434V772.862Z" fill="url(#paint15_linear)"/>
<path d="M-60 855.001L-82 882.001V926.501H229L214.5 868.001L180.5 890.001L174 862.501L162 887.501L151.5 862.501L136 890.001L128 853.001L98 894.001V873.001L71 897.001L66 873.001L42 890.001L25.5 868.001L13.5 894.001L11.5 870.501L-17.5 902.501L-60 855.001Z" fill="#ADDF72"/>
<path d="M36.4309 854.259C36.4309 856.437 30.8172 858.213 23.8771 858.213C16.9606 858.213 11.3232 856.437 11.3232 854.259C11.3232 852.08 16.9369 850.305 23.8771 850.305C30.8172 850.305 36.4309 852.08 36.4309 854.259Z" fill="#ADDF72"/>
<path d="M50.1925 850.328C57.1258 850.328 62.7463 848.558 62.7463 846.374C62.7463 844.19 57.1258 842.42 50.1925 842.42C43.2592 842.42 37.6387 844.19 37.6387 846.374C37.6387 848.558 43.2592 850.328 50.1925 850.328Z" fill="#ADDF72"/>
<path d="M181.985 858.165C181.985 860.343 176.371 862.119 169.431 862.119C162.514 862.119 156.877 860.343 156.877 858.165C156.877 855.987 162.491 854.211 169.431 854.211C176.371 854.211 181.985 855.987 181.985 858.165Z" fill="#ADDF72"/>
<path d="M290.918 844.054C290.918 846.232 285.304 848.008 278.364 848.008C271.448 848.008 265.811 846.232 265.811 844.054C265.811 841.875 271.424 840.1 278.364 840.1C285.304 840.1 290.918 841.875 290.918 844.054Z" fill="#ADDF72"/>
<path d="M85.1773 862.142C88.6439 862.142 91.4542 861.262 91.4542 860.177C91.4542 859.092 88.6439 858.212 85.1773 858.212C81.7107 858.212 78.9004 859.092 78.9004 860.177C78.9004 861.262 81.7107 862.142 85.1773 862.142Z" fill="#ADDF72"/>
<path d="M114.715 868.015C114.715 869.105 111.896 870.004 108.438 870.004C104.98 870.004 102.161 869.128 102.161 868.015C102.161 866.926 104.98 866.05 108.438 866.05C111.92 866.027 114.715 866.926 114.715 868.015Z" fill="#ADDF72"/>
<path d="M139.206 862.166C139.206 863.256 136.387 864.155 132.929 864.155C129.471 864.155 126.652 863.279 126.652 862.166C126.652 861.077 129.471 860.201 132.929 860.201C136.387 860.201 139.206 861.077 139.206 862.166Z" fill="#ADDF72"/>
<path d="M194.514 866.073C194.514 867.162 191.695 868.038 188.237 868.038C184.779 868.038 181.96 867.162 181.96 866.073C181.96 864.984 184.779 864.084 188.237 864.084C191.719 864.108 194.514 864.984 194.514 866.073Z" fill="#ADDF72"/>
<path d="M228.504 858.164C228.504 859.253 225.685 860.153 222.227 860.153C218.769 860.153 215.95 859.277 215.95 858.164C215.95 857.075 218.769 856.199 222.227 856.199C225.709 856.199 228.504 857.075 228.504 858.164Z" fill="#ADDF72"/>
<path d="M297.195 853.95C297.195 855.04 294.377 855.916 290.919 855.916C287.46 855.916 284.642 855.04 284.642 853.95C284.642 852.861 287.46 851.985 290.919 851.985C294.377 851.985 297.195 852.861 297.195 853.95Z" fill="#ADDF72"/>
<path d="M394.76 872.656C401.693 872.656 407.314 870.886 407.314 868.702C407.314 866.518 401.693 864.748 394.76 864.748C387.827 864.748 382.206 866.518 382.206 868.702C382.206 870.886 387.827 872.656 394.76 872.656Z" fill="#ADDF72"/>
<path d="M467.169 906.798C467.169 908.976 461.555 910.752 454.615 910.752C447.699 910.752 442.062 908.976 442.062 906.798C442.062 904.62 447.675 902.844 454.615 902.844C461.555 902.844 467.169 904.596 467.169 906.798Z" fill="#ADDF72"/>
<path d="M413.567 878.598C413.567 879.688 410.748 880.587 407.29 880.587C403.831 880.587 401.013 879.711 401.013 878.598C401.013 877.509 403.831 876.633 407.29 876.633C410.748 876.61 413.567 877.509 413.567 878.598Z" fill="#ADDF72"/>
<path d="M380.808 890.981C380.808 892.07 377.989 892.97 374.531 892.97C371.073 892.97 368.254 892.094 368.254 890.981C368.254 889.892 371.073 888.992 374.531 888.992C377.989 888.992 380.808 889.892 380.808 890.981Z" fill="#ADDF72"/>
<path d="M433.202 907.177C433.202 908.267 430.384 909.143 426.925 909.143C423.467 909.143 420.648 908.267 420.648 907.177C420.648 906.088 423.467 905.188 426.925 905.188C430.384 905.188 433.202 906.065 433.202 907.177Z" fill="#ADDF72"/>
<path d="M318.536 898.25C318.536 899.339 315.718 900.216 312.259 900.216C308.801 900.216 305.982 899.339 305.982 898.25C305.982 897.161 308.801 896.285 312.259 896.285C315.718 896.285 318.536 897.161 318.536 898.25Z" fill="#ADDF72"/>
<path d="M330.451 855.916C330.451 857.006 327.633 857.905 324.174 857.905C320.716 857.905 317.897 857.029 317.897 855.916C317.897 854.827 320.716 853.951 324.174 853.951C327.633 853.951 330.451 854.827 330.451 855.916Z" fill="#ADDF72"/>
<path d="M379.056 860.793C379.056 861.883 376.237 862.782 372.779 862.782C369.321 862.782 366.502 861.906 366.502 860.793C366.502 859.704 369.321 858.828 372.779 858.828C376.237 858.828 379.056 859.704 379.056 860.793Z" fill="#ADDF72"/>
<path d="M843.712 949.321C843.712 951.499 838.098 953.275 831.158 953.275C824.242 953.275 818.604 951.499 818.604 949.321C818.604 947.143 824.218 945.367 831.158 945.367C838.098 945.367 843.712 947.143 843.712 949.321Z" fill="#ADDF72"/>
<path d="M901.412 949.321C901.412 951.499 895.799 953.275 888.858 953.275C881.942 953.275 876.305 951.499 876.305 949.321C876.305 947.143 881.918 945.367 888.858 945.367C895.799 945.367 901.412 947.143 901.412 949.321Z" fill="#ADDF72"/>
<path d="M843.712 961.184C847.179 961.184 849.989 960.304 849.989 959.219C849.989 958.134 847.179 957.254 843.712 957.254C840.246 957.254 837.436 958.134 837.436 959.219C837.436 960.304 840.246 961.184 843.712 961.184Z" fill="#ADDF72"/>
<path d="M975.338 984.079C975.338 985.169 972.519 986.068 969.061 986.068C965.603 986.068 962.784 985.192 962.784 984.079C962.784 982.99 965.603 982.114 969.061 982.114C972.519 982.114 975.338 982.99 975.338 984.079Z" fill="#ADDF72"/>
<path d="M917.945 1008.06C921.411 1008.06 924.222 1007.18 924.222 1006.1C924.222 1005.01 921.411 1004.13 917.945 1004.13C914.478 1004.13 911.668 1005.01 911.668 1006.1C911.668 1007.18 914.478 1008.06 917.945 1008.06Z" fill="#ADDF72"/>
<path d="M1023.9 997.718C1027.36 997.718 1030.17 996.838 1030.17 995.752C1030.17 994.667 1027.36 993.787 1023.9 993.787C1020.43 993.787 1017.62 994.667 1017.62 995.752C1017.62 996.838 1020.43 997.718 1023.9 997.718Z" fill="#ADDF72"/>
<path d="M815.478 941.413C815.478 942.503 812.659 943.402 809.201 943.402C805.743 943.402 802.924 942.526 802.924 941.413C802.924 940.324 805.743 939.448 809.201 939.448C812.659 939.448 815.478 940.324 815.478 941.413Z" fill="#ADDF72"/>
<path d="M961.126 1003.94C961.126 1006.12 955.512 1007.9 948.572 1007.9C941.656 1007.9 936.019 1006.12 936.019 1003.94C936.019 1001.77 941.632 999.99 948.572 999.99C955.512 999.99 961.126 1001.74 961.126 1003.94Z" fill="#ADDF72"/>
<path d="M958.97 958.438C958.97 960.616 953.356 962.392 946.416 962.392C939.476 962.392 933.862 960.616 933.862 958.438C933.862 956.259 939.476 954.483 946.416 954.483C953.356 954.483 958.97 956.259 958.97 958.438Z" fill="#ADDF72"/>
<path d="M1033.56 974.728C1033.56 976.906 1027.95 978.682 1021 978.682C1014.09 978.682 1008.45 976.906 1008.45 974.728C1008.45 972.549 1014.06 970.773 1021 970.773C1027.95 970.773 1033.56 972.549 1033.56 974.728Z" fill="#ADDF72"/>
<path d="M961.126 1015.78C964.592 1015.78 967.403 1014.9 967.403 1013.82C967.403 1012.73 964.592 1011.85 961.126 1011.85C957.659 1011.85 954.849 1012.73 954.849 1013.82C954.849 1014.9 957.659 1015.78 961.126 1015.78Z" fill="#ADDF72"/>
<path d="M932.892 996.037C932.892 997.126 930.073 998.026 926.615 998.026C923.157 998.026 920.338 997.15 920.338 996.037C920.338 994.948 923.157 994.048 926.615 994.048C930.073 994.048 932.892 994.948 932.892 996.037Z" fill="#ADDF72"/>
<path d="M269.979 871.993C273.446 871.993 276.256 871.113 276.256 870.028C276.256 868.942 273.446 868.062 269.979 868.062C266.512 868.062 263.702 868.942 263.702 870.028C263.702 871.113 266.512 871.993 269.979 871.993Z" fill="#ADDF72"/>
<path d="M-5.94434 805.862V833.162C64.0491 828.545 200.365 820.708 403.049 850.636C680.962 891.668 442.535 860.107 450.422 877.462C458.31 894.817 653.344 896.403 757.943 924.816C862.566 953.228 736.223 909.023 680.962 897.99C625.702 886.933 665.164 874.313 853.873 920.081C992.463 953.702 1208.1 1033.28 1312.89 1073.2H1348.92C756.759 775.627 -5.94434 805.862 -5.94434 805.862Z" fill="white" fill-opacity="0.06"/>
<path d="M172.889 1012.99C172.889 1012.99 226.586 1002.55 291.345 992.082C321.568 987.205 354.185 982.328 384.882 978.492C480.315 966.606 680.631 928.107 620.989 902.394C561.346 876.681 513.973 876.515 528.185 862.403C542.397 848.268 434.434 826.296 434.434 826.296L469.514 830.25C469.514 830.25 542.989 842.349 549.503 854.779C556.017 867.21 541.213 866.05 578.519 874.029C615.825 882.008 682.739 897.99 682.147 929.954C681.555 961.918 421.004 1026.44 421.004 1026.44L172.889 1012.99Z" fill="#FFE68F"/>
<path d="M177.413 1013.23L421.004 1026.44C421.004 1026.44 681.555 961.917 682.147 929.953C682.242 924.579 680.395 919.678 677.15 915.155C681.413 923.419 674.236 928.793 669.12 933.884C663.98 939.022 654.908 939.803 641.88 939.069C628.853 938.335 627.266 953.607 607.133 963.859C586.999 974.111 494.219 1000.96 478.823 1001.24C463.427 1001.53 506.844 982.398 492.253 983.582C477.639 984.766 433.037 994.639 441.327 998.57C449.618 1002.52 450.399 1002.9 418.825 1007.26C387.251 1011.59 351.722 1001.25 320.527 998.57C307.191 997.433 300.938 994.237 298.143 990.946C295.869 991.301 293.595 991.679 291.345 992.035C241.13 1000.16 197.594 1008.25 180.54 1011.47L177.413 1013.23Z" fill="#FFC46E"/>
<path d="M359.23 1001.29C362.344 1001.29 364.868 1000.49 364.868 999.494C364.868 998.5 362.344 997.694 359.23 997.694C356.117 997.694 353.593 998.5 353.593 999.494C353.593 1000.49 356.117 1001.29 359.23 1001.29Z" fill="#253250"/>
<path d="M393.292 999.044C393.292 999.802 391.397 1000.39 389.028 1000.39C386.683 1000.39 384.765 999.778 384.765 999.044C384.765 998.286 386.66 997.694 389.028 997.694C391.397 997.694 393.292 998.31 393.292 999.044Z" fill="#253250"/>
<path d="M397.555 994.758C399.909 994.758 401.818 994.154 401.818 993.408C401.818 992.663 399.909 992.059 397.555 992.059C395.2 992.059 393.291 992.663 393.291 993.408C393.291 994.154 395.2 994.758 397.555 994.758Z" fill="#253250"/>
<path d="M429.792 1001.77C432.147 1001.77 434.055 1001.16 434.055 1000.42C434.055 999.671 432.147 999.066 429.792 999.066C427.437 999.066 425.528 999.671 425.528 1000.42C425.528 1001.16 427.437 1001.77 429.792 1001.77Z" fill="#253250"/>
<path d="M443.033 993.408C443.033 994.166 441.138 994.758 438.769 994.758C436.424 994.758 434.506 994.142 434.506 993.408C434.506 992.65 436.401 992.059 438.769 992.059C441.114 992.059 443.033 992.674 443.033 993.408Z" fill="#253250"/>
<path d="M505.802 990.709C505.802 991.467 503.908 992.059 501.539 992.059C499.194 992.059 497.275 991.443 497.275 990.709C497.275 989.951 499.17 989.359 501.539 989.359C503.884 989.359 505.802 989.951 505.802 990.709Z" fill="#253250"/>
<path d="M532.497 985.003C532.497 985.76 530.602 986.352 528.233 986.352C525.888 986.352 523.97 985.737 523.97 985.003C523.97 984.245 525.865 983.653 528.233 983.653C530.602 983.629 532.497 984.245 532.497 985.003Z" fill="#253250"/>
<path d="M562.555 972.146C562.555 972.904 560.66 973.496 558.291 973.496C555.946 973.496 554.027 972.88 554.027 972.146C554.027 971.389 555.922 970.797 558.291 970.797C560.66 970.797 562.555 971.412 562.555 972.146Z" fill="#253250"/>
<path d="M606.469 946.078C606.469 946.836 604.575 947.428 602.206 947.428C599.861 947.428 597.942 946.812 597.942 946.078C597.942 945.344 599.837 944.729 602.206 944.729C604.551 944.729 606.469 945.344 606.469 946.078Z" fill="#253250"/>
<path d="M572.717 973.52C572.717 974.278 570.822 974.87 568.453 974.87C566.108 974.87 564.189 974.254 564.189 973.52C564.189 972.763 566.084 972.171 568.453 972.171C570.822 972.147 572.717 972.763 572.717 973.52Z" fill="#253250"/>
<path d="M612.035 952.778C612.035 953.536 610.14 954.128 607.771 954.128C605.426 954.128 603.508 953.512 603.508 952.778C603.508 952.021 605.403 951.429 607.771 951.429C610.116 951.429 612.035 952.021 612.035 952.778Z" fill="#253250"/>
<path d="M429.792 994.095C429.792 994.474 428.844 994.781 427.66 994.781C426.476 994.781 425.528 994.474 425.528 994.095C425.528 993.716 426.476 993.408 427.66 993.408C428.821 993.408 429.792 993.716 429.792 994.095Z" fill="#253250"/>
<path d="M510.468 987.844C511.645 987.844 512.6 987.537 512.6 987.157C512.6 986.778 511.645 986.471 510.468 986.471C509.29 986.471 508.336 986.778 508.336 987.157C508.336 987.537 509.29 987.844 510.468 987.844Z" fill="#253250"/>
<path d="M554.051 978.586C555.228 978.586 556.182 978.279 556.182 977.9C556.182 977.52 555.228 977.213 554.051 977.213C552.873 977.213 551.919 977.52 551.919 977.9C551.919 978.279 552.873 978.586 554.051 978.586Z" fill="#253250"/>
<path d="M647.115 934.026C649.47 934.026 651.379 933.422 651.379 932.677C651.379 931.931 649.47 931.327 647.115 931.327C644.76 931.327 642.852 931.931 642.852 932.677C642.852 933.422 644.76 934.026 647.115 934.026Z" fill="#253250"/>
<path d="M661.541 934.025C661.541 934.783 659.646 935.375 657.277 935.375C654.932 935.375 653.014 934.759 653.014 934.025C653.014 933.268 654.909 932.676 657.277 932.676C659.646 932.676 661.541 933.268 661.541 934.025Z" fill="#253250"/>
<path d="M621.439 895.882C621.439 896.64 619.544 897.232 617.176 897.232C614.831 897.232 612.912 896.617 612.912 895.882C612.912 895.125 614.807 894.533 617.176 894.533C619.544 894.509 621.439 895.125 621.439 895.882Z" fill="#253250"/>
<path d="M536.76 870.714C539.114 870.714 541.023 870.11 541.023 869.364C541.023 868.619 539.114 868.015 536.76 868.015C534.405 868.015 532.496 868.619 532.496 869.364C532.496 870.11 534.405 870.714 536.76 870.714Z" fill="#253250"/>
<path d="M631.624 897.232C631.624 897.99 629.729 898.582 627.36 898.582C625.015 898.582 623.097 897.966 623.097 897.232C623.097 896.475 624.992 895.883 627.36 895.883C629.705 895.883 631.624 896.475 631.624 897.232Z" fill="#253250"/>
<path d="M645.007 935.376C645.007 935.755 644.059 936.063 642.875 936.063C641.691 936.063 640.743 935.755 640.743 935.376C640.743 934.997 641.691 934.689 642.875 934.689C644.036 934.713 645.007 934.997 645.007 935.376Z" fill="#253250"/>
<path d="M597.942 952.778C597.942 953.157 596.995 953.465 595.81 953.465C594.626 953.465 593.679 953.157 593.679 952.778C593.679 952.4 594.626 952.092 595.81 952.092C596.995 952.092 597.942 952.4 597.942 952.778Z" fill="#253250"/>
<path d="M633.756 936.063C633.756 936.441 632.808 936.749 631.624 936.749C630.44 936.749 629.492 936.441 629.492 936.063C629.492 935.684 630.44 935.376 631.624 935.376C632.785 935.4 633.756 935.707 633.756 936.063Z" fill="#253250"/>
<path d="M607.772 941.413C608.95 941.413 609.904 941.106 609.904 940.727C609.904 940.347 608.95 940.04 607.772 940.04C606.595 940.04 605.641 940.347 605.641 940.727C605.641 941.106 606.595 941.413 607.772 941.413Z" fill="#253250"/>
<path d="M623.405 899.268C623.405 899.647 622.458 899.954 621.273 899.954C620.089 899.954 619.142 899.647 619.142 899.268C619.142 898.889 620.089 898.581 621.273 898.581C622.458 898.581 623.405 898.889 623.405 899.268Z" fill="#253250"/>
<path d="M611.254 893.041C611.254 893.42 610.306 893.728 609.122 893.728C607.938 893.728 606.99 893.42 606.99 893.041C606.99 892.662 607.938 892.354 609.122 892.354C610.283 892.354 611.254 892.662 611.254 893.041Z" fill="#253250"/>
<path d="M600.074 889.3C600.074 889.679 599.127 889.986 597.942 889.986C596.758 889.986 595.811 889.679 595.811 889.3C595.811 888.921 596.758 888.613 597.942 888.613C599.127 888.637 600.074 888.945 600.074 889.3Z" fill="#253250"/>
<path d="M605.64 891.36C606.817 891.36 607.771 891.052 607.771 890.673C607.771 890.294 606.817 889.986 605.64 889.986C604.462 889.986 603.508 890.294 603.508 890.673C603.508 891.052 604.462 891.36 605.64 891.36Z" fill="#253250"/>
<path d="M569.4 880.138C569.4 880.517 568.453 880.825 567.268 880.825C566.084 880.825 565.137 880.517 565.137 880.138C565.137 879.759 566.084 879.451 567.268 879.451C568.453 879.475 569.4 879.783 569.4 880.138Z" fill="#253250"/>
<path d="M573.545 879.474C574.722 879.474 575.677 879.166 575.677 878.787C575.677 878.408 574.722 878.101 573.545 878.101C572.368 878.101 571.413 878.408 571.413 878.787C571.413 879.166 572.368 879.474 573.545 879.474Z" fill="#253250"/>
<path d="M541.758 873.223C542.935 873.223 543.89 872.916 543.89 872.536C543.89 872.157 542.935 871.85 541.758 871.85C540.58 871.85 539.626 872.157 539.626 872.536C539.626 872.916 540.58 873.223 541.758 873.223Z" fill="#253250"/>
<path d="M532.496 865.623C532.496 866.002 531.548 866.31 530.364 866.31C529.18 866.31 528.232 866.002 528.232 865.623C528.232 865.244 529.18 864.937 530.364 864.937C531.548 864.96 532.496 865.268 532.496 865.623Z" fill="#253250"/>
<path d="M536.761 861.859C537.938 861.859 538.893 861.551 538.893 861.172C538.893 860.793 537.938 860.485 536.761 860.485C535.583 860.485 534.629 860.793 534.629 861.172C534.629 861.551 535.583 861.859 536.761 861.859Z" fill="#253250"/>
<path d="M583.802 883.973C583.802 884.352 582.854 884.659 581.67 884.659C580.486 884.659 579.538 884.352 579.538 883.973C579.538 883.594 580.486 883.286 581.67 883.286C582.854 883.286 583.802 883.618 583.802 883.973Z" fill="#253250"/>
<path d="M447.865 987.158C451.593 987.158 454.616 986.193 454.616 985.003C454.616 983.813 451.593 982.849 447.865 982.849C444.137 982.849 441.114 983.813 441.114 985.003C441.114 986.193 444.137 987.158 447.865 987.158Z" fill="#253250"/>
<path d="M535.007 980.054C538.736 980.054 541.758 979.09 541.758 977.9C541.758 976.71 538.736 975.745 535.007 975.745C531.279 975.745 528.257 976.71 528.257 977.9C528.257 979.09 531.279 980.054 535.007 980.054Z" fill="#253250"/>
<path d="M623.405 944.728C623.405 945.912 620.373 946.882 616.654 946.882C612.935 946.882 609.903 945.912 609.903 944.728C609.903 943.544 612.935 942.573 616.654 942.573C620.396 942.573 623.405 943.544 623.405 944.728Z" fill="#253250"/>
<path d="M383.982 992.958C384.053 994.616 379.553 996.155 373.939 996.415C368.325 996.676 363.707 995.539 363.636 993.882C363.565 992.224 368.065 990.685 373.679 990.425C379.292 990.164 383.911 991.301 383.982 992.958Z" fill="#253250"/>
<path d="M272.372 1002.05C271.235 1002.05 270.287 1001.13 270.287 999.968V971.271C270.287 970.135 271.211 969.188 272.372 969.188C273.508 969.188 274.456 970.111 274.456 971.271V999.968C274.456 1001.13 273.508 1002.05 272.372 1002.05Z" fill="#542032"/>
<path d="M335.236 994.876C334.099 994.876 333.151 993.953 333.151 992.793V964.096C333.151 962.96 334.075 962.013 335.236 962.013C336.373 962.013 337.32 962.936 337.32 964.096V992.793C337.32 993.953 336.396 994.876 335.236 994.876Z" fill="#542032"/>
<path d="M407.787 987.229C406.65 987.229 405.702 986.306 405.702 985.145V956.449C405.702 955.312 406.626 954.365 407.787 954.365C408.924 954.365 409.871 955.289 409.871 956.449V985.145C409.847 986.306 408.924 987.229 407.787 987.229Z" fill="#542032"/>
<path d="M475.885 974.87C474.748 974.87 473.801 973.946 473.801 972.786V944.089C473.801 942.953 474.725 942.006 475.885 942.006C477.022 942.006 477.97 942.929 477.97 944.089V972.786C477.946 973.946 477.022 974.87 475.885 974.87Z" fill="#542032"/>
<path d="M532.496 963.86C531.359 963.86 530.411 962.936 530.411 961.776V933.08C530.411 931.943 531.335 930.996 532.496 930.996C533.632 930.996 534.58 931.92 534.58 933.08V961.776C534.58 962.936 533.656 963.86 532.496 963.86Z" fill="#542032"/>
<path d="M581.669 955.526C580.532 955.526 579.585 954.602 579.585 953.442V924.746C579.585 923.609 580.509 922.662 581.669 922.662C582.806 922.662 583.754 923.585 583.754 924.746V953.442C583.754 954.602 582.83 955.526 581.669 955.526Z" fill="#542032"/>
<path d="M610.874 942.787C609.903 942.787 609.121 942.005 609.121 941.035V916.884C609.121 915.913 609.903 915.132 610.874 915.132C611.845 915.132 612.627 915.913 612.627 916.884V941.035C612.603 942.005 611.821 942.787 610.874 942.787Z" fill="#542032"/>
<path d="M627.36 932.677C626.46 932.677 625.726 931.943 625.726 931.043V908.432C625.726 907.532 626.46 906.798 627.36 906.798C628.26 906.798 628.994 907.532 628.994 908.432V931.043C628.994 931.943 628.26 932.677 627.36 932.677Z" fill="#542032"/>
<path d="M622.125 903.814V893.183C622.125 892.662 621.699 892.26 621.201 892.26C620.68 892.26 620.277 892.662 620.277 893.183V903.814C620.727 903.909 621.367 903.933 622.125 903.814Z" fill="#542032"/>
<path d="M609.619 899.433V888.802C609.619 888.281 609.216 887.879 608.695 887.879C608.174 887.879 607.771 888.281 607.771 888.802V899.433C608.245 899.552 608.885 899.575 609.619 899.433Z" fill="#542032"/>
<path d="M597.681 894.367V883.736C597.681 883.215 597.254 882.812 596.757 882.812C596.236 882.812 595.833 883.215 595.833 883.736V894.367C596.283 894.462 596.923 894.485 597.681 894.367Z" fill="#542032"/>
<path d="M583.659 890.39V880.611C583.659 880.138 583.28 879.759 582.806 879.759C582.332 879.759 581.953 880.138 581.953 880.611V890.39C582.379 890.485 582.972 890.508 583.659 890.39Z" fill="#542032"/>
<path d="M567.387 886.104V877.107C567.387 876.68 567.031 876.325 566.605 876.325C566.179 876.325 565.823 876.68 565.823 877.107V886.104C566.226 886.199 566.747 886.222 567.387 886.104Z" fill="#542032"/>
<path d="M548.65 880.067V871.069C548.65 870.643 548.295 870.288 547.869 870.288C547.442 870.288 547.087 870.643 547.087 871.069V880.067C547.49 880.161 548.011 880.185 548.65 880.067Z" fill="#542032"/>
<path d="M536.073 876.088V867.801C536.073 867.399 535.741 867.091 535.362 867.091C534.959 867.091 534.651 867.422 534.651 867.801V876.088C535.007 876.183 535.48 876.207 536.073 876.088Z" fill="#542032"/>
<path d="M526.219 871.211V862.924C526.219 862.522 525.887 862.214 525.508 862.214C525.129 862.214 524.798 862.545 524.798 862.924V871.211C525.153 871.306 525.651 871.329 526.219 871.211Z" fill="#542032"/>
<path d="M528.137 861.1V853.476C528.137 853.121 527.829 852.813 527.474 852.813C527.118 852.813 526.811 853.121 526.811 853.476V861.1C527.142 861.195 527.592 861.219 528.137 861.1Z" fill="#542032"/>
<path d="M517.123 852.767V845.758C517.123 845.427 516.839 845.143 516.507 845.143C516.176 845.143 515.892 845.427 515.892 845.758V852.79C516.2 852.838 516.626 852.861 517.123 852.767Z" fill="#542032"/>
<path d="M501.798 845.308V840.856C501.798 840.643 501.632 840.478 501.419 840.478C501.206 840.478 501.04 840.643 501.04 840.856V845.308C501.23 845.355 501.49 845.355 501.798 845.308Z" fill="#542032"/>
<path d="M486.07 839.768V836.997C486.07 836.855 485.952 836.761 485.833 836.761C485.691 836.761 485.597 836.879 485.597 836.997V839.768C485.715 839.791 485.881 839.815 486.07 839.768Z" fill="#542032"/>
<path d="M621.201 900.642C621.201 900.642 627.146 911.438 627.36 917.5" stroke="#542032" stroke-width="0.3" stroke-miterlimit="10"/>
<path d="M621.438 897.706C621.438 897.706 625.513 905.188 628.023 909.474" stroke="#542032" stroke-width="0.3" stroke-miterlimit="10"/>
<path d="M274.455 975.533C274.455 975.533 309.89 978.492 334.169 967.838C334.169 967.838 371.664 976.717 407.786 960.143C407.786 960.143 460.678 960.924 475.103 949.085C475.103 949.085 518.331 950.861 531.548 936.844C531.548 936.844 563.927 941.603 580.508 928.96C580.508 928.96 600.973 929.031 610.874 919.726C610.874 919.726 619.756 919.702 627.383 910.231" stroke="#542032" stroke-width="0.5" stroke-miterlimit="10"/>
<path d="M272.371 987.229C272.371 987.229 317.375 988.673 334.145 978.468C334.145 978.468 385.663 980.078 407.763 968.642C407.763 968.642 459.47 968.24 474.866 956.804C474.866 956.804 518.047 957.396 532.472 946.149C532.472 946.149 570.204 944.634 581.645 934.05C581.645 934.05 600.168 933.127 610.827 924.461C610.827 924.461 625.417 921.336 627.336 914.398" stroke="#542032" stroke-width="0.5" stroke-miterlimit="10"/>
<path d="M620.68 896.238C618.524 896.048 616.416 895.622 614.379 894.912C612.366 894.202 610.376 893.183 608.837 891.597L609.074 891.715C606.8 891.526 604.573 891.171 602.37 890.484C600.215 889.821 598.012 888.874 596.449 887.051L596.685 887.193C594.317 886.933 591.972 886.554 589.651 886.033C588.49 885.773 587.329 885.488 586.192 885.11C585.055 884.731 583.918 884.305 582.876 883.618L583.09 883.689C580.2 883.665 577.357 883.452 574.515 882.955C571.696 882.434 568.854 881.7 566.367 880.09L566.509 880.137C563.146 879.664 559.853 878.953 556.608 877.912C553.41 876.87 550.165 875.568 547.583 873.247L547.797 873.342C545.76 873.176 543.723 872.916 541.709 872.561C540.691 872.371 539.696 872.158 538.701 871.898C537.706 871.59 536.688 871.306 535.788 870.548L535.977 870.643C533.987 870.311 532.021 869.767 530.174 868.962C528.35 868.157 526.455 867.044 525.46 865.102C525.437 865.055 525.413 864.984 525.437 864.913V864.889L526.763 854.495L527 854.874C524.868 854.093 522.879 853.051 521.007 851.796C519.16 850.517 517.431 848.978 516.175 847.037L516.436 847.203C513.736 846.895 511.059 846.398 508.454 845.64C507.151 845.261 505.848 844.835 504.616 844.243C503.385 843.675 502.153 842.988 501.134 841.994L501.348 842.088C498.647 841.686 495.971 841.165 493.342 840.478C490.712 839.768 488.083 838.939 485.762 837.448C485.714 837.424 485.715 837.377 485.738 837.329C485.762 837.282 485.809 837.282 485.857 837.306C488.178 838.679 490.831 839.413 493.436 840.052C496.066 840.668 498.742 841.094 501.419 841.402C501.49 841.402 501.561 841.425 501.608 841.473L501.632 841.496C502.532 842.396 503.716 843.059 504.901 843.604C506.109 844.172 507.364 844.598 508.643 844.953C511.201 845.687 513.854 846.184 516.507 846.492C516.625 846.516 516.72 846.563 516.767 846.658C517.952 848.481 519.586 849.973 521.386 851.204C523.186 852.435 525.176 853.453 527.213 854.211C527.379 854.258 527.474 854.424 527.45 854.59L526.124 864.984L526.1 864.795C526.953 866.452 528.682 867.541 530.458 868.299C532.235 869.08 534.177 869.601 536.096 869.909C536.167 869.933 536.214 869.956 536.285 870.004H536.309C536.972 870.572 537.967 870.903 538.914 871.187C539.885 871.448 540.857 871.661 541.851 871.85C543.841 872.206 545.854 872.442 547.868 872.608C547.939 872.608 548.034 872.655 548.081 872.703C550.521 874.881 553.695 876.183 556.845 877.201C560.019 878.22 563.311 878.906 566.604 879.403C566.651 879.403 566.722 879.427 566.77 879.451C569.091 880.942 571.886 881.7 574.633 882.197C577.405 882.694 580.247 882.908 583.066 882.931C583.137 882.931 583.208 882.955 583.279 883.002C584.203 883.618 585.316 884.044 586.406 884.399C587.519 884.754 588.656 885.062 589.793 885.299C592.09 885.796 594.412 886.175 596.757 886.435C596.851 886.435 596.946 886.506 596.993 886.578C598.367 888.211 600.475 889.135 602.583 889.774C604.691 890.413 606.918 890.792 609.121 890.958C609.216 890.958 609.287 891.005 609.358 891.076C610.779 892.544 612.65 893.539 614.616 894.225C616.582 894.888 618.666 895.338 620.727 895.504H620.751C620.94 895.527 621.082 895.693 621.082 895.883C621.059 896.096 620.893 896.238 620.68 896.238Z" fill="#542032"/>
<path d="M620.727 900.263C618.548 900.334 616.416 900.097 614.308 899.505C612.247 898.913 610.21 897.848 608.813 896.072L609.074 896.214C606.8 896.001 604.573 895.622 602.394 894.936C600.238 894.249 598.059 893.326 596.449 891.55L596.662 891.668C594.222 891.266 591.806 890.792 589.414 890.176C588.229 889.869 587.021 889.537 585.861 889.111C584.7 888.661 583.516 888.235 582.497 887.24L582.805 887.359C579.939 887.501 577.097 887.335 574.254 886.838C571.459 886.317 568.617 885.417 566.343 883.547L566.556 883.642C563.169 883.357 559.829 882.837 556.561 881.961C554.926 881.534 553.316 880.99 551.752 880.279C550.213 879.545 548.673 878.669 547.583 877.249L547.844 877.391C545.641 877.201 543.462 876.894 541.307 876.373C539.175 875.852 536.996 875.189 535.124 873.839L535.219 873.887C533.466 873.271 531.737 872.561 530.056 871.779C528.374 870.974 526.716 870.098 525.247 868.867C525.152 868.796 525.105 868.654 525.129 868.536L527.095 857.668L527.379 858.07C525.129 857.55 523.021 856.697 521.031 855.537C519.065 854.353 517.289 852.767 516.175 850.707L516.412 850.896C513.688 850.304 511.012 849.523 508.406 848.505C505.824 847.463 503.242 846.232 501.158 844.243L501.134 844.219L501.395 844.314C498.529 844.219 495.852 843.485 493.247 842.562C490.641 841.615 488.154 840.407 485.762 838.987C485.714 838.963 485.715 838.916 485.738 838.868C485.762 838.821 485.809 838.821 485.857 838.845C488.273 840.171 490.783 841.283 493.389 842.136C495.971 842.964 498.718 843.604 501.371 843.604C501.466 843.604 501.561 843.651 501.632 843.698L501.656 843.722C503.598 845.593 506.109 846.824 508.643 847.818C511.201 848.813 513.854 849.594 516.531 850.186C516.649 850.21 516.72 850.281 516.767 850.375C517.786 852.293 519.468 853.809 521.363 854.921C523.257 856.034 525.366 856.863 527.497 857.36C527.687 857.407 527.805 857.597 527.782 857.763L525.816 868.63L525.697 868.299C527.047 869.435 528.705 870.311 530.34 871.093C531.998 871.874 533.703 872.561 535.432 873.176C535.456 873.2 535.503 873.2 535.527 873.224C537.233 874.455 539.341 875.142 541.425 875.639C543.533 876.136 545.689 876.444 547.844 876.633C547.939 876.633 548.034 876.704 548.105 876.775C549.076 878.03 550.544 878.906 552.013 879.593C553.505 880.279 555.092 880.824 556.703 881.25C559.924 882.103 563.24 882.624 566.556 882.908C566.627 882.908 566.698 882.955 566.77 883.002C568.901 884.754 571.625 885.63 574.349 886.151C577.097 886.649 579.939 886.791 582.711 886.672C582.829 886.672 582.924 886.72 582.995 886.791L583.018 886.814C583.776 887.572 584.961 888.046 586.074 888.472C587.211 888.874 588.395 889.206 589.58 889.514C591.948 890.105 594.341 890.603 596.757 890.982C596.851 891.005 596.922 891.053 596.97 891.1C598.391 892.686 600.499 893.61 602.583 894.273C604.691 894.936 606.894 895.314 609.097 895.527C609.192 895.527 609.287 895.598 609.358 895.67C610.613 897.28 612.508 898.274 614.474 898.842C616.464 899.41 618.572 899.624 620.632 899.576H620.656C620.846 899.576 621.011 899.718 621.011 899.931C621.083 900.097 620.94 900.263 620.727 900.263Z" fill="#542032"/>
<path d="M1691 882.743C1691 882.743 745.266 856.701 11 1113H1691V882.743Z" fill="#4A764F"/>
<path d="M1321.42 969.047C1321.06 969.118 1321.11 969.118 1321.42 969.047V969.047Z" fill="#56664B"/>
<path d="M1258.18 1004.49C1257.89 1004.56 1257.94 1004.54 1258.18 1004.49V1004.49Z" fill="#56664B"/>
<path d="M1198.87 1004.23C1198.61 1004.28 1198.65 1004.28 1198.87 1004.23V1004.23Z" fill="#56664B"/>
<path d="M1431.51 980.554C1431.25 980.625 1431.3 980.625 1431.51 980.554V980.554Z" fill="#56664B"/>
<path d="M160.831 1012.8C160.594 1012.87 160.618 1012.87 160.831 1012.8V1012.8Z" fill="#56664B"/>
<path d="M210.312 1002.93C210.051 1002.98 210.099 1002.98 210.312 1002.93V1002.93Z" fill="#56664B"/>
<path d="M259.296 1045.9C259.296 1045.9 260.907 1042.16 260.409 1036.46C259.888 1030.75 256.667 1028.19 256.667 1028.19L257.685 1026.75C257.685 1026.75 261.428 1030.06 262.802 1029.38C264.152 1028.69 268.676 1023.24 265.786 1017.56C262.897 1011.86 262.897 1011.86 262.897 1011.86L265.194 1011.43C265.194 1011.43 267.492 1016.45 268.676 1016.61C269.86 1016.78 271.139 1012.64 271.139 1012.64L275.308 1013.63C275.308 1013.63 269.339 1021.71 269.173 1024C269.008 1026.3 266.71 1029.61 268.747 1030.04C270.784 1030.47 273.011 1029.02 273.011 1029.02L274.55 1031.84C274.55 1031.84 269.268 1032.86 268.581 1034.23C267.894 1035.58 268.676 1045.88 268.676 1045.88C268.676 1045.88 265.17 1047.51 259.296 1045.9Z" fill="#56664B"/>
<path d="M258.112 1013.92C257.922 1013.96 257.946 1013.96 258.112 1013.92V1013.92Z" fill="#56664B"/>
<path d="M1686.85 909C1403.95 913.612 764.836 944.492 471.619 1031.11" stroke="black" stroke-opacity="0.1" stroke-width="9"/>
<path d="M1232 688V799H1244.86V697L1259 686L1244.86 678L1232 688Z" fill="black"/>
<path d="M1687.43 945.995C1404.53 950.607 765.417 981.487 472.2 1068.11" stroke="black" stroke-opacity="0.1" stroke-width="9"/>
<path d="M1688.04 984.99C1405.14 989.602 766.03 1020.48 472.813 1107.1" stroke="black" stroke-opacity="0.1" stroke-width="9"/>
<ellipse cx="1319" cy="953" rx="175" ry="16" fill="black" fill-opacity="0.2"/>
<path d="M1279.25 669.478C1279.25 678.575 1286.62 685.956 1295.73 685.956C1304.83 685.956 1312.2 678.575 1312.2 669.478C1312.2 660.376 1304.83 653 1295.73 653C1286.62 653 1279.25 660.376 1279.25 669.478Z" fill="#FF4A3B"/>
<path d="M1215.08 819.839H1174.92V816.357H1215.08V819.839Z" fill="#F5A44F"/>
<path d="M1222.14 792.18H1239.86V794.411H1222.14V792.18Z" fill="#A55E00"/>
<path d="M1222.14 791.061H1239.86V792.179H1222.14V791.061Z" fill="#D4A470"/>
<path d="M1222.14 800.225H1239.86V802.461H1222.14V800.225Z" fill="#A55E00"/>
<path d="M1222.14 799.107H1239.86V800.225H1222.14V799.107Z" fill="#D4A470"/>
<path d="M1222.14 808.27H1239.86V810.506H1222.14V808.27Z" fill="#A55E00"/>
<path d="M1222.14 807.157H1239.86V808.27H1222.14V807.157Z" fill="#D4A470"/>
<path d="M1222.14 816.32H1239.86V818.556H1222.14V816.32Z" fill="#A55E00"/>
<path d="M1222.14 815.201H1239.86V816.319H1222.14V815.201Z" fill="#D4A470"/>
<path d="M1222.14 824.365H1239.86V826.601H1222.14V824.365Z" fill="#A55E00"/>
<path d="M1222.14 823.253H1239.86V824.366H1222.14V823.253Z" fill="#D4A470"/>
<path d="M1222.14 832.417H1239.86V834.647H1222.14V832.417Z" fill="#A55E00"/>
<path d="M1222.14 831.298H1239.86V832.416H1222.14V831.298Z" fill="#D4A470"/>
<path d="M1222.14 840.461H1239.86V842.697H1222.14V840.461Z" fill="#A55E00"/>
<path d="M1222.14 839.348H1239.86V840.461H1222.14V839.348Z" fill="#D4A470"/>
<path d="M1152.69 857.667H1162.32L1161.93 848.519H1147.65L1152.69 857.667Z" fill="#D2A595"/>
<path d="M1147.65 848.521H1161.94L1161.4 835.765H1149.22L1147 847.332L1147.65 848.521Z" fill="#D9B1A8"/>
<path d="M1176.75 898.536L1162.8 869.021L1160.42 812.542L1171.75 794.278L1269.38 781.153L1350.45 756.105L1420.47 755.313C1420.47 755.313 1462.78 768.218 1461.49 769.004C1461.2 769.178 1464.02 811.031 1457.64 815.483C1435.16 831.179 1371.97 831.532 1371.97 831.532C1371.97 831.532 1329.93 902.594 1328.92 904.621C1327.9 906.647 1259.09 906.413 1259.09 906.413L1176.75 898.536Z" fill="#DE3D2C"/>
<path d="M1347.87 872.338L1366.39 840.964C1361.8 848.734 1355 860.245 1348.45 871.348L1347.87 872.338ZM1366.93 840.066L1371.96 831.551C1371.81 831.817 1369.88 835.068 1366.93 840.066ZM1371.96 831.546L1371.97 831.536C1371.97 831.536 1371.97 831.541 1371.96 831.546Z" fill="#C4271B"/>
<path d="M1461.72 795.937C1462.39 790.393 1462.93 783.45 1461.87 781.153C1461.85 781.112 1461.83 781.082 1461.8 781.046C1461.89 785.579 1461.91 790.873 1461.72 795.937Z" fill="#5C1400"/>
<path d="M1325.74 871.347H1348.45C1355 860.244 1361.8 848.733 1366.39 840.963L1366.47 840.841L1366.93 840.065C1369.88 835.068 1371.81 831.816 1371.96 831.55V831.545C1371.97 831.54 1371.97 831.535 1371.97 831.535V831.53L1459.23 812.78L1460.65 803.49C1460.65 803.49 1461.22 800.111 1461.72 795.935C1461.91 790.871 1461.89 785.577 1461.8 781.044C1460.48 779.396 1446.82 778.696 1431.04 778.696C1409.43 778.696 1383.84 780.008 1380.47 781.994C1374.59 785.46 1367.41 805.241 1367.41 805.241L1324.14 869.397L1325.74 871.347Z" fill="#AB0905"/>
<path d="M1264.23 871.35H1348.45L1328.17 906.419L1277.35 907.262L1264.23 871.35Z" fill="#A9211A"/>
<path d="M1186.17 806.945L1193.64 844.066L1189.91 868.661L1180.03 890.259L1170.19 884.649L1162.8 869.023L1160.42 812.545L1162.8 808.716L1186.17 806.945Z" fill="#E04737"/>
<path d="M1267.02 787.734L1277.35 863.462L1260.81 847.055L1260.29 842.191L1248.34 799.173L1267.02 787.734Z" fill="#E04737"/>
<path d="M1215.83 827.973C1215.83 827.973 1231.66 841.026 1231.66 842.996C1231.66 844.961 1231.66 846.769 1231.66 846.769H1206.78L1195.73 842.19L1215.83 827.973Z" fill="#C4271B"/>
<path d="M1180.03 905.99H1254.71L1181.38 898.981L1180.03 905.99Z" fill="#B22014"/>
<path d="M1254.71 905.99H1276.89L1264.23 871.35H1282.31L1264.9 856.413L1234.69 849.818C1234.69 849.818 1207.89 852.161 1201.83 856.638C1195.77 861.12 1182.54 892.937 1182.54 892.937L1181.38 898.981L1254.71 905.99Z" fill="#AB0905"/>
<path d="M1276.88 905.99H1310.13L1296.8 883.785L1282.3 871.35H1264.23L1276.88 905.99Z" fill="#820503"/>
<path d="M1186.56 904.623H1155.87V881.249H1186.56V904.623Z" fill="#FF5E45"/>
<path d="M1160.96 825.228L1182.37 824.519L1186.17 842.012L1169.75 867.546L1162.8 869.021L1160.96 825.228Z" fill="#424261"/>
<path d="M1168.43 867.082L1184.85 841.543L1181.15 824.56L1182.37 824.519L1186.17 842.012L1169.75 867.546L1162.8 869.021L1162.77 868.276L1168.43 867.082Z" fill="#FF8470"/>
<path d="M1184.44 834.018L1185.22 837.617L1161.51 838.332L1161.36 834.733L1184.44 834.018ZM1182.96 827.198L1183.74 830.797L1161.22 831.507L1161.07 827.908L1182.96 827.198ZM1185.92 840.843L1186.17 842.012L1184.62 844.437L1161.79 845.151L1161.64 841.553L1185.92 840.843ZM1178.16 854.483L1175.84 858.082L1162.37 858.796L1162.22 855.197L1178.16 854.483ZM1162.66 865.616L1162.5 862.017L1173.77 861.308L1171.46 864.902L1162.66 865.616ZM1161.93 848.373L1162.08 851.971L1180.23 851.262L1182.54 847.663L1161.93 848.373Z" fill="#FF5E45"/>
<path d="M1173.09 862.362L1162.55 863.025L1162.5 862.02L1173.77 861.31L1173.09 862.362Z" fill="#FF8470"/>
<path d="M1182.96 828.21L1161.11 828.919L1161.07 827.908L1182.96 827.199L1183.74 830.798L1183.52 830.803L1182.96 828.21Z" fill="#FF8470"/>
<path d="M1177.49 855.523L1162.26 856.202L1162.22 855.197L1178.16 854.482L1177.49 855.523Z" fill="#FF8470"/>
<path d="M1185.22 837.619L1185 837.624L1184.44 835.031L1161.4 835.74L1161.35 834.735L1184.44 834.02L1185.22 837.619Z" fill="#FF8470"/>
<path d="M1181.87 848.694L1161.97 849.383L1161.93 848.372L1182.54 847.663L1181.87 848.694Z" fill="#FF8470"/>
<path d="M1186.17 842.01L1186.01 842.265L1185.92 841.847L1161.69 842.562L1161.65 841.551L1185.92 840.841L1186.17 842.01Z" fill="#FF8470"/>
<path d="M1289.86 890.262L1297.06 883.013L1260.81 847.056H1201.38L1178.22 883.917L1186.86 889.353L1207.02 857.265H1256.61L1289.86 890.262Z" fill="#FF5E45"/>
<path d="M1328.5 874.586L1382.37 786.111L1455.35 782.298L1496.82 816.709L1503.34 808.853L1458.8 771.895L1376.45 776.193L1319.78 869.277L1328.5 874.586Z" fill="#FF5E45"/>
<path d="M1262.62 851.741H1203.19L1181.62 886.06L1178.22 883.916L1201.38 847.055H1260.81L1297.06 883.012L1295.61 884.467L1262.62 851.741Z" fill="#FF8470"/>
<path d="M1460.61 776.578L1378.26 780.881L1323.18 871.347L1319.78 869.274L1376.45 776.19L1458.8 771.892L1503.34 808.85L1501.77 810.733L1460.61 776.578Z" fill="#FF8470"/>
<path d="M1269.38 781.155C1269.38 781.155 1269.38 793.85 1248.34 799.174C1227.29 804.498 1162.8 808.715 1162.8 808.715L1171.76 794.279L1269.38 781.155Z" fill="#FF8470"/>
<path d="M1198.28 842.192H1209.59C1215.1 842.192 1219.05 836.883 1217.47 831.61L1217.17 830.589C1216.2 827.348 1213.35 825.03 1209.98 824.744L1198.08 825.168C1196.75 825.27 1195.72 826.378 1195.72 827.715V839.64C1195.72 841.049 1196.87 842.192 1198.28 842.192Z" fill="#FF745E"/>
<path d="M1204.25 839.007C1209.76 839.007 1213.71 833.703 1212.13 828.425L1211.82 827.404C1211.54 826.465 1211.06 825.633 1210.5 824.872C1213.63 825.342 1216.25 827.521 1217.17 830.589L1217.47 831.61C1219.05 836.883 1215.1 842.192 1209.59 842.192H1198.28C1196.86 842.192 1195.72 841.049 1195.72 839.64V839.007H1204.25Z" fill="#FF5135"/>
<path d="M1269.38 781.154L1280.87 812.783H1309.33L1350.45 756.106L1405.66 756.024L1388.36 677.488L1385.66 667.187H1363.17C1335.95 669.423 1297.55 672.996 1293.47 675.538C1284.26 681.291 1269.38 781.154 1269.38 781.154Z" fill="#5BABA2"/>
<path d="M1354.06 686.232H1378.73L1390.2 746.983H1353.65L1354.06 686.232Z" fill="#A9E7CF"/>
<path d="M1300.8 686.232H1347.62L1347.02 743.206H1311.69L1299.1 767.719H1283.47C1283.47 767.719 1288.32 730.807 1292.41 712.317C1295.1 700.158 1298.66 691.056 1300.8 686.232Z" fill="#A9E7CF"/>
<path d="M1395.43 751.272L1382.31 681.776H1354.08L1353.61 751.272H1395.43ZM1277.85 774.988H1295.73L1310.14 746.953H1350.55L1351.24 681.776H1295.73V674.757H1380.99L1380.48 672.057L1388.03 675.926L1405.66 756.024L1396.33 756.049H1353.58V756.106H1350.45L1309.33 812.783H1280.87L1274.89 796.341L1277.85 774.988Z" fill="#424261"/>
<path d="M1299.77 677.33C1299.77 677.33 1292.76 690.464 1288.08 711.613C1283.4 732.767 1274.89 796.341 1274.89 796.341L1269.38 781.154C1269.38 781.154 1278.27 721.72 1282.63 704.267C1286.98 686.814 1291.88 676.273 1291.88 676.273L1299.77 677.33Z" fill="#DE3D2C"/>
<path d="M1286.26 666.243L1356.53 662.312L1390.79 664.4L1396.33 676.345L1283.47 677.33L1286.26 666.243Z" fill="#FF5E45"/>
<path d="M1350.45 876.848C1350.45 832.233 1386.61 796.072 1431.23 796.072C1475.84 796.072 1512 832.233 1512 876.848C1512 921.458 1475.84 957.62 1431.23 957.62C1386.61 957.62 1350.45 921.458 1350.45 876.848Z" fill="#727289"/>
<path d="M1356.53 876.848C1356.53 835.592 1389.97 802.151 1431.23 802.151C1472.48 802.151 1505.93 835.592 1505.93 876.848C1505.93 918.099 1472.48 951.545 1431.23 951.545C1389.97 951.545 1356.53 918.099 1356.53 876.848Z" fill="#424261"/>
<path d="M1380.47 876.847C1380.47 848.812 1403.2 826.091 1431.23 826.091C1459.26 826.091 1481.98 848.812 1481.98 876.847C1481.98 904.877 1459.26 927.598 1431.23 927.598C1403.2 927.598 1380.47 904.877 1380.47 876.847Z" fill="#2A2A4D"/>
<path d="M1189.69 910.213C1189.69 884.031 1210.92 862.805 1237.1 862.805C1263.28 862.805 1284.51 884.031 1284.51 910.213C1284.51 936.395 1263.28 957.62 1237.1 957.62C1210.92 957.62 1189.69 936.395 1189.69 910.213Z" fill="#727289"/>
<path d="M1193.64 910.21C1193.64 886.213 1213.1 866.754 1237.1 866.754C1261.1 866.754 1280.56 886.213 1280.56 910.21C1280.56 934.213 1261.1 953.672 1237.1 953.672C1213.1 953.672 1193.64 934.213 1193.64 910.21Z" fill="#424261"/>
<path d="M1209.16 910.212C1209.16 894.785 1221.67 882.279 1237.1 882.279C1252.52 882.279 1265.03 894.785 1265.03 910.212C1265.03 925.643 1252.52 938.145 1237.1 938.145C1221.67 938.145 1209.16 925.643 1209.16 910.212Z" fill="#2A2A4D"/>
<path d="M1386.67 876.849C1386.67 852.239 1406.62 832.29 1431.23 832.29C1455.84 832.29 1475.79 852.239 1475.79 876.849C1475.79 901.453 1455.84 921.402 1431.23 921.402C1406.62 921.402 1386.67 901.453 1386.67 876.849Z" fill="#CD9000"/>
<path d="M1437.9 844.303C1439.72 840.413 1444.34 838.734 1448.23 840.546C1452.12 842.358 1453.8 846.983 1451.99 850.873C1450.18 854.763 1445.55 856.442 1441.66 854.63C1437.77 852.818 1436.09 848.193 1437.9 844.303Z" fill="#2E2B27"/>
<path d="M1460.57 861.097C1464.71 859.984 1468.97 862.444 1470.08 866.589C1471.19 870.734 1468.73 874.997 1464.59 876.105C1460.44 877.217 1456.18 874.757 1455.07 870.612C1453.96 866.467 1456.42 862.204 1460.57 861.097Z" fill="#2E2B27"/>
<path d="M1462.27 889.253C1465.78 891.718 1466.64 896.563 1464.18 900.075C1461.72 903.592 1456.87 904.444 1453.36 901.984C1449.84 899.524 1448.99 894.679 1451.45 891.162C1453.91 887.65 1458.76 886.792 1462.27 889.253Z" fill="#2E2B27"/>
<path d="M1441.8 908.655C1442.17 912.933 1439.01 916.7 1434.74 917.078C1430.46 917.45 1426.69 914.285 1426.31 910.013C1425.94 905.735 1429.11 901.968 1433.38 901.595C1437.66 901.222 1441.42 904.382 1441.8 908.655Z" fill="#2E2B27"/>
<path d="M1413.77 905.448C1410.74 908.48 1405.82 908.48 1402.79 905.448C1399.75 902.41 1399.75 897.489 1402.79 894.457C1405.82 891.42 1410.74 891.42 1413.77 894.457C1416.81 897.489 1416.81 902.41 1413.77 905.448Z" fill="#2E2B27"/>
<path d="M1398.22 881.916C1393.95 881.544 1390.79 877.771 1391.16 873.499C1391.53 869.221 1395.3 866.061 1399.58 866.434C1403.85 866.807 1407.01 870.579 1406.64 874.852C1406.26 879.129 1402.5 882.289 1398.22 881.916Z" fill="#2E2B27"/>
<path d="M1406.25 854.878C1403.79 851.361 1404.64 846.516 1408.16 844.056C1411.67 841.596 1416.52 842.448 1418.98 845.965C1421.44 849.477 1420.59 854.322 1417.07 856.787C1413.56 859.248 1408.71 858.39 1406.25 854.878Z" fill="#2E2B27"/>
<path d="M1400.97 877.006C1400.97 860.293 1414.52 846.745 1431.23 846.745C1447.94 846.745 1461.49 860.293 1461.49 877.006C1461.49 893.719 1447.94 907.262 1431.23 907.262C1414.52 907.262 1400.97 893.719 1400.97 877.006Z" fill="#F2C028"/>
<path d="M1412.61 877.004C1412.61 866.723 1420.95 858.387 1431.23 858.387C1441.51 858.387 1449.84 866.723 1449.84 877.004C1449.84 887.284 1441.51 895.615 1431.23 895.615C1420.95 895.615 1412.61 887.284 1412.61 877.004Z" fill="#CD9000"/>
<path d="M1423.46 877.004C1423.46 872.711 1426.94 869.23 1431.23 869.23C1435.52 869.23 1439 872.711 1439 877.004C1439 881.292 1435.52 884.773 1431.23 884.773C1426.94 884.773 1423.46 881.292 1423.46 877.004Z" fill="#FFCB2E"/>
<path d="M1438.25 868.602C1439.25 867.76 1440.75 867.892 1441.59 868.898C1442.43 869.898 1442.31 871.399 1441.3 872.242C1440.29 873.084 1438.79 872.956 1437.95 871.951C1437.11 870.945 1437.24 869.444 1438.25 868.602Z" fill="#2E2B27"/>
<path d="M1442.18 876.979C1443.47 877.209 1444.33 878.439 1444.1 879.731C1443.88 881.022 1442.64 881.89 1441.35 881.66C1440.06 881.431 1439.19 880.2 1439.42 878.909C1439.65 877.617 1440.88 876.755 1442.18 876.979Z" fill="#2E2B27"/>
<path d="M1438.28 885.371C1438.94 886.51 1438.55 887.965 1437.41 888.618C1436.27 889.276 1434.82 888.883 1434.17 887.75C1433.51 886.612 1433.9 885.162 1435.04 884.504C1436.17 883.85 1437.63 884.238 1438.28 885.371Z" fill="#2E2B27"/>
<path d="M1429.35 887.786C1428.9 889.021 1427.54 889.654 1426.3 889.205C1425.07 888.756 1424.44 887.393 1424.89 886.163C1425.33 884.927 1426.7 884.294 1427.93 884.744C1429.16 885.188 1429.8 886.556 1429.35 887.786Z" fill="#2E2B27"/>
<path d="M1421.76 882.497C1420.52 882.941 1419.16 882.308 1418.71 881.073C1418.26 879.842 1418.9 878.479 1420.14 878.03C1421.37 877.581 1422.73 878.219 1423.18 879.449C1423.63 880.68 1422.99 882.048 1421.76 882.497Z" fill="#2E2B27"/>
<path d="M1420.93 873.278C1419.8 872.625 1419.41 871.17 1420.07 870.036C1420.72 868.898 1422.17 868.51 1423.31 869.164C1424.45 869.822 1424.83 871.272 1424.18 872.41C1423.53 873.549 1422.07 873.936 1420.93 873.278Z" fill="#2E2B27"/>
<path d="M1427.46 866.723C1427.24 865.432 1428.1 864.202 1429.39 863.972C1430.68 863.742 1431.91 864.605 1432.14 865.901C1432.37 867.193 1431.51 868.423 1430.21 868.653C1428.92 868.878 1427.69 868.015 1427.46 866.723Z" fill="#2E2B27"/>
<path d="M1214.37 910.212C1214.37 897.659 1224.55 887.481 1237.1 887.481C1249.66 887.481 1259.83 897.659 1259.83 910.212C1259.83 922.77 1249.66 932.948 1237.1 932.948C1224.55 932.948 1214.37 922.77 1214.37 910.212Z" fill="#CD9000"/>
<path d="M1200.83 842.192H1195.72V824.744H1200.83V842.192Z" fill="#DED9CB"/>
<path d="M1200.83 842.192H1198.27V824.744H1200.83V842.192Z" fill="#9DB397"/>
<path d="M1206.78 847.419H1213.15L1209.59 842.192H1203.22L1206.78 847.419Z" fill="#FF5E45"/>
<path d="M1240.71 893.621C1241.62 891.661 1243.95 890.813 1245.91 891.727C1247.87 892.641 1248.72 894.969 1247.8 896.929C1246.89 898.889 1244.56 899.736 1242.6 898.823C1240.64 897.909 1239.79 895.576 1240.71 893.621Z" fill="#2E2B27"/>
<path d="M1252.13 902.08C1254.21 901.519 1256.36 902.759 1256.92 904.847C1257.48 906.935 1256.24 909.084 1254.15 909.645C1252.07 910.202 1249.92 908.961 1249.36 906.873C1248.8 904.786 1250.04 902.642 1252.13 902.08Z" fill="#2E2B27"/>
<path d="M1252.99 916.262C1254.76 917.503 1255.19 919.943 1253.95 921.714C1252.71 923.485 1250.27 923.914 1248.5 922.674C1246.73 921.433 1246.3 918.993 1247.53 917.222C1248.78 915.451 1251.22 915.022 1252.99 916.262Z" fill="#2E2B27"/>
<path d="M1242.67 926.041C1242.86 928.195 1241.27 930.094 1239.11 930.283C1236.96 930.472 1235.06 928.879 1234.87 926.725C1234.68 924.57 1236.28 922.672 1238.43 922.483C1240.58 922.294 1242.48 923.886 1242.67 926.041Z" fill="#2E2B27"/>
<path d="M1228.55 924.423C1227.03 925.954 1224.55 925.954 1223.02 924.423C1221.49 922.896 1221.49 920.416 1223.02 918.889C1224.55 917.358 1227.03 917.358 1228.55 918.889C1230.08 920.416 1230.08 922.896 1228.55 924.423Z" fill="#2E2B27"/>
<path d="M1220.72 912.568C1218.56 912.379 1216.97 910.48 1217.16 908.326C1217.35 906.171 1219.25 904.579 1221.4 904.768C1223.55 904.956 1225.15 906.855 1224.96 909.01C1224.77 911.159 1222.87 912.751 1220.72 912.568Z" fill="#2E2B27"/>
<path d="M1224.76 898.946C1223.52 897.175 1223.95 894.735 1225.73 893.495C1227.5 892.254 1229.94 892.683 1231.18 894.454C1232.42 896.226 1231.98 898.666 1230.21 899.906C1228.44 901.147 1226 900.718 1224.76 898.946Z" fill="#2E2B27"/>
<path d="M1222.1 910.093C1222.1 901.67 1228.93 894.845 1237.35 894.845C1245.77 894.845 1252.59 901.67 1252.59 910.093C1252.59 918.511 1245.77 925.336 1237.35 925.336C1228.93 925.336 1222.1 918.511 1222.1 910.093Z" fill="#F2C028"/>
<path d="M1227.96 910.092C1227.96 904.911 1232.17 900.715 1237.35 900.715C1242.52 900.715 1246.72 904.911 1246.72 910.092C1246.72 915.268 1242.52 919.47 1237.35 919.47C1232.17 919.47 1227.96 915.268 1227.96 910.092Z" fill="#CD9000"/>
<path d="M1233.43 910.092C1233.43 907.927 1235.18 906.176 1237.35 906.176C1239.51 906.176 1241.26 907.927 1241.26 910.092C1241.26 912.251 1239.51 914.007 1237.35 914.007C1235.18 914.007 1233.43 912.251 1233.43 910.092Z" fill="#FFCB2E"/>
<path d="M1240.89 905.861C1241.39 905.437 1242.15 905.504 1242.57 906.009C1243 906.514 1242.93 907.27 1242.42 907.694C1241.92 908.117 1241.16 908.051 1240.74 907.546C1240.31 907.04 1240.38 906.285 1240.89 905.861Z" fill="#2E2B27"/>
<path d="M1242.86 910.083C1243.51 910.195 1243.95 910.818 1243.83 911.466C1243.72 912.119 1243.1 912.553 1242.45 912.436C1241.79 912.324 1241.36 911.701 1241.47 911.052C1241.59 910.399 1242.21 909.965 1242.86 910.083Z" fill="#2E2B27"/>
<path d="M1240.9 914.309C1241.23 914.881 1241.03 915.611 1240.46 915.943C1239.89 916.274 1239.16 916.08 1238.83 915.504C1238.5 914.932 1238.69 914.202 1239.27 913.87C1239.84 913.538 1240.57 913.737 1240.9 914.309Z" fill="#2E2B27"/>
<path d="M1236.4 915.526C1236.17 916.148 1235.49 916.47 1234.87 916.24C1234.24 916.016 1233.92 915.326 1234.15 914.709C1234.38 914.086 1235.07 913.764 1235.68 913.994C1236.31 914.219 1236.63 914.903 1236.4 915.526Z" fill="#2E2B27"/>
<path d="M1232.57 912.859C1231.96 913.084 1231.27 912.762 1231.04 912.144C1230.81 911.522 1231.13 910.838 1231.76 910.608C1232.38 910.383 1233.06 910.705 1233.29 911.323C1233.52 911.945 1233.2 912.634 1232.57 912.859Z" fill="#2E2B27"/>
<path d="M1232.16 908.215C1231.59 907.888 1231.39 907.153 1231.72 906.581C1232.06 906.01 1232.79 905.816 1233.36 906.142C1233.93 906.474 1234.13 907.209 1233.8 907.781C1233.46 908.353 1232.73 908.547 1232.16 908.215Z" fill="#2E2B27"/>
<path d="M1235.45 904.912C1235.34 904.263 1235.77 903.641 1236.42 903.528C1237.07 903.411 1237.7 903.85 1237.81 904.498C1237.93 905.146 1237.49 905.769 1236.84 905.887C1236.18 905.999 1235.57 905.565 1235.45 904.912Z" fill="#2E2B27"/>
<path opacity="0.3" d="M1308.5 547.863C1274.1 548.663 1273.83 591.196 1278 612.363L1276.46 613.615C1263.63 624.056 1255.25 638.977 1253 655.363V661.624C1253 664.803 1255.12 667.593 1258.18 668.451C1261.95 669.507 1265.83 667.296 1267.26 663.653C1274.75 644.604 1290.54 626.998 1302 629.863C1318 633.863 1349 650.863 1390.5 634.863C1423.7 622.063 1389 593.863 1367.5 581.363C1394.17 583.697 1438.2 574.163 1401 517.363C1354.5 446.363 1351.5 546.863 1308.5 547.863Z" fill="white"/>
</g>
<defs>
<linearGradient id="paint0_linear" x1="780.644" y1="887.171" x2="780.644" y2="-51.1128" gradientUnits="userSpaceOnUse">
<stop stop-color="#63B0C8"/>
<stop offset="1" stop-color="#B7EDFF"/>
</linearGradient>
<linearGradient id="paint1_linear" x1="208.768" y1="560.428" x2="208.768" y2="835.082" gradientUnits="userSpaceOnUse">
<stop stop-color="white" stop-opacity="0.8"/>
<stop offset="1" stop-color="white" stop-opacity="0"/>
</linearGradient>
<linearGradient id="paint2_linear" x1="1384.65" y1="560.428" x2="1384.65" y2="835.082" gradientUnits="userSpaceOnUse">
<stop stop-color="white" stop-opacity="0.8"/>
<stop offset="1" stop-color="white" stop-opacity="0"/>
</linearGradient>
<linearGradient id="paint3_linear" x1="560.989" y1="261.765" x2="560.989" y2="358.917" gradientUnits="userSpaceOnUse">
<stop stop-color="white"/>
<stop offset="1" stop-color="white" stop-opacity="0"/>
</linearGradient>
<linearGradient id="paint4_linear" x1="1520.44" y1="258.586" x2="1520.44" y2="442.591" gradientUnits="userSpaceOnUse">
<stop stop-color="white"/>
<stop offset="1" stop-color="white" stop-opacity="0"/>
</linearGradient>
<linearGradient id="paint5_linear" x1="60.4422" y1="263.119" x2="60.4422" y2="447.124" gradientUnits="userSpaceOnUse">
<stop stop-color="white"/>
<stop offset="1" stop-color="white" stop-opacity="0"/>
</linearGradient>
<linearGradient id="paint6_linear" x1="1219.96" y1="304.814" x2="1219.96" y2="438.178" gradientUnits="userSpaceOnUse">
<stop stop-color="white"/>
<stop offset="1" stop-color="white" stop-opacity="0"/>
</linearGradient>
<linearGradient id="paint7_linear" x1="211.833" y1="120.028" x2="211.833" y2="270.489" gradientUnits="userSpaceOnUse">
<stop stop-color="white"/>
<stop offset="1" stop-color="white" stop-opacity="0"/>
</linearGradient>
<linearGradient id="paint8_linear" x1="484.519" y1="384.863" x2="484.519" y2="532.322" gradientUnits="userSpaceOnUse">
<stop stop-color="white"/>
<stop offset="1" stop-color="white" stop-opacity="0"/>
</linearGradient>
<linearGradient id="paint9_linear" x1="821.421" y1="332.873" x2="821.421" y2="410.2" gradientUnits="userSpaceOnUse">
<stop stop-color="white"/>
<stop offset="1" stop-color="white" stop-opacity="0"/>
</linearGradient>
<linearGradient id="paint10_linear" x1="928.157" y1="444.542" x2="928.157" y2="506.489" gradientUnits="userSpaceOnUse">
<stop stop-color="white"/>
<stop offset="1" stop-color="white" stop-opacity="0"/>
</linearGradient>
<linearGradient id="paint11_linear" x1="1494.11" y1="136.04" x2="1494.11" y2="208.951" gradientUnits="userSpaceOnUse">
<stop stop-color="white"/>
<stop offset="1" stop-color="white" stop-opacity="0"/>
</linearGradient>
<linearGradient id="paint12_linear" x1="1109.22" y1="439.739" x2="1109.22" y2="512.65" gradientUnits="userSpaceOnUse">
<stop stop-color="white"/>
<stop offset="1" stop-color="white" stop-opacity="0"/>
</linearGradient>
<linearGradient id="paint13_linear" x1="659.438" y1="677.362" x2="661.806" y2="978.303" gradientUnits="userSpaceOnUse">
<stop offset="0.00627475" stop-color="#87BC61"/>
<stop offset="1" stop-color="#637353"/>
</linearGradient>
<linearGradient id="paint14_linear" x1="671.152" y1="757.115" x2="672.913" y2="996.151" gradientUnits="userSpaceOnUse">
<stop offset="0.00627475" stop-color="#87BC61"/>
<stop offset="1" stop-color="#637353"/>
</linearGradient>
<linearGradient id="paint15_linear" x1="671.152" y1="781.814" x2="672.913" y2="1020.85" gradientUnits="userSpaceOnUse">
<stop offset="0.00627475" stop-color="#87BC61"/>
<stop offset="1" stop-color="#637353"/>
</linearGradient>
<clipPath id="clip0">
<rect width="1677" height="1015" fill="white"/>
</clipPath>
</defs>
</svg>
