<svg width="1686" height="1077" viewBox="0 0 1686 1077" fill="none" xmlns="http://www.w3.org/2000/svg">
<mask id="mask0_1:99" style="mask-type:alpha" maskUnits="userSpaceOnUse" x="0" y="0" width="1686" height="1536">
<rect width="1686" height="1536" fill="#C4C4C4"/>
</mask>
<g mask="url(#mask0_1:99)">
<rect x="-2.00513" y="1" width="1690.01" height="1536" fill="url(#paint0_linear_1:99)"/>
<g style="mix-blend-mode:overlay" opacity="0.3">
<g style="mix-blend-mode:overlay" opacity="0.5">
<path d="M1688 81H-12.0288V85.4702H1688V81Z" fill="white"/>
</g>
<g style="mix-blend-mode:overlay" opacity="0.48">
<path d="M1688 96.1746H-12.0288V100.645H1688V96.1746Z" fill="white"/>
</g>
<g style="mix-blend-mode:overlay" opacity="0.47">
<path d="M1688 111.349H-12.0288V115.819H1688V111.349Z" fill="white"/>
</g>
<g style="mix-blend-mode:overlay" opacity="0.45">
<path d="M1688 126.537H-12.0288V131.007H1688V126.537Z" fill="white"/>
</g>
<g style="mix-blend-mode:overlay" opacity="0.44">
<path d="M1688 141.711H-12.0288V146.182H1688V141.711Z" fill="white"/>
</g>
<g style="mix-blend-mode:overlay" opacity="0.42">
<path d="M1688 156.886H-12.0288V161.356H1688V156.886Z" fill="white"/>
</g>
<g style="mix-blend-mode:overlay" opacity="0.4">
<path d="M1688 172.074H-12.0288V176.544H1688V172.074Z" fill="white"/>
</g>
<g style="mix-blend-mode:overlay" opacity="0.39">
<path d="M1688 187.248H-12.0288V191.718H1688V187.248Z" fill="white"/>
</g>
<g style="mix-blend-mode:overlay" opacity="0.37">
<path d="M1688 202.423H-12.0288V206.893H1688V202.423Z" fill="white"/>
</g>
<g style="mix-blend-mode:overlay" opacity="0.35">
<path d="M1688 217.597H-12.0288V222.067H1688V217.597Z" fill="white"/>
</g>
<g style="mix-blend-mode:overlay" opacity="0.34">
<path d="M1688 232.785H-12.0288V237.255H1688V232.785Z" fill="white"/>
</g>
<g style="mix-blend-mode:overlay" opacity="0.32">
<path d="M1688 247.96H-12.0288V252.43H1688V247.96Z" fill="white"/>
</g>
<g style="mix-blend-mode:overlay" opacity="0.31">
<path d="M1688 263.134H-12.0288V267.604H1688V263.134Z" fill="white"/>
</g>
<g style="mix-blend-mode:overlay" opacity="0.29">
<path d="M1688 278.322H-12.0288V282.792H1688V278.322Z" fill="white"/>
</g>
<g style="mix-blend-mode:overlay" opacity="0.27">
<path d="M1688 293.496H-12.0288V297.967H1688V293.496Z" fill="white"/>
</g>
<g style="mix-blend-mode:overlay" opacity="0.26">
<path d="M1688 308.671H-12.0288V313.141H1688V308.671Z" fill="white"/>
</g>
<g style="mix-blend-mode:overlay" opacity="0.24">
<path d="M1688 323.845H-12.0288V328.316H1688V323.845Z" fill="white"/>
</g>
<g style="mix-blend-mode:overlay" opacity="0.23">
<path d="M1688 339.033H-12.0288V343.504H1688V339.033Z" fill="white"/>
</g>
<g style="mix-blend-mode:overlay" opacity="0.21">
<path d="M1688 354.208H-12.0288V358.678H1688V354.208Z" fill="white"/>
</g>
<g style="mix-blend-mode:overlay" opacity="0.19">
<path d="M1688 369.382H-12.0288V373.852H1688V369.382Z" fill="white"/>
</g>
<g style="mix-blend-mode:overlay" opacity="0.18">
<path d="M1688 384.57H-12.0288V389.04H1688V384.57Z" fill="white"/>
</g>
<g style="mix-blend-mode:overlay" opacity="0.16">
<path d="M1688 399.745H-12.0288V404.215H1688V399.745Z" fill="white"/>
</g>
<g style="mix-blend-mode:overlay" opacity="0.15">
<path d="M1688 414.919H-12.0288V419.389H1688V414.919Z" fill="white"/>
</g>
<g style="mix-blend-mode:overlay" opacity="0.13">
<path d="M1688 430.094H-12.0288V434.564H1688V430.094Z" fill="white"/>
</g>
<g style="mix-blend-mode:overlay" opacity="0.11">
<path d="M1688 445.282H-12.0288V449.752H1688V445.282Z" fill="white"/>
</g>
<g style="mix-blend-mode:overlay" opacity="0.1">
<path d="M1688 460.456H-12.0288V464.926H1688V460.456Z" fill="white"/>
</g>
<g style="mix-blend-mode:overlay" opacity="0.08">
<path d="M1688 475.63H-12.0288V480.101H1688V475.63Z" fill="white"/>
</g>
<g style="mix-blend-mode:overlay" opacity="0.06">
<path d="M1688 490.818H-12.0288V495.289H1688V490.818Z" fill="white"/>
</g>
<g style="mix-blend-mode:overlay" opacity="0.05">
<path d="M1688 505.993H-12.0288V510.463H1688V505.993Z" fill="white"/>
</g>
<g style="mix-blend-mode:overlay" opacity="0.03">
<path d="M1688 521.167H-12.0288V525.638H1688V521.167Z" fill="white"/>
</g>
<g style="mix-blend-mode:overlay" opacity="0.02">
<path d="M1688 536.355H-12.0288V540.826H1688V536.355Z" fill="white"/>
</g>
</g>
<path d="M1688 996H-1.00293V1195H1688V996Z" fill="url(#paint1_linear_1:99)"/>
<g style="mix-blend-mode:overlay">
<path style="mix-blend-mode:overlay" d="M632.471 990.416H1116.57L1116.57 383H632.471L632.471 990.416Z" fill="url(#paint2_linear_1:99)"/>
<path style="mix-blend-mode:overlay" d="M898.147 989.652H1284.59L1284.59 588.753H898.147L898.147 989.652Z" fill="url(#paint3_linear_1:99)"/>
<path style="mix-blend-mode:overlay" d="M350.692 989.652H737.131L737.131 588.753H350.692L350.692 989.652Z" fill="url(#paint4_linear_1:99)"/>
<path style="mix-blend-mode:overlay" d="M439.592 993.512H570.495L570.495 386.096H439.592L439.592 993.512Z" fill="url(#paint5_linear_1:99)"/>
<path style="mix-blend-mode:overlay" d="M511.435 992.748H615.931V591.849H511.435L511.435 992.748Z" fill="url(#paint6_linear_1:99)"/>
<path style="mix-blend-mode:overlay" d="M363.398 992.748H467.895L467.895 591.849H363.398L363.398 992.748Z" fill="url(#paint7_linear_1:99)"/>
<path style="mix-blend-mode:overlay" d="M228.355 993.511H359.258L359.258 386.096H228.355L228.355 993.511Z" fill="url(#paint8_linear_1:99)"/>
<path style="mix-blend-mode:overlay" d="M300.198 992.748H404.694L404.694 591.848H300.198L300.198 992.748Z" fill="url(#paint9_linear_1:99)"/>
<path style="mix-blend-mode:overlay" d="M152.161 992.748H256.657L256.657 591.848H152.161L152.161 992.748Z" fill="url(#paint10_linear_1:99)"/>
<path style="mix-blend-mode:overlay" d="M44.1172 993.511H175.021L175.021 386.096H44.1172L44.1172 993.511Z" fill="url(#paint11_linear_1:99)"/>
<path style="mix-blend-mode:overlay" d="M115.96 992.747H220.456L220.456 591.848H115.96L115.96 992.747Z" fill="url(#paint12_linear_1:99)"/>
<path style="mix-blend-mode:overlay" d="M-32.0766 992.747H72.4197L72.4197 591.848H-32.0766L-32.0766 992.747Z" fill="url(#paint13_linear_1:99)"/>
<path style="mix-blend-mode:overlay" d="M1316.31 993.512H1447.21V386.096H1316.31V993.512Z" fill="url(#paint14_linear_1:99)"/>
<path style="mix-blend-mode:overlay" d="M1388.15 992.748H1492.65V591.849H1388.15V992.748Z" fill="url(#paint15_linear_1:99)"/>
<path style="mix-blend-mode:overlay" d="M1240.11 992.748H1344.61V591.849H1240.11V992.748Z" fill="url(#paint16_linear_1:99)"/>
<path style="mix-blend-mode:overlay" d="M1511.67 993.512H1642.57V386.096H1511.67V993.512Z" fill="url(#paint17_linear_1:99)"/>
<path style="mix-blend-mode:overlay" d="M1583.51 992.748H1688V591.849H1583.51V992.748Z" fill="url(#paint18_linear_1:99)"/>
<path style="mix-blend-mode:overlay" d="M1435.47 992.748H1539.97V591.849H1435.47V992.748Z" fill="url(#paint19_linear_1:99)"/>
</g>
<g style="mix-blend-mode:overlay">
<path style="mix-blend-mode:overlay" d="M632.471 990.416H1116.57L1116.57 383H632.471L632.471 990.416Z" fill="url(#paint20_linear_1:99)" fill-opacity="0.3"/>
<path style="mix-blend-mode:overlay" d="M898.147 989.652H1284.59L1284.59 588.753H898.147L898.147 989.652Z" fill="url(#paint21_linear_1:99)" fill-opacity="0.3"/>
<path style="mix-blend-mode:overlay" d="M350.692 989.652H737.131L737.131 588.753H350.692L350.692 989.652Z" fill="url(#paint22_linear_1:99)" fill-opacity="0.3"/>
<path style="mix-blend-mode:overlay" d="M439.592 993.512H570.495L570.495 386.096H439.592L439.592 993.512Z" fill="url(#paint23_linear_1:99)" fill-opacity="0.3"/>
<path style="mix-blend-mode:overlay" d="M511.435 992.748H615.931V591.849H511.435L511.435 992.748Z" fill="url(#paint24_linear_1:99)" fill-opacity="0.3"/>
<path style="mix-blend-mode:overlay" d="M363.398 992.748H467.895L467.895 591.849H363.398L363.398 992.748Z" fill="url(#paint25_linear_1:99)" fill-opacity="0.3"/>
<path style="mix-blend-mode:overlay" d="M228.355 993.511H359.258L359.258 386.096H228.355L228.355 993.511Z" fill="url(#paint26_linear_1:99)" fill-opacity="0.3"/>
<path style="mix-blend-mode:overlay" d="M300.198 992.748H404.694L404.694 591.848H300.198L300.198 992.748Z" fill="url(#paint27_linear_1:99)" fill-opacity="0.3"/>
<path style="mix-blend-mode:overlay" d="M152.161 992.748H256.657L256.657 591.848H152.161L152.161 992.748Z" fill="url(#paint28_linear_1:99)" fill-opacity="0.3"/>
<path style="mix-blend-mode:overlay" d="M44.1172 993.511H175.021L175.021 386.096H44.1172L44.1172 993.511Z" fill="url(#paint29_linear_1:99)" fill-opacity="0.3"/>
<path style="mix-blend-mode:overlay" d="M115.96 992.747H220.456L220.456 591.848H115.96L115.96 992.747Z" fill="url(#paint30_linear_1:99)" fill-opacity="0.3"/>
<path style="mix-blend-mode:overlay" d="M-32.0766 992.747H72.4197L72.4197 591.848H-32.0766L-32.0766 992.747Z" fill="url(#paint31_linear_1:99)" fill-opacity="0.3"/>
<path style="mix-blend-mode:overlay" d="M1316.31 993.512H1447.21V386.096H1316.31V993.512Z" fill="url(#paint32_linear_1:99)" fill-opacity="0.3"/>
<path style="mix-blend-mode:overlay" d="M1388.15 992.748H1492.65V591.849H1388.15V992.748Z" fill="url(#paint33_linear_1:99)" fill-opacity="0.3"/>
<path style="mix-blend-mode:overlay" d="M1240.11 992.748H1344.61V591.849H1240.11V992.748Z" fill="url(#paint34_linear_1:99)" fill-opacity="0.3"/>
<path style="mix-blend-mode:overlay" d="M1511.67 993.512H1642.57V386.096H1511.67V993.512Z" fill="url(#paint35_linear_1:99)" fill-opacity="0.3"/>
<path style="mix-blend-mode:overlay" d="M1583.51 992.748H1688V591.849H1583.51V992.748Z" fill="url(#paint36_linear_1:99)" fill-opacity="0.3"/>
<path style="mix-blend-mode:overlay" d="M1435.47 992.748H1539.97V591.849H1435.47V992.748Z" fill="url(#paint37_linear_1:99)" fill-opacity="0.3"/>
</g>
<path d="M755.556 993.237L683.013 968.188L603.451 923.588L556.428 949.417L387.639 816.081L329.96 862.156L52.389 538.939L-239.729 994.333L754.732 994.817L755.556 993.237Z" fill="#270048"/>
<path d="M-238.613 988.581L52.1618 538.939L329.527 861.94L387.733 816.177L556.364 949.84L603.656 923.985L684.239 968.63L755.558 993.705" stroke="#00F4FB" stroke-width="1.41" stroke-linecap="round" stroke-linejoin="round"/>
<path d="M-238.613 988.954L57.6293 573.408L335.811 871.913L393.376 829.641L560.192 953.185L606.633 929.283L685.812 970.542L755.558 993.705" stroke="#07E1FB" stroke-width="1.38" stroke-linecap="round" stroke-linejoin="round"/>
<path d="M-238.613 989.341L63.0746 608.989L342.051 882.236L398.976 843.526L563.998 956.598L609.588 934.734L687.363 972.495L755.558 993.706" stroke="#0ECEFC" stroke-width="1.36" stroke-linecap="round" stroke-linejoin="round"/>
<path d="M-238.613 989.715L68.561 643.458L348.312 892.229L404.617 856.989L567.824 959.943L612.564 940.033L688.935 974.407L755.558 993.706" stroke="#15BCFC" stroke-width="1.33" stroke-linecap="round" stroke-linejoin="round"/>
<path d="M-238.613 990.101L74.0185 679.038L354.579 902.53L410.243 870.873L571.632 963.355L615.542 945.483L690.486 976.359L755.558 993.705" stroke="#1CA9FC" stroke-width="1.3" stroke-linecap="round" stroke-linejoin="round"/>
<path d="M-239.729 990.454L78.7219 713.507L360.392 912.508L415.478 884.324L575.254 966.682L618.361 950.742L691.985 978.251L755.556 993.705" stroke="#2396FD" stroke-width="1.28" stroke-linecap="round" stroke-linejoin="round"/>
<path d="M-239.729 990.841L84.1897 749.088L366.677 922.81L421.122 898.209L579.082 970.094L621.338 956.193L693.558 980.204L755.557 993.705" stroke="#2A83FD" stroke-width="1.25" stroke-linecap="round" stroke-linejoin="round"/>
<path d="M-239.729 991.228L89.6704 784.669L372.925 933.132L426.729 912.115L582.891 973.549L624.296 961.666L695.11 982.179L755.557 993.706" stroke="#3171FD" stroke-width="1.22" stroke-linecap="round" stroke-linejoin="round"/>
<path d="M-239.729 992.7L95.1217 819.138L379.178 943.9L432.363 926.243L586.714 977.859L627.29 967.887L696.681 985.121L755.556 994.817" stroke="#385EFD" stroke-width="1.19" stroke-linecap="round" stroke-linejoin="round"/>
<path d="M-239.729 993.087L100.579 854.718L385.423 954.201L437.988 940.106L590.522 981.292L630.247 973.338L698.232 987.094L755.557 994.817" stroke="#3F4BFE" stroke-width="1.17" stroke-linecap="round" stroke-linejoin="round"/>
<path d="M-239.729 993.46L106.042 889.187L391.702 964.194L443.606 953.57L594.346 984.616L633.221 978.636L699.804 989.006L755.557 994.817" stroke="#4638FE" stroke-width="1.14" stroke-linecap="round" stroke-linejoin="round"/>
<path d="M-239.729 993.847L111.525 924.768L397.959 974.496L449.243 967.455L598.191 988.05L636.195 984.087L701.374 990.959L755.557 994.817" stroke="#4D26FE" stroke-width="1.11" stroke-linecap="round" stroke-linejoin="round"/>
<path d="M-240.844 994.197L116.263 959.236L403.827 984.474L454.528 980.905L601.824 991.355L639.04 989.346L702.866 992.851L755.556 994.817" stroke="#5413FF" stroke-width="1.09" stroke-linecap="round" stroke-linejoin="round"/>
<path d="M-240.844 995.497H755.556" stroke="#5B00FF" stroke-width="1.06" stroke-linecap="round" stroke-linejoin="round"/>
<path style="mix-blend-mode:overlay" opacity="0.82" d="M512.716 1149.5C667.446 995.136 667.446 744.864 512.716 590.5C357.985 436.136 107.117 436.136 -47.6137 590.5C-202.344 744.864 -202.344 995.136 -47.6137 1149.5C107.117 1303.86 357.985 1303.86 512.716 1149.5Z" fill="url(#paint38_radial_1:99)"/>
<path d="M754.79 994.903L826.919 969.966L906.028 925.566L952.783 951.279L1120.61 818.541L1177.96 864.409L1453.95 542.642L1744.38 995.993L755.589 996.476L754.79 994.903Z" fill="#270048"/>
<path d="M1742.95 989.806L1453.95 542.642L1178.23 863.864L1120.4 818.352L952.783 951.279L905.776 925.566L825.679 969.966L754.79 994.903" stroke="#00F4FB" stroke-width="1.41" stroke-linecap="round" stroke-linejoin="round"/>
<path d="M1743.09 990.247L1448.63 577.499L1172.09 873.993L1114.87 832.006L949.041 954.718L902.875 930.977L824.165 971.958L754.811 994.966" stroke="#07E1FB" stroke-width="1.38" stroke-linecap="round" stroke-linejoin="round"/>
<path d="M1743.24 990.708L1443.31 612.356L1165.95 884.165L1109.34 845.659L945.297 958.137L899.972 936.388L822.65 973.951L754.851 995.049" stroke="#0ECEFC" stroke-width="1.36" stroke-linecap="round" stroke-linejoin="round"/>
<path d="M1743.39 991.148L1437.97 647.213L1159.79 894.316L1103.83 859.312L941.556 961.577L897.05 941.799L821.137 975.943L754.894 995.112" stroke="#15BCFC" stroke-width="1.33" stroke-linecap="round" stroke-linejoin="round"/>
<path d="M1743.53 991.61L1432.65 682.07L1153.65 904.467L1098.3 872.966L937.813 964.995L894.149 947.21L819.623 977.936L754.915 995.196" stroke="#1CA9FC" stroke-width="1.3" stroke-linecap="round" stroke-linejoin="round"/>
<path d="M1743.68 992.05L1427.33 716.927L1147.51 914.618L1092.79 886.619L934.07 968.435L891.246 952.6L818.108 979.928L754.955 995.28" stroke="#2396FD" stroke-width="1.28" stroke-linecap="round" stroke-linejoin="round"/>
<path d="M1743.83 992.512L1421.99 751.784L1141.36 924.769L1087.27 900.273L930.33 971.853L888.347 958.011L816.596 981.921L754.979 995.364" stroke="#2A83FD" stroke-width="1.25" stroke-linecap="round" stroke-linejoin="round"/>
<path d="M1743.95 992.952L1416.67 786.62L1135.22 934.92L1081.73 913.926L926.586 975.293L885.424 963.422L815.081 983.913L755.019 995.427" stroke="#3171FD" stroke-width="1.22" stroke-linecap="round" stroke-linejoin="round"/>
<path d="M1744.1 993.414L1411.35 821.477L1129.08 945.071L1076.23 927.58L922.845 978.712L882.523 968.833L813.568 985.905L755.062 995.511" stroke="#385EFD" stroke-width="1.19" stroke-linecap="round" stroke-linejoin="round"/>
<path d="M1744.25 993.875L1406.03 856.334L1122.92 955.222L1070.7 941.212L919.082 982.151L879.622 974.244L812.055 987.919L755.083 995.595" stroke="#3F4BFE" stroke-width="1.17" stroke-linecap="round" stroke-linejoin="round"/>
<path d="M1744.4 994.316L1400.69 891.191L1116.78 965.373L1065.17 954.865L915.338 985.57L876.719 979.655L810.539 989.911L755.123 995.658" stroke="#4638FE" stroke-width="1.14" stroke-linecap="round" stroke-linejoin="round"/>
<path d="M1744.54 994.777L1395.38 926.049L1110.64 975.524L1059.66 968.519L911.598 989.01L873.799 985.067L809.028 991.904L755.167 995.742" stroke="#4D26FE" stroke-width="1.11" stroke-linecap="round" stroke-linejoin="round"/>
<path d="M1744.67 995.217L1390.06 960.906L1104.48 985.675L1054.13 982.172L907.855 992.428L870.897 990.456L807.513 993.896L755.187 995.826" stroke="#5413FF" stroke-width="1.09" stroke-linecap="round" stroke-linejoin="round"/>
<path d="M1744.82 995.679L755.23 995.888" stroke="#5B00FF" stroke-width="1.06" stroke-linecap="round" stroke-linejoin="round"/>
<path d="M703.77 998.264L690.673 1006.57H619.062L630.549 1000.22L629.227 998.22L614.136 1006.57H542.788L555.693 1000.25L554.491 998.198L537.382 1006.57H466.611L481.029 1000.27L479.924 998.176L460.82 1006.57H390.434L406.198 1000.29L405.188 998.088L384.089 1006.5H314.28L331.462 1000.25L330.525 998.044L307.407 1006.48H238.127L256.727 1000.22L255.838 998.022L230.749 1006.46H161.974L181.991 1000.2L181.174 998L154.091 1006.46H85.8201L107.207 1000.34L106.439 998.132L77.4094 1006.57H9.66678L32.544 1000.34L31.8231 998.132L0.727356 1006.59H-66.5587L-42.2396 1000.36L-42.9365 998.154L-76.0028 1006.64H-142.712L-116.951 1000.42L-117.624 998.22L-152.685 1006.7H-154.367V1009.52L-152.348 1009.04H-85.0383L-112.986 1016.22H-154.295V1018.42H-122.07L-153.31 1026.46H-154.223V1029.1L-152.973 1028.8H-80.6407L-113.707 1037.81H-154.295V1040.14H-122.238L-154.295 1048.95V1052.7H-80.6167L-119.955 1064.15H-154.295V1066.47H-127.861L-154.295 1074.15V1076.6L-119.546 1066.47H-37.3613L-78.9345 1079.46H-154.295V1081.78H-86.384L-133.676 1096.56H-154.295V1098.89H-141.15L-154.295 1102.99V1105.46L-133.268 1098.85H-43.0326L-93.2088 1115.68H-154.295V1118.01H-100.13L-154.295 1136.25V1139.78H-57.1386L-118.85 1162.34H-154.295V1164.67H-125.218L-154.295 1175.29V1177.8L-118.249 1164.58H-11.7686L-77.8291 1191.02H-154.295V1193.35H-83.5965L-154.295 1221.59V1224.13L-77.2283 1193.29H36.5331L-34.1412 1224.46H-154.295V1226.79H-39.3799L-123.8 1263.93H-154.295V1266.27H-129.087L-154.295 1277.28V1279.86L-123.223 1266.18H8.00865L-101.451 1319.95L-100.25 1322L13.4877 1266.27H145.176L48.0919 1320L49.3896 1321.98L150.006 1266.27H282.175L197.611 1320.02L199.053 1321.93L691.466 1008.9L705.188 1000.09L703.77 998.264ZM537.958 1008.9H609.762L596.809 1016.09H523.42L537.958 1008.9ZM208.137 1079.35L240.65 1066.36H324.758L295.272 1079.35H208.137ZM290.081 1081.67L256.438 1096.45H165.122L202.129 1081.67H290.081ZM187.879 1050.25H108.433L138.447 1040.12H215.538L187.879 1050.25ZM222.555 1040.12H300.15L274.774 1050.25H194.751L222.555 1040.12ZM188.431 1052.59H268.934L240.266 1064.04H157.047L188.431 1052.59ZM246.61 1064.04L275.302 1052.59H356.286L330.285 1064.04H246.61ZM281.142 1050.25L306.518 1040.12H384.618L361.597 1050.25H281.142ZM312.382 1037.78L334.947 1028.77H410.403L389.929 1037.78H312.382ZM306.014 1037.78H228.899L253.555 1028.77H328.506L306.014 1037.78ZM222.098 1037.78H145.464L172.235 1028.77H246.73L222.098 1037.78ZM138.159 1037.78H62.0537L90.8906 1028.77H164.881L138.159 1037.78ZM131.238 1040.12L101.128 1050.25H22.1147L54.5802 1040.12H131.238ZM101.584 1052.59H181.583L150.343 1064.04H67.5087L101.584 1052.59ZM150.727 1066.36H234.45L201.937 1079.35H115.138L150.727 1066.36ZM196.121 1081.67L159.138 1096.45H68.3498L108.769 1081.67H196.121ZM159.667 1098.78H251.392L212.943 1115.68H117.276L159.667 1098.78ZM207.728 1118.01L163.56 1137.46H62.7266L111.437 1118.01H207.728ZM164.136 1139.78H265.81L219.864 1162.34H112.855L164.136 1139.78ZM169.423 1137.46L213.616 1118.01H310.315L270.616 1137.46H169.423ZM218.83 1115.68L257.279 1098.78H349.437L315.001 1115.68H218.83ZM262.494 1096.45L296.137 1081.67H384.402L354.291 1096.45H262.494ZM301.352 1079.35L330.813 1066.36H415.522L389.088 1079.35H301.352ZM336.1 1064.04L362.125 1052.59H443.638L420.28 1064.04H336.1ZM367.34 1050.25L390.386 1040.12H468.966L448.444 1050.25H367.34ZM395.672 1037.78L416.146 1028.77H492.084L473.724 1037.78H395.672ZM421.433 1026.44L439.673 1018.4H513.327L496.962 1026.44H421.433ZM415.57 1026.44H340.714L360.828 1018.4H433.857L415.57 1026.44ZM334.274 1026.44H259.779L281.743 1018.4H354.291L334.274 1026.44ZM253.002 1026.44H179.155L202.994 1018.4H275.086L253.002 1026.44ZM171.706 1026.44H98.3882L124.029 1018.4H195.568L171.706 1026.44ZM90.41 1026.44H17.5969L45.1842 1018.4H116.195L90.41 1026.44ZM9.11406 1026.44H-63.1703L-33.7327 1018.4H36.7734L9.11406 1026.44ZM9.52258 1028.77H83.0326L54.1957 1037.78H-21.3569L9.52258 1028.77ZM46.626 1040.12L14.1605 1050.25H-64.2037L-29.3591 1040.12H46.626ZM14.569 1052.59H94.1348L60.1313 1064.04H-22.0298L14.569 1052.59ZM60.5158 1066.36H143.71L108.217 1079.35H22.0426L60.5158 1066.36ZM101.825 1081.67L61.5491 1096.45H-28.7343L15.1217 1081.67H101.825ZM61.8855 1098.78H153.202L110.908 1115.68H15.7225L61.8855 1098.78ZM104.997 1118.01L56.2864 1137.46H-43.8977L9.33035 1118.01H104.997ZM56.9352 1139.78H158.225L106.967 1162.34H0.43898L56.9352 1139.78ZM107.592 1164.67H215.178L161.445 1191.1H47.7074L107.592 1164.67ZM162.094 1193.31H276.816L220.633 1224.41H98.6285L162.094 1193.31ZM166.9 1190.97L220.633 1164.54H328.771L281.19 1190.97H166.9ZM225.391 1162.34L271.361 1139.78H373.612L332.904 1162.34H225.391ZM276.095 1137.46L315.746 1118.01H412.95L377.818 1137.46H276.095ZM320.384 1115.68L354.844 1098.78H447.555L417.036 1115.68H320.384ZM359.53 1096.45L389.641 1081.67H478.386L451.712 1096.45H359.53ZM394.399 1079.35L420.832 1066.36H506.117L482.688 1079.35H394.399ZM425.639 1064.04L448.972 1052.59H530.941L510.251 1064.04H425.639ZM453.731 1050.25L474.397 1040.12H553.458L535.147 1050.25H453.731ZM479.155 1037.78L497.514 1028.77H573.932L557.663 1037.78H479.155ZM502.273 1026.44L518.638 1018.4H592.628L578.21 1026.44H502.273ZM461.42 1008.82H532.551L518.133 1016.09H445.031L461.42 1008.82ZM384.714 1008.82H455.533L439.264 1016H366.739L384.714 1008.82ZM308.008 1008.82H378.346L360.395 1016H288.303L308.008 1008.82ZM231.302 1008.82H301.135L281.526 1016H209.915L231.302 1008.82ZM154.596 1008.82H223.925L202.633 1016H131.551L154.596 1008.82ZM77.89 1008.82H146.618L123.669 1016H53.1864L77.89 1008.82ZM1.20796 1008.82H69.4072L44.7276 1016.09H-25.1778L1.20796 1008.82ZM-75.4981 1008.82H-7.80356L-34.0932 1016.09H-103.542L-75.4981 1008.82ZM-143.841 1026.44L-112.602 1018.4H-42.6481L-72.0857 1026.44H-143.841ZM-71.6292 1028.77H1.18394L-29.7676 1037.78H-104.768L-71.6292 1028.77ZM-150.426 1050.25L-113.226 1040.12H-37.7699L-72.6144 1050.25H-150.426ZM-111.472 1064.04L-72.1338 1052.59H6.75906L-29.9118 1064.04H-111.472ZM-29.4072 1066.36H53.2104L14.7613 1079.35H-71.0284L-29.4072 1066.36ZM-125.891 1096.45L-78.5981 1081.67H7.74431L-36.1118 1096.45H-125.891ZM-35.7513 1098.78H55.0848L8.84973 1115.68H-85.8313L-35.7513 1098.78ZM-150.594 1137.46L-92.9204 1118.01H2.48158L-50.7705 1137.46H-150.594ZM-112.145 1162.34L-50.4341 1139.78H50.519L-5.92917 1162.34H-112.145ZM-71.5571 1190.97L-5.56871 1164.54H101.68L41.8199 1190.97H-71.5571ZM42.3245 1193.35H156.567L93.2456 1224.46H-28.2537L42.3245 1193.35ZM12.6706 1263.84H-117.936L-33.5405 1226.7H88.4875L12.6706 1263.84ZM149.213 1263.84H18.1496L93.8704 1226.7H216.427L149.213 1263.84ZM285.491 1264.02V1263.84H154.212L221.305 1226.7H344.271L285.491 1264.02ZM347.971 1224.37H225.415L281.598 1193.26H396.778L347.971 1224.37ZM400.575 1190.93H285.9L333.481 1164.49H442.004L400.575 1190.93ZM445.68 1162.29H337.686L378.538 1139.73H481.126L445.68 1162.29ZM484.826 1137.42H382.624L417.732 1117.97H515.393L484.826 1137.42ZM518.854 1115.77V1115.68H422.01L452.505 1098.78H545.696L518.854 1115.77ZM549.373 1096.45H456.686L483.36 1081.67H572.538L549.373 1096.45ZM576.263 1079.35H487.566L510.996 1066.36H596.617L576.263 1079.35ZM600.294 1064.04H515.201L535.892 1052.59H618.317L600.294 1064.04ZM621.922 1050.25H540.097L558.408 1040.12H637.926L621.922 1050.25ZM641.555 1037.78H562.614L578.883 1028.77H655.781L641.555 1037.78ZM659.385 1026.44H583.016L597.434 1018.4H671.93L659.385 1026.44ZM675.63 1016.13H601.808L614.736 1008.95H687.021L675.63 1016.13Z" fill="url(#paint39_linear_1:99)"/>
<path d="M1687.91 1212.04V1210.08L1664.21 1199.67H1687.91V1197.9H1660.29L1596.28 1169.69H1687.91V1167.53L1629.79 1144.3H1687.91V1142.52H1625.36L1575.29 1122.45H1656.15L1687.91 1134.06V1132.15L1661.46 1122.51H1688V1120.74H1656.54L1609.71 1103.61H1685.8L1687.91 1104.33V1101.85H1686.09L1642.33 1087.08H1687.91V1085.31H1637.08L1599.01 1072.47H1667.47L1687.91 1078.86V1076.94L1673.46 1072.42H1687.91V1070.65H1667.86L1631.98 1059.42H1687.99V1057.67H1626.25L1594.71 1047.8H1657.06L1687.91 1056.86V1055.01L1663.45 1047.86H1687.91V1046.11H1657.37L1627.53 1037.41H1686.98L1687.84 1037.64V1035.63H1687.26L1659.03 1027.94H1687.84V1026.16H1652.62L1627.55 1019.32H1682.48L1687.95 1020.71V1017.55H1682.77L1659.07 1011.44H1688V1009.77H1652.09L1630.86 1004.31H1681.91L1687.93 1005.77V1002.54H1682.17L1655.55 996.1L1655.06 997.773L1674.6 1002.49H1623.97L1598.88 996.05L1598.36 997.723L1616.81 1002.46H1565.76L1542.18 996.033L1541.63 997.707L1558.99 1002.44H1507.63L1485.55 996.017L1484.97 997.69L1501.25 1002.42H1449.45L1428.9 996L1428.28 997.673L1443.47 1002.42H1391.29L1372.25 996.017L1371.58 997.69L1385.69 1002.44H1333.13L1315.59 996.033L1314.87 997.707L1327.91 1002.46H1274.93L1258.92 996.067L1258.15 997.74L1270.1 1002.51H1216.78L1202.31 996.134L1201.47 997.723L1212.41 1002.51H1158.64L1145.66 996.151L1144.75 997.707L1154.54 1002.51H1100.48L1088.95 996.1L1087.95 997.623L1096.67 1002.44H1042.33L1032.43 996.134L1031.34 997.589L1041.75 1004.28L1415.32 1241.95L1416.41 1240.49L1352.25 1199.67H1452.53L1528.85 1241.98L1529.86 1240.48L1456.27 1199.67H1556.18L1642.4 1242L1643.32 1240.44L1560.27 1199.67H1659.84L1687.91 1212.04ZM1684.07 1167.92H1592.17L1538.57 1144.3H1624.99L1684.07 1167.92ZM1404.8 1085.31L1375.63 1072.47H1445.24L1477.31 1085.31H1404.8ZM1481.81 1087.08L1518.77 1101.85H1442.32L1408.81 1087.08H1481.81ZM1402.74 1027.92H1461.25L1484.09 1035.62H1423.81L1402.74 1027.92ZM1447.21 1046.09H1384.1L1362.44 1037.39H1423.52L1447.21 1046.09ZM1418.6 1035.62H1357.92L1338.74 1027.92H1397.61L1418.6 1035.62ZM1353.09 1035.62H1292.05L1274.58 1027.92H1333.84L1353.09 1035.62ZM1357.52 1037.39L1379.27 1046.09H1315.8L1296.08 1037.39H1357.52ZM1383.7 1047.85L1408.35 1057.72H1342.19L1319.82 1047.85H1383.7ZM1412.87 1059.47L1440.84 1070.7H1371.56L1346.03 1059.47H1412.87ZM1417.71 1059.47H1483.93L1514.59 1070.7H1445.68L1417.71 1059.47ZM1413.28 1057.72L1388.63 1047.85H1452.15L1479.1 1057.72H1413.28ZM1428.74 1037.39H1489.34L1515.14 1046.09H1452.42L1428.74 1037.39ZM1467.03 1027.92H1525.13L1549.77 1035.62H1489.69L1467.03 1027.92ZM1461.77 1026.15L1441.46 1019.31H1497.36L1519.24 1026.15H1461.77ZM1456.18 1026.15H1397.91L1379.2 1019.31H1435.72L1456.18 1026.15ZM1392.87 1026.15H1334.24L1317.12 1019.31H1373.98L1392.87 1026.15ZM1329.59 1026.15H1270.55L1255.04 1019.31H1312.29L1329.59 1026.15ZM1266.28 1026.15H1206.88L1192.88 1019.31H1250.5L1266.28 1026.15ZM1270.3 1027.92L1287.78 1035.62H1226.17L1210.49 1027.92H1270.3ZM1291.79 1037.39L1311.52 1046.09H1247.58L1229.86 1037.39H1291.79ZM1315.49 1047.85L1337.85 1057.72H1271.3L1251.24 1047.85H1315.49ZM1341.88 1059.47L1367.4 1070.7H1297.63L1274.78 1059.47H1341.88ZM1371.34 1072.47L1400.51 1085.31H1327.58L1301.46 1072.47H1371.34ZM1404.38 1087.08L1437.91 1101.85H1361.06L1330.97 1087.08H1404.38ZM1441.92 1103.61L1480.77 1120.74H1399.53L1364.67 1103.61H1441.92ZM1484.8 1122.51L1530.2 1142.59H1443.91L1403.14 1122.51H1484.8ZM1446.31 1103.61H1523.16L1565.99 1120.74H1485.2L1446.31 1103.61ZM1486.61 1087.08H1559.36L1599.74 1101.85H1523.6L1486.61 1087.08ZM1482.21 1085.31L1450.11 1072.47H1519.39L1554.43 1085.31H1482.21ZM1489.05 1059.47H1554.89L1588.16 1070.7H1519.72L1489.05 1059.47ZM1484.2 1057.72L1457.25 1047.85H1520.37L1549.55 1057.72H1484.2ZM1494.94 1037.39H1555.25L1583.08 1046.09H1520.74L1494.94 1037.39ZM1530.93 1027.92H1588.64L1615.07 1035.62H1555.56L1530.93 1027.92ZM1525.26 1026.15L1503.38 1019.31H1559.1L1582.58 1026.15H1525.26ZM1538.46 1011.43H1591.96L1614.29 1017.53H1559.36L1538.46 1011.43ZM1553.05 1017.53H1497.71L1478.2 1011.43H1532.01L1553.05 1017.53ZM1491.75 1017.53H1436.03L1417.94 1011.43H1472.22L1491.75 1017.53ZM1430.47 1017.53H1374.35L1357.68 1011.43H1412.38L1430.47 1017.53ZM1369.17 1017.53H1312.65L1297.39 1011.43H1352.43L1369.17 1017.53ZM1307.89 1017.53H1251.01L1237.19 1011.43H1292.59L1307.89 1017.53ZM1246.59 1017.53H1189.34L1176.93 1011.43H1232.72L1246.59 1017.53ZM1185.3 1017.53H1127.68L1116.74 1011.43H1172.82L1185.3 1017.53ZM1188.94 1019.31L1202.87 1026.15H1143.23L1130.89 1019.31H1188.94ZM1206.48 1027.92L1222.16 1035.62H1160.32L1146.42 1027.92H1206.48ZM1225.7 1037.39L1243.4 1046.09H1179.21L1163.51 1037.39H1225.7ZM1247.01 1047.85L1267.07 1057.72H1200.17L1182.4 1047.85H1247.01ZM1270.72 1059.47L1293.56 1070.7H1223.6L1203.36 1059.47H1270.72ZM1297.15 1072.47L1323.28 1085.31H1249.95L1226.79 1072.47H1297.15ZM1326.91 1087.08L1356.99 1101.85H1279.8L1253.14 1087.08H1326.91ZM1360.62 1103.61L1395.5 1120.74H1313.87L1282.99 1103.61H1360.62ZM1399.11 1122.51L1439.86 1142.59H1353.18L1317.06 1122.51H1399.11ZM1443.47 1144.26L1491.58 1167.89H1399L1356.37 1144.26H1443.47ZM1447.55 1144.26H1534.19L1587.8 1167.89H1495.54L1447.55 1144.26ZM1620.58 1142.49H1534.63L1489.21 1122.41H1570.46L1620.58 1142.49ZM1651.38 1120.74H1570.86L1528.03 1103.61H1604.5L1651.38 1120.74ZM1680.55 1101.85H1604.94L1564.53 1087.08H1636.79L1680.55 1101.85ZM1631.48 1085.31H1559.65L1524.55 1072.47H1593.41L1631.48 1085.31ZM1661.8 1070.7H1593.76L1560.47 1059.47H1625.92L1661.8 1070.7ZM1620.25 1057.72H1555.22L1526.04 1047.85H1588.78L1620.25 1057.72ZM1650.99 1046.09H1589L1561.18 1037.39H1621.09L1650.99 1046.09ZM1680.57 1035.62H1621.46L1595.02 1027.92H1652.34L1680.57 1035.62ZM1645.92 1026.15H1588.95L1565.46 1019.31H1620.78L1645.92 1026.15ZM1675.64 1017.53H1621.13L1598.79 1011.43H1651.89L1675.64 1017.53ZM1623.79 1004.15L1644.99 1009.6H1592.17L1572.23 1004.15H1623.79ZM1565.59 1004.15L1585.54 1009.6H1532.39L1513.77 1004.21L1565.59 1004.15ZM1507.39 1004.15L1526.08 1009.6H1472.53L1455.12 1004.15H1507.39ZM1449.21 1004.15L1466.62 1009.6H1412.69L1396.54 1004.15H1449.21ZM1391.01 1004.15L1407.17 1009.6H1352.83L1337.96 1004.15H1391.01ZM1332.82 1004.15L1347.71 1009.6H1293.01L1279.39 1004.15H1332.82ZM1274.62 1004.15L1288.24 1009.6H1233.16L1220.81 1004.15H1274.62ZM1216.42 1004.15L1228.78 1009.6H1173.32L1162.23 1004.15H1216.42ZM1158.22 1004.15L1169.31 1009.6H1113.5L1103.67 1004.15H1158.22ZM1053.78 1009.64L1045.2 1004.21H1099.89L1109.72 1009.67H1053.71L1053.78 1009.64ZM1056.52 1011.31H1113.04L1123.98 1017.41H1066.04L1056.52 1011.31ZM1068.88 1019.19H1127.22L1139.57 1026.03H1079.56L1068.88 1019.19ZM1082.43 1027.8H1142.76L1156.65 1035.5H1094.42L1082.43 1027.8ZM1097.31 1037.27H1159.84L1175.54 1045.97H1110.83L1097.31 1037.27ZM1113.71 1047.73H1178.66L1196.44 1057.6H1129.18L1113.71 1047.73ZM1131.95 1059.36H1199.63L1219.86 1070.58H1149.58L1131.95 1059.36ZM1172.72 1085.29L1152.37 1072.36H1223.06L1246.21 1085.19H1172.72V1085.29ZM1175.32 1086.96H1249.4L1276.06 1101.73H1198.53L1175.32 1086.96ZM1228.2 1120.62L1201.29 1103.49H1279.21L1310.21 1120.62H1228.2ZM1230.97 1122.4H1313.31L1349.41 1142.47H1262.46L1230.97 1122.4ZM1265.21 1144.15H1352.6L1395.26 1167.92H1302.28L1265.21 1144.15ZM1349.66 1197.68V1197.82L1305.12 1169.47H1398.42L1449.32 1197.68H1349.66ZM1453.06 1197.68L1402.19 1169.69H1495.18L1552.63 1197.9L1453.06 1197.68ZM1556.66 1197.68L1499.19 1169.69H1591.81L1655.82 1197.9L1556.66 1197.68Z" fill="url(#paint40_linear_1:99)"/>
<g style="mix-blend-mode:overlay">
<g style="mix-blend-mode:color-dodge">
<path d="M343.608 146.949C343.608 147.338 343.492 147.718 343.275 148.041C343.057 148.364 342.749 148.616 342.388 148.764C342.028 148.912 341.631 148.949 341.249 148.872C340.867 148.794 340.517 148.605 340.242 148.329C339.968 148.052 339.782 147.701 339.709 147.319C339.635 146.937 339.677 146.541 339.829 146.183C339.981 145.825 340.237 145.52 340.563 145.307C340.889 145.094 341.272 144.982 341.661 144.986C341.919 144.986 342.174 145.037 342.411 145.136C342.649 145.235 342.864 145.38 343.045 145.562C343.226 145.745 343.369 145.961 343.465 146.199C343.562 146.437 343.61 146.692 343.608 146.949Z" fill="white"/>
</g>
<g style="mix-blend-mode:color-dodge">
<path d="M1297.91 363.014C1297.91 363.402 1297.8 363.782 1297.58 364.104C1297.36 364.427 1297.06 364.679 1296.7 364.827C1296.34 364.976 1295.94 365.014 1295.56 364.939C1295.18 364.863 1294.83 364.676 1294.55 364.402C1294.28 364.127 1294.09 363.778 1294.02 363.397C1293.94 363.016 1293.98 362.622 1294.13 362.263C1294.28 361.905 1294.53 361.598 1294.85 361.382C1295.18 361.167 1295.56 361.052 1295.95 361.052C1296.47 361.052 1296.97 361.258 1297.34 361.626C1297.71 361.995 1297.91 362.494 1297.91 363.014Z" fill="white"/>
</g>
<g style="mix-blend-mode:color-dodge">
<path d="M1188.66 345.332C1188.66 345.721 1188.55 346.1 1188.33 346.423C1188.11 346.745 1187.81 346.997 1187.45 347.145C1187.09 347.294 1186.69 347.333 1186.31 347.257C1185.93 347.181 1185.58 346.994 1185.3 346.72C1185.03 346.446 1184.84 346.096 1184.77 345.715C1184.69 345.335 1184.73 344.94 1184.88 344.581C1185.03 344.223 1185.28 343.916 1185.6 343.701C1185.92 343.485 1186.31 343.37 1186.69 343.37C1187.22 343.37 1187.72 343.577 1188.09 343.945C1188.45 344.313 1188.66 344.812 1188.66 345.332Z" fill="white"/>
</g>
<g style="mix-blend-mode:color-dodge">
<path d="M235.904 338.777C235.981 339.185 235.924 339.608 235.742 339.982C235.56 340.356 235.263 340.662 234.893 340.855C234.524 341.048 234.103 341.117 233.691 341.053C233.279 340.989 232.899 340.794 232.606 340.498C232.313 340.202 232.123 339.82 232.065 339.409C232.006 338.997 232.081 338.577 232.279 338.211C232.478 337.846 232.788 337.553 233.166 337.377C233.543 337.2 233.968 337.149 234.376 337.232C234.756 337.308 235.104 337.496 235.377 337.771C235.649 338.047 235.832 338.397 235.904 338.777Z" fill="white"/>
</g>
<g style="mix-blend-mode:color-dodge">
<path d="M465.75 534.571C465.831 534.98 465.779 535.404 465.601 535.78C465.422 536.157 465.127 536.467 464.759 536.663C464.391 536.86 463.969 536.933 463.556 536.872C463.143 536.811 462.76 536.619 462.465 536.324C462.17 536.029 461.977 535.648 461.916 535.236C461.855 534.824 461.928 534.403 462.125 534.035C462.322 533.668 462.632 533.374 463.01 533.196C463.387 533.018 463.812 532.966 464.222 533.047C464.598 533.125 464.943 533.311 465.214 533.581C465.486 533.852 465.672 534.196 465.75 534.571Z" fill="white"/>
</g>
<g style="mix-blend-mode:color-dodge">
<path d="M725.603 132.941C725.603 133.325 725.489 133.701 725.275 134.02C725.061 134.339 724.757 134.588 724.401 134.735C724.046 134.882 723.655 134.921 723.277 134.846C722.9 134.771 722.553 134.586 722.281 134.314C722.009 134.043 721.823 133.697 721.748 133.32C721.673 132.944 721.712 132.553 721.859 132.198C722.006 131.844 722.256 131.541 722.576 131.327C722.896 131.114 723.272 131 723.657 131C723.912 131 724.165 131.05 724.401 131.148C724.638 131.245 724.852 131.388 725.033 131.569C725.214 131.749 725.357 131.963 725.455 132.198C725.552 132.434 725.603 132.686 725.603 132.941Z" fill="white"/>
</g>
<g style="mix-blend-mode:color-dodge">
<path d="M914.998 170.059C914.998 170.448 914.882 170.828 914.665 171.151C914.448 171.475 914.14 171.726 913.779 171.874C913.419 172.022 913.022 172.059 912.64 171.982C912.258 171.905 911.907 171.716 911.633 171.439C911.359 171.163 911.173 170.811 911.1 170.429C911.026 170.047 911.068 169.652 911.22 169.294C911.372 168.935 911.628 168.63 911.954 168.417C912.28 168.204 912.662 168.093 913.052 168.097C913.31 168.097 913.564 168.148 913.802 168.247C914.039 168.345 914.255 168.49 914.436 168.673C914.617 168.855 914.76 169.072 914.856 169.31C914.953 169.548 915.001 169.802 914.998 170.059Z" fill="white"/>
</g>
<g style="mix-blend-mode:color-dodge">
<path d="M1194.56 267.257C1194.57 267.646 1194.45 268.027 1194.24 268.353C1194.03 268.678 1193.72 268.933 1193.36 269.085C1193 269.236 1192.61 269.278 1192.22 269.205C1191.84 269.132 1191.49 268.946 1191.21 268.673C1190.93 268.399 1190.74 268.05 1190.67 267.668C1190.59 267.287 1190.63 266.891 1190.78 266.532C1190.92 266.172 1191.18 265.864 1191.5 265.648C1191.82 265.431 1192.2 265.315 1192.59 265.315C1193.11 265.315 1193.61 265.519 1193.98 265.883C1194.35 266.246 1194.56 266.74 1194.56 267.257Z" fill="white"/>
</g>
<g style="mix-blend-mode:color-dodge">
<path d="M160.07 312.181C160.074 312.571 159.962 312.953 159.748 313.279C159.533 313.605 159.226 313.859 158.866 314.011C158.506 314.162 158.108 314.202 157.725 314.127C157.341 314.052 156.989 313.865 156.713 313.589C156.436 313.313 156.248 312.962 156.173 312.579C156.098 312.197 156.139 311.8 156.29 311.441C156.442 311.082 156.697 310.775 157.024 310.561C157.35 310.347 157.733 310.235 158.124 310.239C158.639 310.245 159.131 310.451 159.494 310.814C159.858 311.177 160.065 311.668 160.07 312.181Z" fill="white"/>
</g>
<g style="mix-blend-mode:color-dodge">
<path d="M518.105 491.88C518.109 492.269 517.998 492.65 517.784 492.976C517.57 493.301 517.265 493.556 516.906 493.708C516.547 493.859 516.15 493.901 515.768 493.828C515.385 493.755 515.032 493.569 514.755 493.296C514.478 493.022 514.288 492.673 514.211 492.291C514.133 491.91 514.171 491.515 514.319 491.155C514.467 490.795 514.719 490.487 515.043 490.271C515.367 490.054 515.748 489.938 516.138 489.938C516.656 489.938 517.154 490.142 517.522 490.506C517.89 490.869 518.1 491.363 518.105 491.88Z" fill="white"/>
</g>
<g style="mix-blend-mode:color-dodge">
<path d="M120.437 401.592C120.673 401.991 120.77 402.457 120.712 402.917C120.654 403.377 120.444 403.804 120.116 404.132C119.787 404.46 119.359 404.669 118.898 404.727C118.437 404.785 117.97 404.688 117.57 404.452C117.333 404.053 117.236 403.587 117.294 403.127C117.352 402.668 117.562 402.24 117.891 401.912C118.219 401.585 118.648 401.375 119.109 401.317C119.57 401.259 120.037 401.356 120.437 401.592Z" fill="white"/>
</g>
<g style="mix-blend-mode:color-dodge">
<path d="M196.857 149.162C196.857 149.868 196.647 150.558 196.254 151.145C195.861 151.732 195.302 152.189 194.648 152.46C193.994 152.73 193.275 152.8 192.581 152.663C191.886 152.525 191.249 152.185 190.748 151.686C190.248 151.187 189.907 150.55 189.769 149.858C189.631 149.166 189.702 148.448 189.973 147.795C190.244 147.143 190.702 146.586 191.291 146.193C191.879 145.801 192.571 145.592 193.279 145.592C194.228 145.592 195.138 145.968 195.809 146.637C196.48 147.307 196.857 148.215 196.857 149.162Z" fill="white"/>
</g>
<g style="mix-blend-mode:color-dodge">
<path d="M357.42 285.022C357.42 285.728 357.21 286.418 356.817 287.005C356.423 287.592 355.865 288.05 355.211 288.32C354.557 288.59 353.837 288.661 353.143 288.523C352.449 288.385 351.812 288.045 351.311 287.546C350.811 287.047 350.47 286.411 350.332 285.718C350.194 285.026 350.265 284.308 350.536 283.656C350.806 283.004 351.265 282.446 351.853 282.054C352.442 281.662 353.134 281.452 353.841 281.452C354.789 281.458 355.696 281.835 356.366 282.504C357.035 283.172 357.414 284.077 357.42 285.022Z" fill="white"/>
</g>
<g style="mix-blend-mode:color-dodge">
<path d="M589.86 365.957C589.86 366.663 589.65 367.354 589.257 367.941C588.863 368.528 588.305 368.985 587.651 369.255C586.997 369.526 586.277 369.596 585.583 369.459C584.889 369.321 584.252 368.981 583.751 368.482C583.251 367.982 582.91 367.346 582.772 366.654C582.634 365.961 582.705 365.244 582.975 364.591C583.246 363.939 583.705 363.382 584.293 362.989C584.882 362.597 585.574 362.388 586.281 362.388C587.23 362.388 588.141 362.764 588.812 363.433C589.483 364.103 589.86 365.011 589.86 365.957Z" fill="white"/>
</g>
<g style="mix-blend-mode:color-dodge">
<path d="M455.496 374.788C455.496 375.494 455.286 376.184 454.893 376.771C454.5 377.358 453.941 377.815 453.287 378.086C452.633 378.356 451.914 378.426 451.22 378.289C450.526 378.151 449.888 377.811 449.388 377.312C448.887 376.813 448.546 376.176 448.408 375.484C448.27 374.792 448.341 374.074 448.612 373.421C448.883 372.769 449.341 372.212 449.93 371.819C450.518 371.427 451.21 371.218 451.918 371.218C452.867 371.218 453.777 371.594 454.448 372.263C455.119 372.933 455.496 373.841 455.496 374.788Z" fill="white"/>
</g>
<g style="mix-blend-mode:color-dodge">
<path d="M851.784 231.6C851.784 232.306 851.574 232.996 851.181 233.583C850.788 234.17 850.229 234.628 849.575 234.898C848.921 235.168 848.202 235.239 847.508 235.101C846.813 234.963 846.176 234.623 845.675 234.124C845.175 233.625 844.834 232.989 844.696 232.296C844.558 231.604 844.629 230.886 844.9 230.234C845.171 229.582 845.629 229.024 846.218 228.632C846.806 228.24 847.498 228.03 848.206 228.03C849.153 228.036 850.06 228.414 850.73 229.082C851.4 229.75 851.778 230.655 851.784 231.6Z" fill="white"/>
</g>
<g style="mix-blend-mode:color-dodge">
<path d="M1173.03 557.43C1173.03 558.136 1172.82 558.826 1172.43 559.413C1172.03 560 1171.48 560.458 1170.82 560.728C1170.17 560.998 1169.45 561.069 1168.75 560.931C1168.06 560.794 1167.42 560.454 1166.92 559.954C1166.42 559.455 1166.08 558.819 1165.94 558.127C1165.8 557.434 1165.88 556.716 1166.15 556.064C1166.42 555.412 1166.88 554.854 1167.46 554.462C1168.05 554.07 1168.74 553.86 1169.45 553.86C1169.92 553.86 1170.39 553.953 1170.82 554.132C1171.26 554.311 1171.65 554.574 1171.98 554.906C1172.31 555.237 1172.58 555.631 1172.76 556.064C1172.94 556.497 1173.03 556.961 1173.03 557.43Z" fill="white"/>
</g>
<g style="mix-blend-mode:color-dodge">
<path d="M275.264 480.106C275.264 480.812 275.054 481.502 274.661 482.089C274.267 482.676 273.709 483.134 273.055 483.404C272.401 483.674 271.681 483.745 270.987 483.607C270.293 483.469 269.656 483.129 269.155 482.63C268.655 482.131 268.314 481.495 268.176 480.802C268.038 480.11 268.109 479.392 268.38 478.74C268.65 478.088 269.109 477.53 269.697 477.138C270.286 476.746 270.978 476.536 271.685 476.536C272.633 476.542 273.54 476.919 274.21 477.588C274.879 478.256 275.258 479.161 275.264 480.106Z" fill="white"/>
</g>
<g style="mix-blend-mode:color-dodge">
<path d="M1369.39 440.442C1369.39 441.148 1369.18 441.838 1368.79 442.425C1368.4 443.012 1367.84 443.47 1367.19 443.74C1366.53 444.01 1365.81 444.081 1365.12 443.943C1364.42 443.805 1363.79 443.465 1363.29 442.966C1362.79 442.467 1362.45 441.831 1362.31 441.138C1362.17 440.446 1362.24 439.728 1362.51 439.076C1362.78 438.424 1363.24 437.866 1363.83 437.474C1364.42 437.082 1365.11 436.872 1365.82 436.872C1366.29 436.869 1366.75 436.96 1367.19 437.138C1367.62 437.317 1368.02 437.579 1368.35 437.912C1368.69 438.244 1368.95 438.638 1369.13 439.073C1369.31 439.507 1369.4 439.972 1369.39 440.442Z" fill="white"/>
</g>
<g style="mix-blend-mode:color-dodge">
<path d="M1378.25 290.22C1378.25 290.927 1378.04 291.618 1377.64 292.206C1377.25 292.793 1376.69 293.251 1376.03 293.52C1375.38 293.79 1374.66 293.859 1373.96 293.72C1373.27 293.58 1372.63 293.238 1372.13 292.737C1371.63 292.236 1371.29 291.598 1371.16 290.904C1371.02 290.21 1371.09 289.492 1371.37 288.84C1371.64 288.188 1372.1 287.632 1372.69 287.242C1373.29 286.852 1373.98 286.646 1374.69 286.65C1375.16 286.65 1375.62 286.743 1376.05 286.923C1376.49 287.102 1376.88 287.366 1377.21 287.697C1377.54 288.029 1377.8 288.423 1377.98 288.856C1378.16 289.289 1378.25 289.752 1378.25 290.22Z" fill="white"/>
</g>
<g style="mix-blend-mode:color-dodge">
<path d="M670.755 176.509C670.759 177.216 670.553 177.908 670.162 178.498C669.771 179.088 669.214 179.548 668.56 179.822C667.907 180.095 667.187 180.169 666.491 180.033C665.796 179.898 665.156 179.56 664.654 179.061C664.151 178.563 663.808 177.927 663.669 177.234C663.529 176.541 663.599 175.822 663.869 175.169C664.139 174.515 664.598 173.956 665.186 173.563C665.775 173.17 666.468 172.96 667.177 172.96C667.645 172.957 668.11 173.047 668.544 173.224C668.978 173.401 669.373 173.662 669.706 173.992C670.038 174.322 670.302 174.714 670.482 175.146C670.662 175.578 670.755 176.041 670.755 176.509Z" fill="white"/>
</g>
<g style="mix-blend-mode:color-dodge">
<path d="M1057 490.585C1057 491.291 1056.79 491.982 1056.39 492.569C1056 493.156 1055.44 493.613 1054.79 493.883C1054.13 494.154 1053.42 494.224 1052.72 494.087C1052.03 493.949 1051.39 493.609 1050.89 493.11C1050.39 492.61 1050.05 491.974 1049.91 491.282C1049.77 490.589 1049.84 489.872 1050.11 489.219C1050.38 488.567 1050.84 488.01 1051.43 487.617C1052.02 487.225 1052.71 487.016 1053.42 487.016C1054.37 487.016 1055.28 487.392 1055.95 488.061C1056.62 488.731 1057 489.639 1057 490.585Z" fill="white"/>
</g>
<g style="mix-blend-mode:color-dodge">
<path d="M1494.28 134.695C1494.28 135.402 1494.08 136.095 1493.69 136.684C1493.3 137.274 1492.74 137.735 1492.08 138.008C1491.43 138.282 1490.71 138.355 1490.02 138.22C1489.32 138.085 1488.68 137.746 1488.18 137.248C1487.68 136.749 1487.33 136.113 1487.19 135.42C1487.05 134.727 1487.12 134.009 1487.39 133.355C1487.66 132.702 1488.12 132.143 1488.71 131.75C1489.3 131.356 1489.99 131.146 1490.7 131.146C1491.65 131.146 1492.55 131.52 1493.22 132.185C1493.89 132.85 1494.27 133.752 1494.28 134.695Z" fill="white"/>
</g>
<g style="mix-blend-mode:color-dodge">
<path d="M1528.85 377.189C1528.85 377.895 1528.64 378.588 1528.25 379.177C1527.86 379.767 1527.3 380.228 1526.65 380.501C1526 380.775 1525.28 380.849 1524.58 380.713C1523.89 380.578 1523.25 380.239 1522.74 379.741C1522.24 379.243 1521.9 378.607 1521.76 377.914C1521.62 377.221 1521.69 376.502 1521.96 375.848C1522.23 375.195 1522.69 374.636 1523.28 374.243C1523.87 373.85 1524.56 373.64 1525.27 373.64C1525.74 373.637 1526.2 373.727 1526.63 373.904C1527.07 374.081 1527.46 374.342 1527.8 374.672C1528.13 375.002 1528.39 375.394 1528.57 375.826C1528.75 376.258 1528.85 376.721 1528.85 377.189Z" fill="white"/>
</g>
<g style="mix-blend-mode:color-dodge">
<path d="M1314.11 173.002C1314.11 173.708 1313.9 174.399 1313.51 174.986C1313.11 175.573 1312.55 176.03 1311.9 176.3C1311.25 176.571 1310.53 176.641 1309.83 176.504C1309.14 176.366 1308.5 176.026 1308 175.527C1307.5 175.027 1307.16 174.391 1307.02 173.699C1306.88 173.006 1306.95 172.289 1307.23 171.636C1307.5 170.984 1307.95 170.426 1308.54 170.034C1309.13 169.642 1309.82 169.433 1310.53 169.433C1311.48 169.438 1312.39 169.816 1313.06 170.484C1313.73 171.153 1314.1 172.057 1314.11 173.002Z" fill="white"/>
</g>
<g style="mix-blend-mode:color-dodge">
<path d="M450.41 184.254C450.41 184.96 450.2 185.651 449.807 186.238C449.413 186.825 448.855 187.282 448.201 187.552C447.547 187.823 446.827 187.893 446.133 187.756C445.439 187.618 444.802 187.278 444.301 186.779C443.801 186.279 443.46 185.643 443.322 184.951C443.184 184.258 443.255 183.541 443.526 182.888C443.796 182.236 444.255 181.678 444.843 181.286C445.432 180.894 446.124 180.685 446.831 180.685C447.78 180.685 448.691 181.061 449.362 181.73C450.033 182.4 450.41 183.308 450.41 184.254Z" fill="white"/>
</g>
<g style="mix-blend-mode:color-dodge">
<path d="M1413.7 548.6C1413.7 549.306 1413.49 549.996 1413.09 550.583C1412.7 551.17 1412.14 551.628 1411.49 551.898C1410.83 552.168 1410.11 552.239 1409.42 552.101C1408.72 551.963 1408.09 551.623 1407.59 551.124C1407.09 550.625 1406.75 549.989 1406.61 549.296C1406.47 548.604 1406.54 547.886 1406.81 547.234C1407.08 546.582 1407.54 546.024 1408.13 545.632C1408.72 545.24 1409.41 545.03 1410.12 545.03C1411.07 545.03 1411.98 545.406 1412.65 546.076C1413.32 546.745 1413.7 547.653 1413.7 548.6Z" fill="white"/>
</g>
</g>
<path d="M1229.12 1119.18L1041.56 1001.9L1041.48 1002.04L1221.03 1119.53L1229.12 1119.18Z" fill="url(#paint41_linear_1:99)"/>
<path d="M511.213 1120.18L698.77 1002.9L698.853 1003.04L519.302 1120.53L511.213 1120.18Z" fill="url(#paint42_linear_1:99)"/>
<g opacity="0.5" clip-path="url(#clip0_1:99)">
<path d="M1549.79 474.014C1580.17 461.167 1594.36 426.182 1581.48 395.873C1568.61 365.563 1533.54 351.407 1503.16 364.254C1472.77 377.101 1458.59 412.086 1471.46 442.395C1484.34 472.705 1519.41 486.861 1549.79 474.014Z" fill="url(#paint43_linear_1:99)"/>
<path d="M1576.49 386.5C1566.59 397.267 1550.67 411.532 1531.83 426.049C1513 440.566 1495.16 452.359 1482.22 459.195C1485.18 462.464 1488.5 465.389 1492.12 467.913C1508.36 457.948 1524.04 447.099 1539.09 435.417C1554.23 423.83 1568.72 411.417 1582.49 398.234C1582.15 397.451 1581.82 396.668 1581.46 395.824C1580.08 392.576 1578.42 389.456 1576.49 386.5Z" fill="url(#paint44_linear_1:99)"/>
<path d="M1613.98 351.645C1609.4 345.723 1588.41 353.631 1560.83 370.355C1562.77 371.715 1564.63 373.186 1566.4 374.762C1577.49 368.837 1585.13 366.39 1586.96 368.756C1588.79 371.123 1584.67 377.584 1576.49 386.5C1566.59 397.267 1550.67 411.532 1531.83 426.049C1513 440.566 1495.16 452.359 1482.22 459.195C1471.52 464.857 1464.16 467.158 1462.37 464.846C1460.57 462.535 1464.84 455.713 1473.39 446.498C1472.7 445.17 1472.06 443.793 1471.46 442.395C1471.12 441.6 1470.79 440.817 1470.44 439.986C1447.27 462.417 1434.31 480.691 1438.95 486.587C1443.59 492.484 1464.52 484.601 1492.1 467.877C1508.35 457.912 1524.03 447.063 1539.07 435.381C1554.22 423.806 1568.71 411.405 1582.49 398.234C1605.61 375.836 1618.57 357.562 1613.98 351.645Z" fill="url(#paint45_linear_1:99)"/>
<path d="M1553.51 332.656C1559.9 329.957 1562.88 322.607 1560.17 316.239C1557.47 309.871 1550.1 306.897 1543.72 309.596C1537.33 312.295 1534.35 319.645 1537.06 326.013C1539.76 332.381 1547.13 335.355 1553.51 332.656Z" fill="url(#paint46_linear_1:99)"/>
<path style="mix-blend-mode:overlay" opacity="0.83" d="M1543.54 313.267C1541.48 312.716 1539.13 315.131 1538.35 318.859C1537.57 322.586 1538.56 326.073 1540.67 326.662C1542.77 327.251 1545.06 324.803 1545.84 321.076C1546.62 317.348 1545.64 313.927 1543.54 313.267Z" fill="url(#paint47_linear_1:99)"/>
<path style="mix-blend-mode:overlay" opacity="0.4" d="M1572.76 527.505C1635.46 500.994 1664.74 428.796 1638.16 366.248C1611.59 303.7 1539.22 274.487 1476.52 300.999C1413.83 327.51 1384.54 399.708 1411.12 462.256C1437.69 524.804 1510.06 554.017 1572.76 527.505Z" fill="url(#paint48_radial_1:99)"/>
</g>
<g clip-path="url(#clip1_1:99)">
<path d="M1407.03 193.188C1418.83 193.188 1428.4 183.641 1428.4 171.865C1428.4 160.089 1418.83 150.543 1407.03 150.543C1395.22 150.543 1385.65 160.089 1385.65 171.865C1385.65 183.641 1395.22 193.188 1407.03 193.188Z" fill="url(#paint49_linear_1:99)"/>
<path d="M1428.07 168.083C1423.3 170.25 1416.06 172.731 1407.83 174.889C1399.59 177.047 1392.06 178.447 1386.85 178.896C1387.36 180.386 1388.05 181.811 1388.89 183.147C1395.63 182.127 1402.31 180.738 1408.9 178.985C1415.51 177.278 1422.02 175.208 1428.4 172.783C1428.4 172.479 1428.4 172.174 1428.4 171.847C1428.4 170.585 1428.29 169.325 1428.07 168.083Z" fill="url(#paint50_linear_1:99)"/>
<path d="M1445.29 161.824C1444.61 159.236 1436.59 158.918 1425.17 160.584C1425.62 161.302 1426.02 162.046 1426.39 162.812C1430.87 162.405 1433.73 162.662 1434 163.697C1434.27 164.731 1432.01 166.286 1428.07 168.083C1423.3 170.25 1416.06 172.731 1407.82 174.889C1399.59 177.047 1392.06 178.447 1386.85 178.896C1382.53 179.271 1379.78 179.004 1379.52 177.993C1379.25 176.982 1381.61 175.329 1385.71 173.485C1385.67 172.951 1385.65 172.408 1385.65 171.865C1385.65 171.556 1385.65 171.252 1385.65 170.929C1374.89 175.091 1368.06 179.304 1368.76 181.892C1369.47 184.481 1377.46 184.799 1388.89 183.133C1395.63 182.113 1402.31 180.723 1408.9 178.971C1415.51 177.269 1422.02 175.203 1428.4 172.783C1439.15 168.626 1445.98 164.413 1445.29 161.824Z" fill="url(#paint51_linear_1:99)"/>
<path d="M1428.03 147.149C1430.51 147.149 1432.53 145.144 1432.53 142.669C1432.53 140.195 1430.51 138.19 1428.03 138.19C1425.55 138.19 1423.54 140.195 1423.54 142.669C1423.54 145.144 1425.55 147.149 1428.03 147.149Z" fill="url(#paint52_linear_1:99)"/>
<path style="mix-blend-mode:overlay" opacity="0.83" d="M1427.46 139.374C1426.86 138.906 1425.75 139.374 1424.97 140.493C1424.19 141.611 1424.03 142.899 1424.64 143.386C1425.25 143.872 1426.35 143.386 1427.13 142.267C1427.91 141.148 1428.06 139.884 1427.46 139.374Z" fill="url(#paint53_linear_1:99)"/>
<path style="mix-blend-mode:overlay" opacity="0.4" d="M1407.11 214.005C1431.47 214.005 1451.21 194.304 1451.21 170.002C1451.21 145.701 1431.47 126 1407.11 126C1382.75 126 1363 145.701 1363 170.002C1363 194.304 1382.75 214.005 1407.11 214.005Z" fill="url(#paint54_radial_1:99)"/>
</g>
<g clip-path="url(#clip2_1:99)">
<path d="M143.042 527.368C112.056 527.368 86.9371 502.309 86.9371 471.397C86.9371 440.485 112.056 415.425 143.042 415.425C174.027 415.425 199.146 440.485 199.146 471.397C199.146 502.309 174.027 527.368 143.042 527.368Z" fill="url(#paint55_linear_1:99)"/>
<path d="M87.812 461.468C100.326 467.157 119.332 473.67 140.948 479.335C162.565 484.999 182.321 488.674 196.018 489.853C194.659 493.762 192.862 497.505 190.66 501.011C172.957 498.333 155.416 494.686 138.115 490.087C120.768 485.605 103.683 480.17 86.9375 473.805C86.9375 473.006 86.9375 472.208 86.9375 471.348C86.9366 468.035 87.2292 464.729 87.812 461.468Z" fill="url(#paint56_linear_1:99)"/>
<path d="M42.5956 445.039C44.3816 438.244 65.4316 437.408 95.4237 441.783C94.2433 443.669 93.174 445.622 92.2213 447.632C80.4584 446.563 72.9573 447.239 72.2429 449.954C71.5285 452.67 77.4653 456.75 87.8117 461.468C100.326 467.157 119.331 473.67 140.948 479.335C162.564 484.999 182.321 488.673 196.018 489.853C207.349 490.836 214.555 490.136 215.257 487.482C215.959 484.827 209.763 480.49 198.986 475.648C199.097 474.247 199.146 472.822 199.146 471.397C199.146 470.586 199.146 469.787 199.146 468.939C227.414 479.863 245.335 490.922 243.488 497.717C241.64 504.513 220.652 505.348 190.66 500.974C172.957 498.296 155.416 494.649 138.115 490.05C120.768 485.58 103.683 480.157 86.9372 473.805C58.7187 462.893 40.7973 451.834 42.5956 445.039Z" fill="url(#paint57_linear_1:99)"/>
<path d="M87.8978 406.517C81.3878 406.517 76.1104 401.252 76.1104 394.757C76.1104 388.263 81.3878 382.998 87.8978 382.998C94.4079 382.998 99.6853 388.263 99.6853 394.757C99.6853 401.252 94.4079 406.517 87.8978 406.517Z" fill="url(#paint58_linear_1:99)"/>
<path style="mix-blend-mode:overlay" opacity="0.83" d="M89.4011 386.107C90.9777 384.878 93.8969 386.107 95.9415 389.043C97.9861 391.98 98.4049 395.359 96.8037 396.637C95.2025 397.915 92.3203 396.637 90.2756 393.7C88.231 390.764 87.8245 387.446 89.4011 386.107Z" fill="url(#paint59_linear_1:99)"/>
<path style="mix-blend-mode:overlay" opacity="0.4" d="M142.832 582.012C78.8885 582.012 27.0516 530.298 27.0516 466.506C27.0516 402.714 78.8885 351 142.832 351C206.776 351 258.613 402.714 258.613 466.506C258.613 530.298 206.776 582.012 142.832 582.012Z" fill="url(#paint60_radial_1:99)"/>
</g>
</g>
<defs>
<linearGradient id="paint0_linear_1:99" x1="696.432" y1="78.0724" x2="2515.79" y2="1211" gradientUnits="userSpaceOnUse">
<stop stop-color="#5918BD"/>
<stop offset="1" stop-color="#1A1345"/>
</linearGradient>
<linearGradient id="paint1_linear_1:99" x1="843.501" y1="1003.97" x2="843.501" y2="1268.05" gradientUnits="userSpaceOnUse">
<stop stop-color="#270048"/>
<stop offset="0.2" stop-color="#28004B"/>
<stop offset="0.35" stop-color="#2B0055"/>
<stop offset="0.48" stop-color="#2F0065"/>
<stop offset="0.61" stop-color="#36007C"/>
<stop offset="0.73" stop-color="#3E0099"/>
<stop offset="0.84" stop-color="#4800BD"/>
<stop offset="0.95" stop-color="#5400E7"/>
<stop offset="1" stop-color="#5B00FF"/>
</linearGradient>
<linearGradient id="paint2_linear_1:99" x1="874.559" y1="428.626" x2="874.559" y2="962.077" gradientUnits="userSpaceOnUse">
<stop stop-color="white" stop-opacity="0"/>
<stop offset="0.09" stop-color="white" stop-opacity="0.04"/>
<stop offset="0.23" stop-color="white" stop-opacity="0.14"/>
<stop offset="0.41" stop-color="white" stop-opacity="0.3"/>
<stop offset="0.62" stop-color="white" stop-opacity="0.52"/>
<stop offset="0.85" stop-color="white" stop-opacity="0.81"/>
<stop offset="1" stop-color="white"/>
</linearGradient>
<linearGradient id="paint3_linear_1:99" x1="1091.4" y1="618.866" x2="1091.4" y2="970.948" gradientUnits="userSpaceOnUse">
<stop stop-color="white" stop-opacity="0"/>
<stop offset="0.09" stop-color="white" stop-opacity="0.04"/>
<stop offset="0.23" stop-color="white" stop-opacity="0.14"/>
<stop offset="0.41" stop-color="white" stop-opacity="0.3"/>
<stop offset="0.62" stop-color="white" stop-opacity="0.52"/>
<stop offset="0.85" stop-color="white" stop-opacity="0.81"/>
<stop offset="1" stop-color="white"/>
</linearGradient>
<linearGradient id="paint4_linear_1:99" x1="543.944" y1="618.866" x2="543.944" y2="970.948" gradientUnits="userSpaceOnUse">
<stop stop-color="white" stop-opacity="0"/>
<stop offset="0.09" stop-color="white" stop-opacity="0.04"/>
<stop offset="0.23" stop-color="white" stop-opacity="0.14"/>
<stop offset="0.41" stop-color="white" stop-opacity="0.3"/>
<stop offset="0.62" stop-color="white" stop-opacity="0.52"/>
<stop offset="0.85" stop-color="white" stop-opacity="0.81"/>
<stop offset="1" stop-color="white"/>
</linearGradient>
<linearGradient id="paint5_linear_1:99" x1="505.055" y1="431.722" x2="505.055" y2="965.173" gradientUnits="userSpaceOnUse">
<stop stop-color="white" stop-opacity="0"/>
<stop offset="0.09" stop-color="white" stop-opacity="0.04"/>
<stop offset="0.23" stop-color="white" stop-opacity="0.14"/>
<stop offset="0.41" stop-color="white" stop-opacity="0.3"/>
<stop offset="0.62" stop-color="white" stop-opacity="0.52"/>
<stop offset="0.85" stop-color="white" stop-opacity="0.81"/>
<stop offset="1" stop-color="white"/>
</linearGradient>
<linearGradient id="paint6_linear_1:99" x1="563.692" y1="621.962" x2="563.692" y2="974.044" gradientUnits="userSpaceOnUse">
<stop stop-color="white" stop-opacity="0"/>
<stop offset="0.09" stop-color="white" stop-opacity="0.04"/>
<stop offset="0.23" stop-color="white" stop-opacity="0.14"/>
<stop offset="0.41" stop-color="white" stop-opacity="0.3"/>
<stop offset="0.62" stop-color="white" stop-opacity="0.52"/>
<stop offset="0.85" stop-color="white" stop-opacity="0.81"/>
<stop offset="1" stop-color="white"/>
</linearGradient>
<linearGradient id="paint7_linear_1:99" x1="415.655" y1="621.962" x2="415.655" y2="974.044" gradientUnits="userSpaceOnUse">
<stop stop-color="white" stop-opacity="0"/>
<stop offset="0.09" stop-color="white" stop-opacity="0.04"/>
<stop offset="0.23" stop-color="white" stop-opacity="0.14"/>
<stop offset="0.41" stop-color="white" stop-opacity="0.3"/>
<stop offset="0.62" stop-color="white" stop-opacity="0.52"/>
<stop offset="0.85" stop-color="white" stop-opacity="0.81"/>
<stop offset="1" stop-color="white"/>
</linearGradient>
<linearGradient id="paint8_linear_1:99" x1="293.817" y1="431.722" x2="293.817" y2="965.173" gradientUnits="userSpaceOnUse">
<stop stop-color="white" stop-opacity="0"/>
<stop offset="0.09" stop-color="white" stop-opacity="0.04"/>
<stop offset="0.23" stop-color="white" stop-opacity="0.14"/>
<stop offset="0.41" stop-color="white" stop-opacity="0.3"/>
<stop offset="0.62" stop-color="white" stop-opacity="0.52"/>
<stop offset="0.85" stop-color="white" stop-opacity="0.81"/>
<stop offset="1" stop-color="white"/>
</linearGradient>
<linearGradient id="paint9_linear_1:99" x1="352.454" y1="621.962" x2="352.454" y2="974.044" gradientUnits="userSpaceOnUse">
<stop stop-color="white" stop-opacity="0"/>
<stop offset="0.09" stop-color="white" stop-opacity="0.04"/>
<stop offset="0.23" stop-color="white" stop-opacity="0.14"/>
<stop offset="0.41" stop-color="white" stop-opacity="0.3"/>
<stop offset="0.62" stop-color="white" stop-opacity="0.52"/>
<stop offset="0.85" stop-color="white" stop-opacity="0.81"/>
<stop offset="1" stop-color="white"/>
</linearGradient>
<linearGradient id="paint10_linear_1:99" x1="204.418" y1="621.962" x2="204.418" y2="974.044" gradientUnits="userSpaceOnUse">
<stop stop-color="white" stop-opacity="0"/>
<stop offset="0.09" stop-color="white" stop-opacity="0.04"/>
<stop offset="0.23" stop-color="white" stop-opacity="0.14"/>
<stop offset="0.41" stop-color="white" stop-opacity="0.3"/>
<stop offset="0.62" stop-color="white" stop-opacity="0.52"/>
<stop offset="0.85" stop-color="white" stop-opacity="0.81"/>
<stop offset="1" stop-color="white"/>
</linearGradient>
<linearGradient id="paint11_linear_1:99" x1="109.58" y1="431.722" x2="109.58" y2="965.172" gradientUnits="userSpaceOnUse">
<stop stop-color="white" stop-opacity="0"/>
<stop offset="0.09" stop-color="white" stop-opacity="0.04"/>
<stop offset="0.23" stop-color="white" stop-opacity="0.14"/>
<stop offset="0.41" stop-color="white" stop-opacity="0.3"/>
<stop offset="0.62" stop-color="white" stop-opacity="0.52"/>
<stop offset="0.85" stop-color="white" stop-opacity="0.81"/>
<stop offset="1" stop-color="white"/>
</linearGradient>
<linearGradient id="paint12_linear_1:99" x1="168.217" y1="621.962" x2="168.217" y2="974.044" gradientUnits="userSpaceOnUse">
<stop stop-color="white" stop-opacity="0"/>
<stop offset="0.09" stop-color="white" stop-opacity="0.04"/>
<stop offset="0.23" stop-color="white" stop-opacity="0.14"/>
<stop offset="0.41" stop-color="white" stop-opacity="0.3"/>
<stop offset="0.62" stop-color="white" stop-opacity="0.52"/>
<stop offset="0.85" stop-color="white" stop-opacity="0.81"/>
<stop offset="1" stop-color="white"/>
</linearGradient>
<linearGradient id="paint13_linear_1:99" x1="20.1802" y1="621.962" x2="20.1802" y2="974.044" gradientUnits="userSpaceOnUse">
<stop stop-color="white" stop-opacity="0"/>
<stop offset="0.09" stop-color="white" stop-opacity="0.04"/>
<stop offset="0.23" stop-color="white" stop-opacity="0.14"/>
<stop offset="0.41" stop-color="white" stop-opacity="0.3"/>
<stop offset="0.62" stop-color="white" stop-opacity="0.52"/>
<stop offset="0.85" stop-color="white" stop-opacity="0.81"/>
<stop offset="1" stop-color="white"/>
</linearGradient>
<linearGradient id="paint14_linear_1:99" x1="1381.77" y1="431.722" x2="1381.77" y2="965.173" gradientUnits="userSpaceOnUse">
<stop stop-color="white" stop-opacity="0"/>
<stop offset="0.09" stop-color="white" stop-opacity="0.04"/>
<stop offset="0.23" stop-color="white" stop-opacity="0.14"/>
<stop offset="0.41" stop-color="white" stop-opacity="0.3"/>
<stop offset="0.62" stop-color="white" stop-opacity="0.52"/>
<stop offset="0.85" stop-color="white" stop-opacity="0.81"/>
<stop offset="1" stop-color="white"/>
</linearGradient>
<linearGradient id="paint15_linear_1:99" x1="1440.41" y1="621.962" x2="1440.41" y2="974.044" gradientUnits="userSpaceOnUse">
<stop stop-color="white" stop-opacity="0"/>
<stop offset="0.09" stop-color="white" stop-opacity="0.04"/>
<stop offset="0.23" stop-color="white" stop-opacity="0.14"/>
<stop offset="0.41" stop-color="white" stop-opacity="0.3"/>
<stop offset="0.62" stop-color="white" stop-opacity="0.52"/>
<stop offset="0.85" stop-color="white" stop-opacity="0.81"/>
<stop offset="1" stop-color="white"/>
</linearGradient>
<linearGradient id="paint16_linear_1:99" x1="1292.37" y1="621.962" x2="1292.37" y2="974.044" gradientUnits="userSpaceOnUse">
<stop stop-color="white" stop-opacity="0"/>
<stop offset="0.09" stop-color="white" stop-opacity="0.04"/>
<stop offset="0.23" stop-color="white" stop-opacity="0.14"/>
<stop offset="0.41" stop-color="white" stop-opacity="0.3"/>
<stop offset="0.62" stop-color="white" stop-opacity="0.52"/>
<stop offset="0.85" stop-color="white" stop-opacity="0.81"/>
<stop offset="1" stop-color="white"/>
</linearGradient>
<linearGradient id="paint17_linear_1:99" x1="1577.13" y1="431.722" x2="1577.13" y2="965.173" gradientUnits="userSpaceOnUse">
<stop stop-color="white" stop-opacity="0"/>
<stop offset="0.09" stop-color="white" stop-opacity="0.04"/>
<stop offset="0.23" stop-color="white" stop-opacity="0.14"/>
<stop offset="0.41" stop-color="white" stop-opacity="0.3"/>
<stop offset="0.62" stop-color="white" stop-opacity="0.52"/>
<stop offset="0.85" stop-color="white" stop-opacity="0.81"/>
<stop offset="1" stop-color="white"/>
</linearGradient>
<linearGradient id="paint18_linear_1:99" x1="1635.77" y1="621.962" x2="1635.77" y2="974.044" gradientUnits="userSpaceOnUse">
<stop stop-color="white" stop-opacity="0"/>
<stop offset="0.09" stop-color="white" stop-opacity="0.04"/>
<stop offset="0.23" stop-color="white" stop-opacity="0.14"/>
<stop offset="0.41" stop-color="white" stop-opacity="0.3"/>
<stop offset="0.62" stop-color="white" stop-opacity="0.52"/>
<stop offset="0.85" stop-color="white" stop-opacity="0.81"/>
<stop offset="1" stop-color="white"/>
</linearGradient>
<linearGradient id="paint19_linear_1:99" x1="1487.73" y1="621.962" x2="1487.73" y2="974.044" gradientUnits="userSpaceOnUse">
<stop stop-color="white" stop-opacity="0"/>
<stop offset="0.09" stop-color="white" stop-opacity="0.04"/>
<stop offset="0.23" stop-color="white" stop-opacity="0.14"/>
<stop offset="0.41" stop-color="white" stop-opacity="0.3"/>
<stop offset="0.62" stop-color="white" stop-opacity="0.52"/>
<stop offset="0.85" stop-color="white" stop-opacity="0.81"/>
<stop offset="1" stop-color="white"/>
</linearGradient>
<linearGradient id="paint20_linear_1:99" x1="874.559" y1="428.626" x2="874.559" y2="962.077" gradientUnits="userSpaceOnUse">
<stop stop-color="white" stop-opacity="0"/>
<stop offset="0.09" stop-color="white" stop-opacity="0.04"/>
<stop offset="0.23" stop-color="white" stop-opacity="0.14"/>
<stop offset="0.41" stop-color="white" stop-opacity="0.3"/>
<stop offset="0.62" stop-color="white" stop-opacity="0.52"/>
<stop offset="0.85" stop-color="white" stop-opacity="0.81"/>
<stop offset="1" stop-color="white"/>
</linearGradient>
<linearGradient id="paint21_linear_1:99" x1="1091.4" y1="618.866" x2="1091.4" y2="970.948" gradientUnits="userSpaceOnUse">
<stop stop-color="white" stop-opacity="0"/>
<stop offset="0.09" stop-color="white" stop-opacity="0.04"/>
<stop offset="0.23" stop-color="white" stop-opacity="0.14"/>
<stop offset="0.41" stop-color="white" stop-opacity="0.3"/>
<stop offset="0.62" stop-color="white" stop-opacity="0.52"/>
<stop offset="0.85" stop-color="white" stop-opacity="0.81"/>
<stop offset="1" stop-color="white"/>
</linearGradient>
<linearGradient id="paint22_linear_1:99" x1="543.944" y1="618.866" x2="543.944" y2="970.948" gradientUnits="userSpaceOnUse">
<stop stop-color="white" stop-opacity="0"/>
<stop offset="0.09" stop-color="white" stop-opacity="0.04"/>
<stop offset="0.23" stop-color="white" stop-opacity="0.14"/>
<stop offset="0.41" stop-color="white" stop-opacity="0.3"/>
<stop offset="0.62" stop-color="white" stop-opacity="0.52"/>
<stop offset="0.85" stop-color="white" stop-opacity="0.81"/>
<stop offset="1" stop-color="white"/>
</linearGradient>
<linearGradient id="paint23_linear_1:99" x1="505.055" y1="431.722" x2="505.055" y2="965.173" gradientUnits="userSpaceOnUse">
<stop stop-color="white" stop-opacity="0"/>
<stop offset="0.09" stop-color="white" stop-opacity="0.04"/>
<stop offset="0.23" stop-color="white" stop-opacity="0.14"/>
<stop offset="0.41" stop-color="white" stop-opacity="0.3"/>
<stop offset="0.62" stop-color="white" stop-opacity="0.52"/>
<stop offset="0.85" stop-color="white" stop-opacity="0.81"/>
<stop offset="1" stop-color="white"/>
</linearGradient>
<linearGradient id="paint24_linear_1:99" x1="563.692" y1="621.962" x2="563.692" y2="974.044" gradientUnits="userSpaceOnUse">
<stop stop-color="white" stop-opacity="0"/>
<stop offset="0.09" stop-color="white" stop-opacity="0.04"/>
<stop offset="0.23" stop-color="white" stop-opacity="0.14"/>
<stop offset="0.41" stop-color="white" stop-opacity="0.3"/>
<stop offset="0.62" stop-color="white" stop-opacity="0.52"/>
<stop offset="0.85" stop-color="white" stop-opacity="0.81"/>
<stop offset="1" stop-color="white"/>
</linearGradient>
<linearGradient id="paint25_linear_1:99" x1="415.655" y1="621.962" x2="415.655" y2="974.044" gradientUnits="userSpaceOnUse">
<stop stop-color="white" stop-opacity="0"/>
<stop offset="0.09" stop-color="white" stop-opacity="0.04"/>
<stop offset="0.23" stop-color="white" stop-opacity="0.14"/>
<stop offset="0.41" stop-color="white" stop-opacity="0.3"/>
<stop offset="0.62" stop-color="white" stop-opacity="0.52"/>
<stop offset="0.85" stop-color="white" stop-opacity="0.81"/>
<stop offset="1" stop-color="white"/>
</linearGradient>
<linearGradient id="paint26_linear_1:99" x1="293.817" y1="431.722" x2="293.817" y2="965.173" gradientUnits="userSpaceOnUse">
<stop stop-color="white" stop-opacity="0"/>
<stop offset="0.09" stop-color="white" stop-opacity="0.04"/>
<stop offset="0.23" stop-color="white" stop-opacity="0.14"/>
<stop offset="0.41" stop-color="white" stop-opacity="0.3"/>
<stop offset="0.62" stop-color="white" stop-opacity="0.52"/>
<stop offset="0.85" stop-color="white" stop-opacity="0.81"/>
<stop offset="1" stop-color="white"/>
</linearGradient>
<linearGradient id="paint27_linear_1:99" x1="352.454" y1="621.962" x2="352.454" y2="974.044" gradientUnits="userSpaceOnUse">
<stop stop-color="white" stop-opacity="0"/>
<stop offset="0.09" stop-color="white" stop-opacity="0.04"/>
<stop offset="0.23" stop-color="white" stop-opacity="0.14"/>
<stop offset="0.41" stop-color="white" stop-opacity="0.3"/>
<stop offset="0.62" stop-color="white" stop-opacity="0.52"/>
<stop offset="0.85" stop-color="white" stop-opacity="0.81"/>
<stop offset="1" stop-color="white"/>
</linearGradient>
<linearGradient id="paint28_linear_1:99" x1="204.418" y1="621.962" x2="204.418" y2="974.044" gradientUnits="userSpaceOnUse">
<stop stop-color="white" stop-opacity="0"/>
<stop offset="0.09" stop-color="white" stop-opacity="0.04"/>
<stop offset="0.23" stop-color="white" stop-opacity="0.14"/>
<stop offset="0.41" stop-color="white" stop-opacity="0.3"/>
<stop offset="0.62" stop-color="white" stop-opacity="0.52"/>
<stop offset="0.85" stop-color="white" stop-opacity="0.81"/>
<stop offset="1" stop-color="white"/>
</linearGradient>
<linearGradient id="paint29_linear_1:99" x1="109.58" y1="431.722" x2="109.58" y2="965.172" gradientUnits="userSpaceOnUse">
<stop stop-color="white" stop-opacity="0"/>
<stop offset="0.09" stop-color="white" stop-opacity="0.04"/>
<stop offset="0.23" stop-color="white" stop-opacity="0.14"/>
<stop offset="0.41" stop-color="white" stop-opacity="0.3"/>
<stop offset="0.62" stop-color="white" stop-opacity="0.52"/>
<stop offset="0.85" stop-color="white" stop-opacity="0.81"/>
<stop offset="1" stop-color="white"/>
</linearGradient>
<linearGradient id="paint30_linear_1:99" x1="168.217" y1="621.962" x2="168.217" y2="974.044" gradientUnits="userSpaceOnUse">
<stop stop-color="white" stop-opacity="0"/>
<stop offset="0.09" stop-color="white" stop-opacity="0.04"/>
<stop offset="0.23" stop-color="white" stop-opacity="0.14"/>
<stop offset="0.41" stop-color="white" stop-opacity="0.3"/>
<stop offset="0.62" stop-color="white" stop-opacity="0.52"/>
<stop offset="0.85" stop-color="white" stop-opacity="0.81"/>
<stop offset="1" stop-color="white"/>
</linearGradient>
<linearGradient id="paint31_linear_1:99" x1="20.1802" y1="621.962" x2="20.1802" y2="974.044" gradientUnits="userSpaceOnUse">
<stop stop-color="white" stop-opacity="0"/>
<stop offset="0.09" stop-color="white" stop-opacity="0.04"/>
<stop offset="0.23" stop-color="white" stop-opacity="0.14"/>
<stop offset="0.41" stop-color="white" stop-opacity="0.3"/>
<stop offset="0.62" stop-color="white" stop-opacity="0.52"/>
<stop offset="0.85" stop-color="white" stop-opacity="0.81"/>
<stop offset="1" stop-color="white"/>
</linearGradient>
<linearGradient id="paint32_linear_1:99" x1="1381.77" y1="431.722" x2="1381.77" y2="965.173" gradientUnits="userSpaceOnUse">
<stop stop-color="white" stop-opacity="0"/>
<stop offset="0.09" stop-color="white" stop-opacity="0.04"/>
<stop offset="0.23" stop-color="white" stop-opacity="0.14"/>
<stop offset="0.41" stop-color="white" stop-opacity="0.3"/>
<stop offset="0.62" stop-color="white" stop-opacity="0.52"/>
<stop offset="0.85" stop-color="white" stop-opacity="0.81"/>
<stop offset="1" stop-color="white"/>
</linearGradient>
<linearGradient id="paint33_linear_1:99" x1="1440.41" y1="621.962" x2="1440.41" y2="974.044" gradientUnits="userSpaceOnUse">
<stop stop-color="white" stop-opacity="0"/>
<stop offset="0.09" stop-color="white" stop-opacity="0.04"/>
<stop offset="0.23" stop-color="white" stop-opacity="0.14"/>
<stop offset="0.41" stop-color="white" stop-opacity="0.3"/>
<stop offset="0.62" stop-color="white" stop-opacity="0.52"/>
<stop offset="0.85" stop-color="white" stop-opacity="0.81"/>
<stop offset="1" stop-color="white"/>
</linearGradient>
<linearGradient id="paint34_linear_1:99" x1="1292.37" y1="621.962" x2="1292.37" y2="974.044" gradientUnits="userSpaceOnUse">
<stop stop-color="white" stop-opacity="0"/>
<stop offset="0.09" stop-color="white" stop-opacity="0.04"/>
<stop offset="0.23" stop-color="white" stop-opacity="0.14"/>
<stop offset="0.41" stop-color="white" stop-opacity="0.3"/>
<stop offset="0.62" stop-color="white" stop-opacity="0.52"/>
<stop offset="0.85" stop-color="white" stop-opacity="0.81"/>
<stop offset="1" stop-color="white"/>
</linearGradient>
<linearGradient id="paint35_linear_1:99" x1="1577.13" y1="431.722" x2="1577.13" y2="965.173" gradientUnits="userSpaceOnUse">
<stop stop-color="white" stop-opacity="0"/>
<stop offset="0.09" stop-color="white" stop-opacity="0.04"/>
<stop offset="0.23" stop-color="white" stop-opacity="0.14"/>
<stop offset="0.41" stop-color="white" stop-opacity="0.3"/>
<stop offset="0.62" stop-color="white" stop-opacity="0.52"/>
<stop offset="0.85" stop-color="white" stop-opacity="0.81"/>
<stop offset="1" stop-color="white"/>
</linearGradient>
<linearGradient id="paint36_linear_1:99" x1="1635.77" y1="621.962" x2="1635.77" y2="974.044" gradientUnits="userSpaceOnUse">
<stop stop-color="white" stop-opacity="0"/>
<stop offset="0.09" stop-color="white" stop-opacity="0.04"/>
<stop offset="0.23" stop-color="white" stop-opacity="0.14"/>
<stop offset="0.41" stop-color="white" stop-opacity="0.3"/>
<stop offset="0.62" stop-color="white" stop-opacity="0.52"/>
<stop offset="0.85" stop-color="white" stop-opacity="0.81"/>
<stop offset="1" stop-color="white"/>
</linearGradient>
<linearGradient id="paint37_linear_1:99" x1="1487.73" y1="621.962" x2="1487.73" y2="974.044" gradientUnits="userSpaceOnUse">
<stop stop-color="white" stop-opacity="0"/>
<stop offset="0.09" stop-color="white" stop-opacity="0.04"/>
<stop offset="0.23" stop-color="white" stop-opacity="0.14"/>
<stop offset="0.41" stop-color="white" stop-opacity="0.3"/>
<stop offset="0.62" stop-color="white" stop-opacity="0.52"/>
<stop offset="0.85" stop-color="white" stop-opacity="0.81"/>
<stop offset="1" stop-color="white"/>
</linearGradient>
<radialGradient id="paint38_radial_1:99" cx="0" cy="0" r="1" gradientUnits="userSpaceOnUse" gradientTransform="translate(35067.6 239014) scale(132367 132053)">
<stop stop-color="white"/>
<stop offset="0.17" stop-color="white" stop-opacity="0.83"/>
<stop offset="0.75" stop-color="white" stop-opacity="0.24"/>
<stop offset="1" stop-color="white" stop-opacity="0"/>
</radialGradient>
<linearGradient id="paint39_linear_1:99" x1="275.447" y1="978.35" x2="275.447" y2="1336.23" gradientUnits="userSpaceOnUse">
<stop stop-color="#5B00FF" stop-opacity="0.15"/>
<stop offset="1" stop-color="#00F4FB"/>
</linearGradient>
<linearGradient id="paint40_linear_1:99" x1="-1.24446e+06" y1="87258.4" x2="-1.24446e+06" y2="127224" gradientUnits="userSpaceOnUse">
<stop stop-color="#5B00FF" stop-opacity="0.48"/>
<stop offset="1" stop-color="#00F4FB"/>
</linearGradient>
<linearGradient id="paint41_linear_1:99" x1="1228.89" y1="1056.48" x2="1042.91" y2="1064.59" gradientUnits="userSpaceOnUse">
<stop stop-color="#C9FAFB"/>
<stop offset="0.42" stop-color="#00F4FB"/>
<stop offset="1" stop-color="#00F4FB" stop-opacity="0"/>
</linearGradient>
<linearGradient id="paint42_linear_1:99" x1="511.442" y1="1057.48" x2="697.423" y2="1065.59" gradientUnits="userSpaceOnUse">
<stop stop-color="#C9FAFB"/>
<stop offset="0.42" stop-color="#00F4FB"/>
<stop offset="1" stop-color="#00F4FB" stop-opacity="0"/>
</linearGradient>
<linearGradient id="paint43_linear_1:99" x1="1491.81" y1="377.88" x2="1563.74" y2="463.863" gradientUnits="userSpaceOnUse">
<stop stop-color="#813BFF"/>
<stop offset="0.32" stop-color="#5900F9"/>
<stop offset="0.44" stop-color="#4D00CE"/>
<stop offset="0.63" stop-color="#3D0095"/>
<stop offset="0.8" stop-color="#31006B"/>
<stop offset="0.92" stop-color="#2A0051"/>
<stop offset="1" stop-color="#270048"/>
</linearGradient>
<linearGradient id="paint44_linear_1:99" x1="1515.09" y1="404.445" x2="1541.89" y2="439.188" gradientUnits="userSpaceOnUse">
<stop offset="0.03" stop-color="#5B00FF"/>
<stop offset="0.04" stop-color="#5900F9"/>
<stop offset="0.14" stop-color="#4B01C8"/>
<stop offset="0.24" stop-color="#3E019C"/>
<stop offset="0.35" stop-color="#330277"/>
<stop offset="0.45" stop-color="#2A0259"/>
<stop offset="0.57" stop-color="#240342"/>
<stop offset="0.69" stop-color="#1F0332"/>
<stop offset="0.82" stop-color="#1C0328"/>
<stop offset="1" stop-color="#1B0325"/>
</linearGradient>
<linearGradient id="paint45_linear_1:99" x1="1525.4" y1="416.604" x2="1540.13" y2="451.448" gradientUnits="userSpaceOnUse">
<stop stop-color="#5B00FF"/>
<stop offset="0.11" stop-color="#4C27FF"/>
<stop offset="0.28" stop-color="#3562FF"/>
<stop offset="0.46" stop-color="#2292FF"/>
<stop offset="0.62" stop-color="#13B8FF"/>
<stop offset="0.76" stop-color="#09D4FF"/>
<stop offset="0.9" stop-color="#02E4FF"/>
<stop offset="0.99" stop-color="#00EAFF"/>
</linearGradient>
<linearGradient id="paint46_linear_1:99" x1="5348.57" y1="-19.9384" x2="4754.97" y2="-470.34" gradientUnits="userSpaceOnUse">
<stop stop-color="#5B00FF"/>
<stop offset="0.11" stop-color="#4C27FF"/>
<stop offset="0.28" stop-color="#3562FF"/>
<stop offset="0.46" stop-color="#2292FF"/>
<stop offset="0.62" stop-color="#13B8FF"/>
<stop offset="0.76" stop-color="#09D4FF"/>
<stop offset="0.9" stop-color="#02E4FF"/>
<stop offset="0.99" stop-color="#00EAFF"/>
</linearGradient>
<linearGradient id="paint47_linear_1:99" x1="1542.07" y1="318.692" x2="1550.47" y2="321.794" gradientUnits="userSpaceOnUse">
<stop stop-color="white"/>
<stop offset="0.1" stop-color="white" stop-opacity="0.93"/>
<stop offset="0.29" stop-color="white" stop-opacity="0.76"/>
<stop offset="0.57" stop-color="white" stop-opacity="0.49"/>
<stop offset="0.9" stop-color="white" stop-opacity="0.12"/>
<stop offset="1" stop-color="white" stop-opacity="0"/>
</linearGradient>
<radialGradient id="paint48_radial_1:99" cx="0" cy="0" r="1" gradientUnits="userSpaceOnUse" gradientTransform="translate(1528.75 415.442) rotate(-22.9214) scale(109.894 109.712)">
<stop stop-color="white"/>
<stop offset="0.3" stop-color="white" stop-opacity="0.71"/>
<stop offset="1" stop-color="white" stop-opacity="0"/>
</radialGradient>
<linearGradient id="paint49_linear_1:99" x1="1401.38" y1="153.45" x2="1413.08" y2="191.776" gradientUnits="userSpaceOnUse">
<stop stop-color="#813BFF"/>
<stop offset="0.32" stop-color="#5900F9"/>
<stop offset="0.44" stop-color="#4D00CE"/>
<stop offset="0.63" stop-color="#3D0095"/>
<stop offset="0.8" stop-color="#31006B"/>
<stop offset="0.92" stop-color="#2A0051"/>
<stop offset="1" stop-color="#270048"/>
</linearGradient>
<linearGradient id="paint50_linear_1:99" x1="1405.34" y1="165.443" x2="1409.32" y2="180.613" gradientUnits="userSpaceOnUse">
<stop offset="0.03" stop-color="#5B00FF"/>
<stop offset="0.04" stop-color="#5900F9"/>
<stop offset="0.14" stop-color="#4B01C8"/>
<stop offset="0.24" stop-color="#3E019C"/>
<stop offset="0.35" stop-color="#330277"/>
<stop offset="0.45" stop-color="#2A0259"/>
<stop offset="0.57" stop-color="#240342"/>
<stop offset="0.69" stop-color="#1F0332"/>
<stop offset="0.82" stop-color="#1C0328"/>
<stop offset="1" stop-color="#1B0325"/>
</linearGradient>
<linearGradient id="paint51_linear_1:99" x1="1407.03" y1="170.882" x2="1407.03" y2="184.411" gradientUnits="userSpaceOnUse">
<stop stop-color="#5B00FF"/>
<stop offset="0.11" stop-color="#4C27FF"/>
<stop offset="0.28" stop-color="#3562FF"/>
<stop offset="0.46" stop-color="#2292FF"/>
<stop offset="0.62" stop-color="#13B8FF"/>
<stop offset="0.76" stop-color="#09D4FF"/>
<stop offset="0.9" stop-color="#02E4FF"/>
<stop offset="0.99" stop-color="#00EAFF"/>
</linearGradient>
<linearGradient id="paint52_linear_1:99" x1="2727.31" y1="559.561" x2="2594.77" y2="328.578" gradientUnits="userSpaceOnUse">
<stop stop-color="#5B00FF"/>
<stop offset="0.11" stop-color="#4C27FF"/>
<stop offset="0.28" stop-color="#3562FF"/>
<stop offset="0.46" stop-color="#2292FF"/>
<stop offset="0.62" stop-color="#13B8FF"/>
<stop offset="0.76" stop-color="#09D4FF"/>
<stop offset="0.9" stop-color="#02E4FF"/>
<stop offset="0.99" stop-color="#00EAFF"/>
</linearGradient>
<linearGradient id="paint53_linear_1:99" x1="1426.22" y1="140.956" x2="1428.55" y2="143.15" gradientUnits="userSpaceOnUse">
<stop stop-color="white"/>
<stop offset="0.1" stop-color="white" stop-opacity="0.93"/>
<stop offset="0.29" stop-color="white" stop-opacity="0.76"/>
<stop offset="0.57" stop-color="white" stop-opacity="0.49"/>
<stop offset="0.9" stop-color="white" stop-opacity="0.12"/>
<stop offset="1" stop-color="white" stop-opacity="0"/>
</linearGradient>
<radialGradient id="paint54_radial_1:99" cx="0" cy="0" r="1" gradientUnits="userSpaceOnUse" gradientTransform="translate(1408.29 170.967) scale(39.3256 39.2323)">
<stop stop-color="white"/>
<stop offset="0.3" stop-color="white" stop-opacity="0.71"/>
<stop offset="1" stop-color="white" stop-opacity="0"/>
</radialGradient>
<linearGradient id="paint55_linear_1:99" x1="157.859" y1="423.056" x2="127.151" y2="523.661" gradientUnits="userSpaceOnUse">
<stop stop-color="#813BFF"/>
<stop offset="0.32" stop-color="#5900F9"/>
<stop offset="0.44" stop-color="#4D00CE"/>
<stop offset="0.63" stop-color="#3D0095"/>
<stop offset="0.8" stop-color="#31006B"/>
<stop offset="0.92" stop-color="#2A0051"/>
<stop offset="1" stop-color="#270048"/>
</linearGradient>
<linearGradient id="paint56_linear_1:99" x1="147.485" y1="454.537" x2="137.033" y2="494.359" gradientUnits="userSpaceOnUse">
<stop offset="0.03" stop-color="#5B00FF"/>
<stop offset="0.04" stop-color="#5900F9"/>
<stop offset="0.14" stop-color="#4B01C8"/>
<stop offset="0.24" stop-color="#3E019C"/>
<stop offset="0.35" stop-color="#330277"/>
<stop offset="0.45" stop-color="#2A0259"/>
<stop offset="0.57" stop-color="#240342"/>
<stop offset="0.69" stop-color="#1F0332"/>
<stop offset="0.82" stop-color="#1C0328"/>
<stop offset="1" stop-color="#1B0325"/>
</linearGradient>
<linearGradient id="paint57_linear_1:99" x1="143.042" y1="468.816" x2="143.042" y2="504.328" gradientUnits="userSpaceOnUse">
<stop stop-color="#5B00FF"/>
<stop offset="0.11" stop-color="#4C27FF"/>
<stop offset="0.28" stop-color="#3562FF"/>
<stop offset="0.46" stop-color="#2292FF"/>
<stop offset="0.62" stop-color="#13B8FF"/>
<stop offset="0.76" stop-color="#09D4FF"/>
<stop offset="0.9" stop-color="#02E4FF"/>
<stop offset="0.99" stop-color="#00EAFF"/>
</linearGradient>
<linearGradient id="paint58_linear_1:99" x1="-3322.69" y1="1489.1" x2="-2974.79" y2="882.768" gradientUnits="userSpaceOnUse">
<stop stop-color="#5B00FF"/>
<stop offset="0.11" stop-color="#4C27FF"/>
<stop offset="0.28" stop-color="#3562FF"/>
<stop offset="0.46" stop-color="#2292FF"/>
<stop offset="0.62" stop-color="#13B8FF"/>
<stop offset="0.76" stop-color="#09D4FF"/>
<stop offset="0.9" stop-color="#02E4FF"/>
<stop offset="0.99" stop-color="#00EAFF"/>
</linearGradient>
<linearGradient id="paint59_linear_1:99" x1="92.6622" y1="390.26" x2="86.5441" y2="396.018" gradientUnits="userSpaceOnUse">
<stop stop-color="white"/>
<stop offset="0.1" stop-color="white" stop-opacity="0.93"/>
<stop offset="0.29" stop-color="white" stop-opacity="0.76"/>
<stop offset="0.57" stop-color="white" stop-opacity="0.49"/>
<stop offset="0.9" stop-color="white" stop-opacity="0.12"/>
<stop offset="1" stop-color="white" stop-opacity="0"/>
</linearGradient>
<radialGradient id="paint60_radial_1:99" cx="0" cy="0" r="1" gradientUnits="userSpaceOnUse" gradientTransform="translate(139.716 469.037) rotate(180) scale(103.23 102.985)">
<stop stop-color="white"/>
<stop offset="0.3" stop-color="white" stop-opacity="0.71"/>
<stop offset="1" stop-color="white" stop-opacity="0"/>
</radialGradient>
<clipPath id="clip0_1:99">
<rect width="246.497" height="246.09" fill="white" transform="matrix(0.92104 -0.389468 0.391039 0.920374 1363 349.002)"/>
</clipPath>
<clipPath id="clip1_1:99">
<rect width="88.2093" height="88" fill="white" transform="translate(1363 126)"/>
</clipPath>
<clipPath id="clip2_1:99">
<rect width="231.549" height="231" fill="white" transform="matrix(-1 0 0 1 258.613 351)"/>
</clipPath>
</defs>
</svg>
