<svg width="1677" height="1015" viewBox="0 0 1677 1015" fill="none" xmlns="http://www.w3.org/2000/svg">
<path d="M1774.47 -112H-213.178V1085.94H1774.47V-112Z" fill="url(#paint0_linear)"/>
<path opacity="0.2" d="M572.596 923.35L560.99 611.665C560.99 573.853 530.316 543.191 492.488 543.191C476.476 543.191 461.743 548.708 450.066 557.918C450.421 555.622 450.682 553.278 450.682 550.863C450.682 526.191 430.667 506.184 405.986 506.184C399.022 506.184 392.461 507.818 386.586 510.659C380.831 476.801 351.365 451.016 315.859 451.016C278.932 451.016 248.542 478.908 244.539 514.755C234.851 486.579 208.133 466.335 176.677 466.335C168.055 466.335 159.812 467.851 152.162 470.645C139.063 439.131 107.986 416.945 71.7225 416.945C58.8844 416.945 46.7096 419.739 35.7428 424.735C38.1825 416.211 39.5326 407.214 39.5326 397.909C39.5326 344.186 -4.02675 300.644 -57.7713 300.644C-111.516 300.644 -155.075 344.186 -155.075 397.909C-155.075 422.273 -146.098 444.505 -131.294 461.576V923.374H572.596V923.35Z" fill="url(#paint1_linear)"/>
<path opacity="0.2" d="M1020.81 980.27L1032.42 668.585C1032.42 630.773 1063.09 600.111 1100.92 600.111C1116.93 600.111 1131.67 605.628 1143.34 614.838C1142.99 612.542 1142.73 610.198 1142.73 607.782C1142.73 583.111 1162.74 563.104 1187.42 563.104C1194.39 563.104 1200.95 564.738 1206.82 567.579C1212.58 533.721 1242.05 507.936 1277.55 507.936C1314.48 507.936 1344.87 535.828 1348.87 571.675C1358.56 543.499 1385.28 523.255 1416.73 523.255C1425.36 523.255 1433.6 524.771 1441.25 527.565C1454.35 496.05 1485.42 473.865 1521.69 473.865C1534.53 473.865 1546.7 476.659 1557.67 481.655C1555.23 473.131 1553.88 464.134 1553.88 454.829C1553.88 401.106 1597.44 357.563 1651.18 357.563C1704.93 357.563 1748.49 401.106 1748.49 454.829C1748.49 479.192 1739.51 501.425 1724.7 518.496V980.293H1020.81V980.27Z" fill="url(#paint2_linear)"/>
<path opacity="0.2" d="M669.38 322.189C659.313 322.142 650.43 327.28 645.267 335.093C641.335 317.383 625.583 304.076 606.658 303.982C601.778 303.958 597.112 304.81 592.801 306.397C593.18 304.266 593.37 302.064 593.393 299.815C593.512 277.866 575.794 259.99 553.837 259.895C531.88 259.777 513.996 277.487 513.902 299.436C513.902 301.543 514.044 303.603 514.352 305.615C509.093 302.017 502.745 299.909 495.924 299.862C478.419 299.767 464.065 313.382 462.905 330.618C461.01 330.263 459.068 330.05 457.078 330.05C439.147 329.955 424.509 344.233 424.012 362.062L695.127 363.411C696.927 359.67 697.969 355.527 697.993 351.099C698.064 335.188 685.249 322.26 669.38 322.189Z" fill="url(#paint3_linear)"/>
<path opacity="0.2" d="M1725.72 373.025C1706.66 372.93 1689.84 382.662 1680.06 397.46C1672.62 363.909 1642.77 338.741 1606.96 338.551C1597.72 338.504 1588.89 340.138 1580.72 343.121C1581.4 339.072 1581.81 334.905 1581.83 330.643C1582.04 289.09 1548.5 255.232 1506.93 255.019C1465.36 254.805 1431.49 288.332 1431.28 329.885C1431.25 333.863 1431.56 337.77 1432.13 341.582C1422.18 334.763 1410.17 330.761 1397.22 330.69C1364.06 330.525 1336.86 356.285 1334.71 388.912C1331.13 388.249 1327.46 387.847 1323.67 387.823C1289.7 387.657 1261.99 414.673 1261.02 448.436L1774.52 450.97C1777.93 443.914 1779.92 436.03 1779.94 427.648C1780.06 397.649 1755.78 373.167 1725.72 373.025Z" fill="url(#paint4_linear)"/>
<path opacity="0.2" d="M265.715 377.545C246.647 377.451 229.83 387.182 220.048 401.98C212.61 368.43 182.765 343.261 146.951 343.072C137.713 343.024 128.878 344.658 120.707 347.641C121.394 343.593 121.796 339.425 121.82 335.164C122.033 293.61 88.4931 259.752 46.9234 259.539C5.35366 259.326 -28.5179 292.853 -28.7311 334.406C-28.7548 338.384 -28.4469 342.29 -27.8784 346.102C-37.8267 339.283 -49.8357 335.282 -62.7922 335.211C-95.9532 335.045 -123.145 360.806 -125.301 393.433C-128.877 392.77 -132.549 392.367 -136.339 392.344C-170.305 392.178 -198.018 419.193 -198.989 452.957L314.509 455.49C317.92 448.435 319.91 440.55 319.933 432.168C320.052 402.193 295.797 377.688 265.715 377.545Z" fill="url(#paint5_linear)"/>
<path opacity="0.2" d="M1368.75 387.751C1354.91 387.68 1342.74 394.735 1335.63 405.461C1330.23 381.145 1308.61 362.89 1282.65 362.771C1275.97 362.748 1269.55 363.908 1263.62 366.086C1264.12 363.15 1264.41 360.143 1264.43 357.042C1264.57 326.924 1240.27 302.371 1210.14 302.229C1180.01 302.087 1155.45 326.38 1155.31 356.497C1155.28 359.386 1155.5 362.203 1155.92 364.973C1148.72 360.048 1140.01 357.136 1130.6 357.089C1106.56 356.97 1086.85 375.628 1085.29 399.281C1082.68 398.808 1080.03 398.5 1077.31 398.5C1052.67 398.382 1032.59 417.963 1031.9 442.445L1404.06 444.291C1406.53 439.177 1407.97 433.447 1407.99 427.386C1408.11 405.603 1390.54 387.869 1368.75 387.751Z" fill="url(#paint6_linear)"/>
<path opacity="0.2" d="M379.695 213.607C364.109 213.536 350.347 221.491 342.341 233.59C336.254 206.149 311.857 185.573 282.557 185.431C275.001 185.384 267.776 186.71 261.097 189.172C261.665 185.857 261.997 182.448 261.997 178.967C262.163 144.991 234.734 117.289 200.744 117.123C166.754 116.957 139.04 144.375 138.875 178.352C138.851 181.595 139.112 184.792 139.562 187.917C131.437 182.353 121.607 179.062 110.996 179.015C83.8747 178.873 61.6569 199.945 59.8804 226.629C56.9433 226.085 53.9588 225.753 50.8559 225.729C23.0717 225.587 0.403723 247.678 -0.37793 275.285L419.512 277.369C422.307 271.592 423.917 265.152 423.965 258.309C424.107 233.756 404.281 213.725 379.695 213.607Z" fill="url(#paint7_linear)"/>
<path opacity="0.2" d="M297.762 474.457C315.124 474.362 330.402 483.241 339.308 496.69C346.082 466.17 373.227 443.25 405.82 443.108C414.205 443.061 422.258 444.553 429.695 447.276C429.056 443.582 428.701 439.794 428.677 435.934C428.488 398.122 458.996 367.318 496.823 367.129C534.65 366.939 565.466 397.435 565.656 435.248C565.679 438.87 565.395 442.422 564.874 445.879C573.922 439.675 584.865 436.029 596.638 435.982C626.814 435.84 651.543 459.256 653.509 488.947C656.777 488.355 660.117 487.976 663.552 487.953C694.463 487.811 719.689 512.387 720.541 543.097L253.374 545.417C250.271 539 248.471 531.826 248.423 524.202C248.328 496.855 270.404 474.575 297.762 474.457Z" fill="url(#paint8_linear)"/>
<path opacity="0.2" d="M892.316 380.34C891.7 345.724 863.466 317.856 828.694 317.856C800.128 317.856 775.968 336.656 767.915 362.559C738.946 363.411 715.615 386.686 714.715 415.643H775.021H824.383H849.633H882.391H928.177C926.258 396.843 911.17 381.974 892.316 380.34Z" fill="url(#paint9_linear)"/>
<path opacity="0.2" d="M871.377 482.578C871.875 454.852 894.495 432.524 922.35 432.524C945.231 432.524 964.583 447.583 971.05 468.348C994.262 469.034 1012.95 487.668 1013.69 510.872H965.365H925.809H905.58H879.336H842.646C844.161 495.789 856.242 483.88 871.377 482.578Z" fill="url(#paint10_linear)"/>
<path opacity="0.2" d="M1560.94 180.791C1560.37 148.164 1533.75 121.883 1500.94 121.883C1474.01 121.883 1451.22 139.617 1443.62 164.028C1416.31 164.833 1394.3 186.782 1393.45 214.081H1450.32H1496.87H1520.67H1551.56H1594.74C1592.96 196.371 1578.75 182.33 1560.94 180.791Z" fill="url(#paint11_linear)"/>
<path opacity="0.2" d="M1176.06 484.495C1175.49 451.868 1148.86 425.587 1116.06 425.587C1089.13 425.587 1066.34 443.321 1058.74 467.732C1031.43 468.537 1009.42 490.486 1008.57 517.785H1065.44H1111.98H1135.79H1166.68H1209.86C1208.08 500.051 1193.84 486.034 1176.06 484.495Z" fill="url(#paint12_linear)"/>
<path d="M-138.399 766.039C-138.399 766.039 692.734 703.247 1458.07 870.692V1092.17H-126.201L-138.399 766.039Z" fill="url(#paint13_linear)"/>
<path d="M1458.07 870.692C692.734 703.224 -138.399 766.04 -138.399 766.04L-138.02 776.505C-63.5266 773.995 234.401 765.164 449.001 777.12C695.979 790.877 505.872 798.43 507.506 803.331C509.14 808.232 613.527 803.118 634.252 814.956C654.978 826.795 557.484 831.388 584.298 836.787C611.111 842.185 687.878 857.575 652.538 859.943C617.198 862.31 591.593 878.884 644.011 882.436C696.405 885.987 780.492 907.865 776.845 900.478C773.197 893.091 637.924 874.149 687.878 871.781C737.833 869.414 830.471 872.965 795.131 865.862C759.79 858.759 624.517 843.227 652.538 836.787C680.559 830.346 870.69 837.45 828.031 827.979C785.372 818.508 575.77 804.302 596.472 797.199C617.198 790.095 648.867 778.707 891.392 803.331C1133.92 827.979 1395.91 874.149 1395.91 874.149L1458.07 905.829V870.692Z" fill="white" fill-opacity="0.06"/>
<path d="M154.697 789.195C154.697 790.782 150.457 792.084 145.246 792.084C140.035 792.084 135.795 790.782 135.795 789.195C135.795 787.609 140.035 786.307 145.246 786.307C150.481 786.307 154.697 787.609 154.697 789.195Z" fill="#ADDF72"/>
<path d="M174.498 783.419C174.498 785.005 170.259 786.307 165.048 786.307C159.837 786.307 155.597 785.005 155.597 783.419C155.597 781.833 159.837 780.53 165.048 780.53C170.282 780.53 174.498 781.833 174.498 783.419Z" fill="#ADDF72"/>
<path d="M256.454 780.53C261.673 780.53 265.905 779.237 265.905 777.641C265.905 776.046 261.673 774.753 256.454 774.753C251.234 774.753 247.003 776.046 247.003 777.641C247.003 779.237 251.234 780.53 256.454 780.53Z" fill="#ADDF72"/>
<path d="M358.021 780.53C358.021 782.117 353.781 783.419 348.57 783.419C343.359 783.419 339.119 782.117 339.119 780.53C339.119 778.944 343.359 777.642 348.57 777.642C353.781 777.642 358.021 778.944 358.021 780.53Z" fill="#ADDF72"/>
<path d="M196.148 793.553C196.148 794.358 194.04 794.997 191.434 794.997C188.829 794.997 186.721 794.358 186.721 793.553C186.721 792.748 188.829 792.108 191.434 792.108C194.016 792.108 196.148 792.748 196.148 793.553Z" fill="#ADDF72"/>
<path d="M208.939 800.726C211.542 800.726 213.653 800.08 213.653 799.282C213.653 798.485 211.542 797.838 208.939 797.838C206.336 797.838 204.226 798.485 204.226 799.282C204.226 800.08 206.336 800.726 208.939 800.726Z" fill="#ADDF72"/>
<path d="M232.081 794.997C232.081 795.802 229.972 796.441 227.367 796.441C224.761 796.441 222.653 795.802 222.653 794.997C222.653 794.192 224.761 793.553 227.367 793.553C229.972 793.553 232.081 794.192 232.081 794.997Z" fill="#ADDF72"/>
<path d="M275.355 783.419C275.355 784.224 273.247 784.863 270.641 784.863C268.036 784.863 265.928 784.224 265.928 783.419C265.928 782.614 268.036 781.975 270.641 781.975C273.247 781.975 275.355 782.638 275.355 783.419Z" fill="#ADDF72"/>
<path d="M296.223 779.086C298.827 779.086 300.937 778.439 300.937 777.642C300.937 776.844 298.827 776.197 296.223 776.197C293.62 776.197 291.51 776.844 291.51 777.642C291.51 778.439 293.62 779.086 296.223 779.086Z" fill="#ADDF72"/>
<path d="M362.735 787.775C362.735 788.58 360.627 789.22 358.021 789.22C355.416 789.22 353.308 788.58 353.308 787.775C353.308 786.97 355.416 786.331 358.021 786.331C360.627 786.331 362.735 786.97 362.735 787.775Z" fill="#ADDF72"/>
<path d="M446.656 787.775C446.656 789.362 442.416 790.664 437.205 790.664C431.994 790.664 427.754 789.362 427.754 787.775C427.754 786.189 431.994 784.887 437.205 784.887C442.416 784.887 446.656 786.165 446.656 787.775Z" fill="#ADDF72"/>
<path d="M490.097 787.775C490.097 789.362 485.857 790.664 480.646 790.664C475.435 790.664 471.195 789.362 471.195 787.775C471.195 786.189 475.435 784.887 480.646 784.887C485.857 784.887 490.097 786.165 490.097 787.775Z" fill="#ADDF72"/>
<path d="M451.37 794.997C451.37 795.802 449.262 796.441 446.656 796.441C444.051 796.441 441.942 795.802 441.942 794.997C441.942 794.192 444.051 793.553 446.656 793.553C449.262 793.553 451.37 794.216 451.37 794.997Z" fill="#ADDF72"/>
<path d="M421.998 805.51C424.601 805.51 426.711 804.863 426.711 804.065C426.711 803.268 424.601 802.621 421.998 802.621C419.395 802.621 417.284 803.268 417.284 804.065C417.284 804.863 419.395 805.51 421.998 805.51Z" fill="#ADDF72"/>
<path d="M461.436 817.348C464.039 817.348 466.15 816.701 466.15 815.903C466.15 815.106 464.039 814.459 461.436 814.459C458.833 814.459 456.723 815.106 456.723 815.903C456.723 816.701 458.833 817.348 461.436 817.348Z" fill="#ADDF72"/>
<path d="M368.727 806.977C368.727 807.782 366.619 808.421 364.013 808.421C361.408 808.421 359.3 807.782 359.3 806.977C359.3 806.172 361.408 805.533 364.013 805.533C366.619 805.509 368.727 806.172 368.727 806.977Z" fill="#ADDF72"/>
<path d="M383.057 790.664C385.661 790.664 387.771 790.017 387.771 789.22C387.771 788.422 385.661 787.775 383.057 787.775C380.454 787.775 378.344 788.422 378.344 789.22C378.344 790.017 380.454 790.664 383.057 790.664Z" fill="#ADDF72"/>
<path d="M420.672 783.419C423.275 783.419 425.385 782.772 425.385 781.975C425.385 781.177 423.275 780.53 420.672 780.53C418.068 780.53 415.958 781.177 415.958 781.975C415.958 782.772 418.068 783.419 420.672 783.419Z" fill="#ADDF72"/>
<path d="M756.546 807.617C761.765 807.617 765.997 806.324 765.997 804.728C765.997 803.133 761.765 801.84 756.546 801.84C751.326 801.84 747.095 803.133 747.095 804.728C747.095 806.324 751.326 807.617 756.546 807.617Z" fill="#ADDF72"/>
<path d="M799.986 807.617C805.206 807.617 809.437 806.324 809.437 804.728C809.437 803.133 805.206 801.84 799.986 801.84C794.766 801.84 790.535 803.133 790.535 804.728C790.535 806.324 794.766 807.617 799.986 807.617Z" fill="#ADDF72"/>
<path d="M770.709 811.973C770.709 812.778 768.601 813.417 765.996 813.417C763.39 813.417 761.282 812.778 761.282 811.973C761.282 811.168 763.39 810.528 765.996 810.528C768.601 810.528 770.709 811.168 770.709 811.973Z" fill="#ADDF72"/>
<path d="M865.1 830.157C865.1 830.962 862.992 831.602 860.386 831.602C857.781 831.602 855.673 830.962 855.673 830.157C855.673 829.352 857.781 828.713 860.386 828.713C862.968 828.713 865.1 829.376 865.1 830.157Z" fill="#ADDF72"/>
<path d="M864.058 851.349C864.058 852.154 861.95 852.793 859.344 852.793C856.739 852.793 854.631 852.154 854.631 851.349C854.631 850.544 856.739 849.904 859.344 849.904C861.95 849.904 864.058 850.544 864.058 851.349Z" fill="#ADDF72"/>
<path d="M899.494 837.261C899.494 838.066 897.386 838.705 894.78 838.705C892.175 838.705 890.066 838.066 890.066 837.261C890.066 836.456 892.175 835.816 894.78 835.816C897.386 835.816 899.494 836.456 899.494 837.261Z" fill="#ADDF72"/>
<path d="M744.726 798.95C744.726 799.755 742.618 800.394 740.012 800.394C737.407 800.394 735.299 799.755 735.299 798.95C735.299 798.145 737.407 797.506 740.012 797.506C742.618 797.506 744.726 798.145 744.726 798.95Z" fill="#ADDF72"/>
<path d="M890.066 889.373C890.066 890.959 885.826 892.262 880.615 892.262C875.404 892.262 871.164 890.959 871.164 889.373C871.164 887.763 875.404 886.484 880.615 886.484C885.826 886.484 890.066 887.763 890.066 889.373Z" fill="#ADDF72"/>
<path d="M933.506 889.373C933.506 890.959 929.266 892.262 924.055 892.262C918.844 892.262 914.604 890.959 914.604 889.373C914.604 887.763 918.844 886.484 924.055 886.484C929.266 886.484 933.506 887.763 933.506 889.373Z" fill="#ADDF72"/>
<path d="M899.494 826.226C904.713 826.226 908.945 824.933 908.945 823.338C908.945 821.742 904.713 820.449 899.494 820.449C894.274 820.449 890.043 821.742 890.043 823.338C890.043 824.933 894.274 826.226 899.494 826.226Z" fill="#ADDF72"/>
<path d="M894.78 896.595C894.78 897.4 892.672 898.039 890.066 898.039C887.461 898.039 885.353 897.4 885.353 896.595C885.353 895.79 887.461 895.15 890.066 895.15C892.672 895.15 894.78 895.813 894.78 896.595Z" fill="#ADDF72"/>
<path d="M864.058 885.017C866.662 885.017 868.772 884.371 868.772 883.573C868.772 882.776 866.662 882.129 864.058 882.129C861.455 882.129 859.345 882.776 859.345 883.573C859.345 884.371 861.455 885.017 864.058 885.017Z" fill="#ADDF72"/>
<path d="M336.893 786.331C336.893 787.136 334.785 787.775 332.179 787.775C329.574 787.775 327.466 787.136 327.466 786.331C327.466 785.526 329.574 784.887 332.179 784.887C334.785 784.887 336.893 785.526 336.893 786.331Z" fill="#ADDF72"/>
<path d="M1690.27 837.662C1690.27 837.662 1042.68 807.427 539.886 1105H1690.27V837.662Z" fill="#81A566"/>
<path d="M628.331 1114.98C618.193 1115.06 613.408 1115.08 604.479 1115.08C615.54 1042.41 790.464 999.11 848.093 979.552C959.396 941.764 1073.99 908.829 1189.6 885.412C1195.01 884.418 1197.63 883.921 1202.77 882.974C1089.88 907.077 978.108 940.319 869.553 978.368C809.319 999.465 643.751 1041.92 628.331 1114.98Z" fill="white" fill-opacity="0.1"/>
<path d="M728.193 1113.33C714.621 1113.64 708.036 1113.78 695.411 1114.01C717.913 1040.62 859.961 1000.01 924.293 975.338C1024.16 937.029 1127 903.36 1231.27 877.576C1235.86 876.699 1238.09 876.273 1242.5 875.421C1142.82 901.916 1044.57 935.632 949.259 973.965C885.211 999.749 751.264 1040.85 728.193 1113.33Z" fill="white" fill-opacity="0.1"/>
<path d="M853.636 1109.97C837.387 1110.46 829.429 1110.68 813.914 1111.13C835.54 1041.56 950.04 998.897 1011.39 970.722C1094.24 932.649 1180.01 898.98 1267.13 870.757C1271.16 870 1273.12 869.621 1277.03 868.887C1196.02 898.104 1116.08 931.323 1039.1 969.23C980.359 998.14 872.704 1042.79 853.636 1109.97Z" fill="white" fill-opacity="0.1"/>
<path d="M998.028 1105.35C979.932 1105.97 970.978 1106.25 953.332 1106.84C966.928 1042.96 1054.33 997.217 1107.03 965.797C1169.16 928.766 1234.35 897.063 1299.3 864.838C1302.99 864.175 1304.84 863.868 1308.49 863.252C1251.26 896.968 1192.4 927.867 1137 964.4C1087.21 997.193 1009.16 1043.17 998.028 1105.35Z" fill="white" fill-opacity="0.1"/>
<path d="M1154.71 1099.9C1135.53 1100.59 1125.98 1100.92 1107.06 1101.58C1111.91 997.24 1264.79 927.866 1329.88 859.795C1333.52 859.25 1335.32 858.99 1339 858.469C1289.4 937.006 1154.19 996.103 1154.71 1099.9Z" fill="white" fill-opacity="0.1"/>
<path d="M1317.04 1094.08C1297.59 1094.79 1287.83 1095.12 1268.39 1095.83C1269.88 1043.79 1289.51 1001.29 1315.19 956.113C1332.15 926.279 1362.89 890.906 1360.88 855.627C1364.69 855.177 1366.64 854.964 1370.55 854.538C1383.29 886.147 1358.92 925.356 1347.31 954.763C1329 1001.15 1315.12 1043.95 1317.04 1094.08Z" fill="white" fill-opacity="0.1"/>
<path d="M1478.39 1088.33C1459.44 1088.99 1449.89 1089.32 1430.73 1090.01C1422.21 1043.46 1423.48 999.039 1422.99 951.946C1422.66 920.503 1425.57 872.935 1394.49 852.265C1398.73 851.91 1400.91 851.745 1405.34 851.413C1473.91 886.313 1463.06 1027.19 1478.39 1088.33Z" fill="white" fill-opacity="0.1"/>
<path d="M1632.11 1083.09C1614.49 1083.66 1605.54 1083.97 1587.42 1084.58C1554.35 996.435 1525.5 896.329 1432.77 849.708C1437.7 849.448 1440.23 849.33 1445.42 849.093C1546.25 892.919 1593.29 989.592 1632.11 1083.09Z" fill="white" fill-opacity="0.1"/>
<path d="M1771.53 1078.78C1755.99 1079.23 1748.04 1079.45 1731.81 1079.94C1686.93 974.533 1589.24 886.147 1477.8 847.837C1483.65 847.648 1486.66 847.577 1492.86 847.411C1606.68 883.471 1725.53 969.419 1771.53 1078.78Z" fill="white" fill-opacity="0.1"/>
<path d="M1890.04 1075.89C1877.41 1076.13 1870.83 1076.27 1857.25 1076.58C1814.48 959.143 1646.33 878.641 1531.66 846.677C1538.7 846.582 1542.32 846.535 1549.76 846.464C1662.5 876.889 1851.62 955.781 1890.04 1075.89Z" fill="white" fill-opacity="0.1"/>
<path d="M1980.95 1074.83C1971.99 1074.83 1967.21 1074.85 1957.09 1074.92C1948.12 1015.52 1875.23 971.266 1826.91 942.048C1755.52 898.909 1677.92 867.205 1596.44 846.18C1604.92 846.156 1609.26 846.156 1618.21 846.156C1700.76 867.489 1779.87 899.074 1852.71 942.048C1899.58 969.75 1977.84 1015.09 1980.95 1074.83Z" fill="white" fill-opacity="0.1"/>
<path d="M886.75 951.596C894.33 949.821 1275.33 836.786 1690.24 848.388V837.639C1690.27 837.662 1297.83 819.336 886.75 951.596Z" fill="#8EAE75"/>
<path d="M-5.94434 837.662C-5.94434 837.662 756.759 807.427 1348.92 1105H-5.94434V837.662Z" fill="url(#paint14_linear)"/>
<path d="M-60 944.5L-82 971.5V1016H229L214.5 957.5L180.5 979.5L174 952L162 977L151.5 952L136 979.5L128 942.5L98 983.5V962.5L71 986.5L66 962.5L42 979.5L25.5 957.5L13.5 983.5L11.5 960L-17.5 992L-60 944.5Z" fill="#ADDF72"/>
<path d="M36.4309 886.059C36.4309 888.237 30.8172 890.013 23.8771 890.013C16.9606 890.013 11.3232 888.237 11.3232 886.059C11.3232 883.88 16.9369 882.104 23.8771 882.104C30.8172 882.104 36.4309 883.88 36.4309 886.059Z" fill="#ADDF72"/>
<path d="M50.1925 882.128C57.1258 882.128 62.7463 880.358 62.7463 878.174C62.7463 875.99 57.1258 874.22 50.1925 874.22C43.2592 874.22 37.6387 875.99 37.6387 878.174C37.6387 880.358 43.2592 882.128 50.1925 882.128Z" fill="#ADDF72"/>
<path d="M181.985 889.965C181.985 892.143 176.371 893.919 169.431 893.919C162.514 893.919 156.877 892.143 156.877 889.965C156.877 887.786 162.491 886.011 169.431 886.011C176.371 886.011 181.985 887.786 181.985 889.965Z" fill="#ADDF72"/>
<path d="M290.918 875.853C290.918 878.032 285.304 879.808 278.364 879.808C271.448 879.808 265.811 878.032 265.811 875.853C265.811 873.675 271.424 871.899 278.364 871.899C285.304 871.899 290.918 873.675 290.918 875.853Z" fill="#ADDF72"/>
<path d="M85.1773 893.942C88.6439 893.942 91.4542 893.062 91.4542 891.977C91.4542 890.892 88.6439 890.012 85.1773 890.012C81.7107 890.012 78.9004 890.892 78.9004 891.977C78.9004 893.062 81.7107 893.942 85.1773 893.942Z" fill="#ADDF72"/>
<path d="M114.715 899.815C114.715 900.904 111.896 901.804 108.438 901.804C104.98 901.804 102.161 900.928 102.161 899.815C102.161 898.726 104.98 897.85 108.438 897.85C111.92 897.826 114.715 898.726 114.715 899.815Z" fill="#ADDF72"/>
<path d="M139.206 893.967C139.206 895.056 136.387 895.956 132.929 895.956C129.471 895.956 126.652 895.08 126.652 893.967C126.652 892.878 129.471 892.002 132.929 892.002C136.387 892.002 139.206 892.878 139.206 893.967Z" fill="#ADDF72"/>
<path d="M194.514 897.873C194.514 898.962 191.695 899.838 188.237 899.838C184.779 899.838 181.96 898.962 181.96 897.873C181.96 896.784 184.779 895.884 188.237 895.884C191.719 895.907 194.514 896.784 194.514 897.873Z" fill="#ADDF72"/>
<path d="M228.504 889.965C228.504 891.054 225.685 891.954 222.227 891.954C218.769 891.954 215.95 891.078 215.95 889.965C215.95 888.876 218.769 888 222.227 888C225.709 888 228.504 888.876 228.504 889.965Z" fill="#ADDF72"/>
<path d="M297.195 885.75C297.195 886.839 294.377 887.716 290.919 887.716C287.46 887.716 284.642 886.839 284.642 885.75C284.642 884.661 287.46 883.785 290.919 883.785C294.377 883.785 297.195 884.661 297.195 885.75Z" fill="#ADDF72"/>
<path d="M394.76 904.455C401.693 904.455 407.314 902.685 407.314 900.501C407.314 898.317 401.693 896.547 394.76 896.547C387.827 896.547 382.206 898.317 382.206 900.501C382.206 902.685 387.827 904.455 394.76 904.455Z" fill="#ADDF72"/>
<path d="M467.169 938.598C467.169 940.776 461.555 942.552 454.615 942.552C447.699 942.552 442.062 940.776 442.062 938.598C442.062 936.419 447.675 934.644 454.615 934.644C461.555 934.644 467.169 936.396 467.169 938.598Z" fill="#ADDF72"/>
<path d="M413.567 910.398C413.567 911.487 410.748 912.387 407.29 912.387C403.831 912.387 401.013 911.511 401.013 910.398C401.013 909.309 403.831 908.433 407.29 908.433C410.748 908.409 413.567 909.309 413.567 910.398Z" fill="#ADDF72"/>
<path d="M380.808 922.781C380.808 923.87 377.989 924.77 374.531 924.77C371.073 924.77 368.254 923.894 368.254 922.781C368.254 921.692 371.073 920.792 374.531 920.792C377.989 920.792 380.808 921.692 380.808 922.781Z" fill="#ADDF72"/>
<path d="M433.202 938.977C433.202 940.066 430.384 940.942 426.925 940.942C423.467 940.942 420.648 940.066 420.648 938.977C420.648 937.888 423.467 936.988 426.925 936.988C430.384 936.988 433.202 937.864 433.202 938.977Z" fill="#ADDF72"/>
<path d="M318.536 930.05C318.536 931.139 315.718 932.015 312.259 932.015C308.801 932.015 305.982 931.139 305.982 930.05C305.982 928.961 308.801 928.085 312.259 928.085C315.718 928.085 318.536 928.961 318.536 930.05Z" fill="#ADDF72"/>
<path d="M330.451 887.716C330.451 888.805 327.633 889.705 324.174 889.705C320.716 889.705 317.897 888.829 317.897 887.716C317.897 886.627 320.716 885.751 324.174 885.751C327.633 885.751 330.451 886.627 330.451 887.716Z" fill="#ADDF72"/>
<path d="M379.056 892.593C379.056 893.682 376.237 894.582 372.779 894.582C369.321 894.582 366.502 893.706 366.502 892.593C366.502 891.504 369.321 890.628 372.779 890.628C376.237 890.628 379.056 891.504 379.056 892.593Z" fill="#ADDF72"/>
<path d="M843.712 981.122C843.712 983.3 838.098 985.076 831.158 985.076C824.242 985.076 818.604 983.3 818.604 981.122C818.604 978.944 824.218 977.168 831.158 977.168C838.098 977.168 843.712 978.944 843.712 981.122Z" fill="#ADDF72"/>
<path d="M901.412 981.122C901.412 983.3 895.799 985.076 888.858 985.076C881.942 985.076 876.305 983.3 876.305 981.122C876.305 978.944 881.918 977.168 888.858 977.168C895.799 977.168 901.412 978.944 901.412 981.122Z" fill="#ADDF72"/>
<path d="M843.712 992.984C847.179 992.984 849.989 992.104 849.989 991.019C849.989 989.934 847.179 989.054 843.712 989.054C840.246 989.054 837.436 989.934 837.436 991.019C837.436 992.104 840.246 992.984 843.712 992.984Z" fill="#ADDF72"/>
<path d="M975.338 1015.88C975.338 1016.97 972.519 1017.87 969.061 1017.87C965.603 1017.87 962.784 1016.99 962.784 1015.88C962.784 1014.79 965.603 1013.91 969.061 1013.91C972.519 1013.91 975.338 1014.79 975.338 1015.88Z" fill="#ADDF72"/>
<path d="M815.478 973.213C815.478 974.302 812.659 975.202 809.201 975.202C805.743 975.202 802.924 974.326 802.924 973.213C802.924 972.124 805.743 971.248 809.201 971.248C812.659 971.248 815.478 972.124 815.478 973.213Z" fill="#ADDF72"/>
<path d="M958.97 990.237C958.97 992.416 953.356 994.191 946.416 994.191C939.476 994.191 933.862 992.416 933.862 990.237C933.862 988.059 939.476 986.283 946.416 986.283C953.356 986.283 958.97 988.059 958.97 990.237Z" fill="#ADDF72"/>
<path d="M1033.56 1006.53C1033.56 1008.71 1027.95 1010.48 1021 1010.48C1014.09 1010.48 1008.45 1008.71 1008.45 1006.53C1008.45 1004.35 1014.06 1002.57 1021 1002.57C1027.95 1002.57 1033.56 1004.35 1033.56 1006.53Z" fill="#ADDF72"/>
<path d="M269.979 903.793C273.446 903.793 276.256 902.913 276.256 901.828C276.256 900.742 273.446 899.862 269.979 899.862C266.512 899.862 263.702 900.742 263.702 901.828C263.702 902.913 266.512 903.793 269.979 903.793Z" fill="#ADDF72"/>
<path d="M-5.94434 837.662V864.962C64.0491 860.345 200.365 852.508 403.049 882.436C680.962 923.468 442.535 891.906 450.422 909.262C458.31 926.617 653.344 928.203 757.943 956.616C862.566 985.028 736.223 940.823 680.962 929.79C625.702 918.733 665.164 906.113 853.873 951.88C992.463 985.502 1208.1 1065.08 1312.89 1105H1348.92C756.759 807.427 -5.94434 837.662 -5.94434 837.662Z" fill="white" fill-opacity="0.06"/>
<path d="M172.889 1044.79C172.889 1044.79 226.586 1034.35 291.345 1023.88C321.568 1019 354.185 1014.13 384.882 1010.29C480.315 998.406 680.631 959.907 620.989 934.194C561.346 908.48 513.973 908.315 528.185 894.203C542.397 880.068 434.434 858.096 434.434 858.096L469.514 862.05C469.514 862.05 542.989 874.149 549.503 886.579C556.017 899.01 541.213 897.849 578.519 905.829C615.825 913.808 682.739 929.79 682.147 961.754C681.555 993.718 421.004 1058.24 421.004 1058.24L172.889 1044.79Z" fill="#FFE68F"/>
<path d="M177.413 1045.03L421.004 1058.24C421.004 1058.24 681.555 993.717 682.147 961.753C682.242 956.379 680.395 951.477 677.15 946.955C681.413 955.218 674.236 960.593 669.12 965.684C663.98 970.822 654.908 971.603 641.88 970.869C628.853 970.135 627.266 985.407 607.133 995.659C586.999 1005.91 494.219 1032.76 478.823 1033.04C463.427 1033.33 506.844 1014.2 492.253 1015.38C477.639 1016.57 433.037 1026.44 441.327 1030.37C449.618 1034.32 450.399 1034.7 418.825 1039.06C387.251 1043.39 351.722 1033.04 320.527 1030.37C307.191 1029.23 300.938 1026.04 298.143 1022.75C295.869 1023.1 293.595 1023.48 291.345 1023.83C241.13 1031.96 197.594 1040.05 180.54 1043.27L177.413 1045.03Z" fill="#FFC46E"/>
<path d="M562.555 1003.95C562.555 1004.7 560.66 1005.3 558.291 1005.3C555.946 1005.3 554.027 1004.68 554.027 1003.95C554.027 1003.19 555.922 1002.6 558.291 1002.6C560.66 1002.6 562.555 1003.21 562.555 1003.95Z" fill="#253250"/>
<path d="M606.469 977.878C606.469 978.636 604.575 979.228 602.206 979.228C599.861 979.228 597.942 978.612 597.942 977.878C597.942 977.144 599.837 976.528 602.206 976.528C604.551 976.528 606.469 977.144 606.469 977.878Z" fill="#253250"/>
<path d="M572.717 1005.32C572.717 1006.08 570.822 1006.67 568.453 1006.67C566.108 1006.67 564.189 1006.05 564.189 1005.32C564.189 1004.56 566.084 1003.97 568.453 1003.97C570.822 1003.95 572.717 1004.56 572.717 1005.32Z" fill="#253250"/>
<path d="M612.035 984.578C612.035 985.336 610.14 985.928 607.771 985.928C605.426 985.928 603.508 985.312 603.508 984.578C603.508 983.82 605.403 983.229 607.771 983.229C610.116 983.229 612.035 983.82 612.035 984.578Z" fill="#253250"/>
<path d="M554.051 1010.39C555.228 1010.39 556.182 1010.08 556.182 1009.7C556.182 1009.32 555.228 1009.01 554.051 1009.01C552.873 1009.01 551.919 1009.32 551.919 1009.7C551.919 1010.08 552.873 1010.39 554.051 1010.39Z" fill="#253250"/>
<path d="M647.115 965.826C649.47 965.826 651.379 965.222 651.379 964.477C651.379 963.731 649.47 963.127 647.115 963.127C644.76 963.127 642.852 963.731 642.852 964.477C642.852 965.222 644.76 965.826 647.115 965.826Z" fill="#253250"/>
<path d="M661.541 965.826C661.541 966.584 659.646 967.176 657.277 967.176C654.932 967.176 653.014 966.56 653.014 965.826C653.014 965.069 654.909 964.477 657.277 964.477C659.646 964.477 661.541 965.069 661.541 965.826Z" fill="#253250"/>
<path d="M621.439 927.682C621.439 928.44 619.544 929.032 617.176 929.032C614.831 929.032 612.912 928.416 612.912 927.682C612.912 926.925 614.807 926.333 617.176 926.333C619.544 926.309 621.439 926.925 621.439 927.682Z" fill="#253250"/>
<path d="M536.76 902.514C539.114 902.514 541.023 901.91 541.023 901.164C541.023 900.419 539.114 899.814 536.76 899.814C534.405 899.814 532.496 900.419 532.496 901.164C532.496 901.91 534.405 902.514 536.76 902.514Z" fill="#253250"/>
<path d="M631.624 929.032C631.624 929.79 629.729 930.382 627.36 930.382C625.015 930.382 623.097 929.766 623.097 929.032C623.097 928.275 624.992 927.683 627.36 927.683C629.705 927.683 631.624 928.275 631.624 929.032Z" fill="#253250"/>
<path d="M645.007 967.175C645.007 967.554 644.059 967.861 642.875 967.861C641.691 967.861 640.743 967.554 640.743 967.175C640.743 966.796 641.691 966.488 642.875 966.488C644.036 966.512 645.007 966.796 645.007 967.175Z" fill="#253250"/>
<path d="M597.942 984.578C597.942 984.957 596.995 985.265 595.81 985.265C594.626 985.265 593.679 984.957 593.679 984.578C593.679 984.199 594.626 983.892 595.81 983.892C596.995 983.892 597.942 984.199 597.942 984.578Z" fill="#253250"/>
<path d="M633.756 967.862C633.756 968.241 632.808 968.549 631.624 968.549C630.44 968.549 629.492 968.241 629.492 967.862C629.492 967.484 630.44 967.176 631.624 967.176C632.785 967.199 633.756 967.507 633.756 967.862Z" fill="#253250"/>
<path d="M607.772 973.213C608.95 973.213 609.904 972.906 609.904 972.526C609.904 972.147 608.95 971.84 607.772 971.84C606.595 971.84 605.641 972.147 605.641 972.526C605.641 972.906 606.595 973.213 607.772 973.213Z" fill="#253250"/>
<path d="M623.405 931.068C623.405 931.446 622.458 931.754 621.273 931.754C620.089 931.754 619.142 931.446 619.142 931.068C619.142 930.689 620.089 930.381 621.273 930.381C622.458 930.381 623.405 930.689 623.405 931.068Z" fill="#253250"/>
<path d="M611.254 924.841C611.254 925.22 610.306 925.528 609.122 925.528C607.938 925.528 606.99 925.22 606.99 924.841C606.99 924.462 607.938 924.154 609.122 924.154C610.283 924.154 611.254 924.462 611.254 924.841Z" fill="#253250"/>
<path d="M600.074 921.1C600.074 921.478 599.127 921.786 597.942 921.786C596.758 921.786 595.811 921.478 595.811 921.1C595.811 920.721 596.758 920.413 597.942 920.413C599.127 920.437 600.074 920.744 600.074 921.1Z" fill="#253250"/>
<path d="M605.64 923.16C606.817 923.16 607.771 922.853 607.771 922.474C607.771 922.095 606.817 921.787 605.64 921.787C604.462 921.787 603.508 922.095 603.508 922.474C603.508 922.853 604.462 923.16 605.64 923.16Z" fill="#253250"/>
<path d="M569.4 911.938C569.4 912.317 568.453 912.624 567.268 912.624C566.084 912.624 565.137 912.317 565.137 911.938C565.137 911.559 566.084 911.251 567.268 911.251C568.453 911.275 569.4 911.582 569.4 911.938Z" fill="#253250"/>
<path d="M573.545 911.274C574.722 911.274 575.677 910.966 575.677 910.587C575.677 910.208 574.722 909.9 573.545 909.9C572.368 909.9 571.413 910.208 571.413 910.587C571.413 910.966 572.368 911.274 573.545 911.274Z" fill="#253250"/>
<path d="M541.758 905.023C542.935 905.023 543.89 904.715 543.89 904.336C543.89 903.957 542.935 903.649 541.758 903.649C540.58 903.649 539.626 903.957 539.626 904.336C539.626 904.715 540.58 905.023 541.758 905.023Z" fill="#253250"/>
<path d="M532.496 897.423C532.496 897.802 531.548 898.11 530.364 898.11C529.18 898.11 528.232 897.802 528.232 897.423C528.232 897.044 529.18 896.736 530.364 896.736C531.548 896.76 532.496 897.068 532.496 897.423Z" fill="#253250"/>
<path d="M536.761 893.658C537.938 893.658 538.893 893.351 538.893 892.972C538.893 892.593 537.938 892.285 536.761 892.285C535.583 892.285 534.629 892.593 534.629 892.972C534.629 893.351 535.583 893.658 536.761 893.658Z" fill="#253250"/>
<path d="M583.802 915.773C583.802 916.151 582.854 916.459 581.67 916.459C580.486 916.459 579.538 916.151 579.538 915.773C579.538 915.394 580.486 915.086 581.67 915.086C582.854 915.086 583.802 915.417 583.802 915.773Z" fill="#253250"/>
<path d="M447.865 1018.96C451.593 1018.96 454.616 1017.99 454.616 1016.8C454.616 1015.61 451.593 1014.65 447.865 1014.65C444.137 1014.65 441.114 1015.61 441.114 1016.8C441.114 1017.99 444.137 1018.96 447.865 1018.96Z" fill="#253250"/>
<path d="M535.007 1011.85C538.736 1011.85 541.758 1010.89 541.758 1009.7C541.758 1008.51 538.736 1007.54 535.007 1007.54C531.279 1007.54 528.257 1008.51 528.257 1009.7C528.257 1010.89 531.279 1011.85 535.007 1011.85Z" fill="#253250"/>
<path d="M623.405 976.528C623.405 977.711 620.373 978.682 616.654 978.682C612.935 978.682 609.903 977.711 609.903 976.528C609.903 975.344 612.935 974.373 616.654 974.373C620.396 974.373 623.405 975.344 623.405 976.528Z" fill="#253250"/>
<path d="M272.372 1033.85C271.235 1033.85 270.287 1032.93 270.287 1031.77V1003.07C270.287 1001.93 271.211 1000.99 272.372 1000.99C273.508 1000.99 274.456 1001.91 274.456 1003.07V1031.77C274.456 1032.93 273.508 1033.85 272.372 1033.85Z" fill="#542032"/>
<path d="M335.236 1026.68C334.099 1026.68 333.151 1025.75 333.151 1024.59V995.896C333.151 994.76 334.075 993.812 335.236 993.812C336.373 993.812 337.32 994.736 337.32 995.896V1024.59C337.32 1025.75 336.396 1026.68 335.236 1026.68Z" fill="#542032"/>
<path d="M407.787 1019.03C406.65 1019.03 405.702 1018.11 405.702 1016.95V988.249C405.702 987.112 406.626 986.165 407.787 986.165C408.924 986.165 409.871 987.088 409.871 988.249V1016.95C409.847 1018.11 408.924 1019.03 407.787 1019.03Z" fill="#542032"/>
<path d="M475.885 1006.67C474.748 1006.67 473.801 1005.75 473.801 1004.59V975.889C473.801 974.753 474.725 973.806 475.885 973.806C477.022 973.806 477.97 974.729 477.97 975.889V1004.59C477.946 1005.75 477.022 1006.67 475.885 1006.67Z" fill="#542032"/>
<path d="M532.496 995.66C531.359 995.66 530.411 994.736 530.411 993.576V964.879C530.411 963.743 531.335 962.796 532.496 962.796C533.632 962.796 534.58 963.719 534.58 964.879V993.576C534.58 994.736 533.656 995.66 532.496 995.66Z" fill="#542032"/>
<path d="M581.669 987.326C580.532 987.326 579.585 986.402 579.585 985.242V956.545C579.585 955.409 580.509 954.462 581.669 954.462C582.806 954.462 583.754 955.385 583.754 956.545V985.242C583.754 986.402 582.83 987.326 581.669 987.326Z" fill="#542032"/>
<path d="M610.874 974.587C609.903 974.587 609.121 973.805 609.121 972.834V948.684C609.121 947.713 609.903 946.932 610.874 946.932C611.845 946.932 612.627 947.713 612.627 948.684V972.834C612.603 973.805 611.821 974.587 610.874 974.587Z" fill="#542032"/>
<path d="M627.36 964.477C626.46 964.477 625.726 963.743 625.726 962.843V940.231C625.726 939.332 626.46 938.598 627.36 938.598C628.26 938.598 628.994 939.332 628.994 940.231V962.843C628.994 963.743 628.26 964.477 627.36 964.477Z" fill="#542032"/>
<path d="M622.125 935.614V924.983C622.125 924.462 621.699 924.06 621.201 924.06C620.68 924.06 620.277 924.462 620.277 924.983V935.614C620.727 935.709 621.367 935.732 622.125 935.614Z" fill="#542032"/>
<path d="M609.619 931.233V920.602C609.619 920.081 609.216 919.679 608.695 919.679C608.174 919.679 607.771 920.081 607.771 920.602V931.233C608.245 931.351 608.885 931.375 609.619 931.233Z" fill="#542032"/>
<path d="M597.681 926.167V915.536C597.681 915.015 597.254 914.612 596.757 914.612C596.236 914.612 595.833 915.015 595.833 915.536V926.167C596.283 926.261 596.923 926.285 597.681 926.167Z" fill="#542032"/>
<path d="M583.659 922.19V912.411C583.659 911.937 583.28 911.559 582.806 911.559C582.332 911.559 581.953 911.937 581.953 912.411V922.19C582.379 922.284 582.972 922.308 583.659 922.19Z" fill="#542032"/>
<path d="M567.387 917.904V908.906C567.387 908.48 567.031 908.125 566.605 908.125C566.179 908.125 565.823 908.48 565.823 908.906V917.904C566.226 917.998 566.747 918.022 567.387 917.904Z" fill="#542032"/>
<path d="M548.65 911.867V902.869C548.65 902.443 548.295 902.088 547.869 902.088C547.442 902.088 547.087 902.443 547.087 902.869V911.867C547.49 911.961 548.011 911.985 548.65 911.867Z" fill="#542032"/>
<path d="M536.073 907.888V899.601C536.073 899.198 535.741 898.891 535.362 898.891C534.959 898.891 534.651 899.222 534.651 899.601V907.888C535.007 907.983 535.48 908.006 536.073 907.888Z" fill="#542032"/>
<path d="M526.219 903.011V894.724C526.219 894.321 525.887 894.014 525.508 894.014C525.129 894.014 524.798 894.345 524.798 894.724V903.011C525.153 903.106 525.651 903.129 526.219 903.011Z" fill="#542032"/>
<path d="M528.137 892.9V885.276C528.137 884.921 527.829 884.613 527.474 884.613C527.118 884.613 526.811 884.921 526.811 885.276V892.9C527.142 892.995 527.592 893.019 528.137 892.9Z" fill="#542032"/>
<path d="M517.123 884.566V877.558C517.123 877.227 516.839 876.942 516.507 876.942C516.176 876.942 515.892 877.227 515.892 877.558V884.59C516.2 884.637 516.626 884.661 517.123 884.566Z" fill="#542032"/>
<path d="M501.798 877.107V872.656C501.798 872.443 501.632 872.277 501.419 872.277C501.206 872.277 501.04 872.443 501.04 872.656V877.107C501.23 877.155 501.49 877.155 501.798 877.107Z" fill="#542032"/>
<path d="M486.07 871.568V868.797C486.07 868.655 485.952 868.561 485.833 868.561C485.691 868.561 485.597 868.679 485.597 868.797V871.568C485.715 871.591 485.881 871.615 486.07 871.568Z" fill="#542032"/>
<path d="M621.201 932.441C621.201 932.441 627.146 943.238 627.36 949.3" stroke="#542032" stroke-width="0.3" stroke-miterlimit="10"/>
<path d="M621.438 929.506C621.438 929.506 625.513 936.988 628.023 941.273" stroke="#542032" stroke-width="0.3" stroke-miterlimit="10"/>
<path d="M274.455 1007.33C274.455 1007.33 309.89 1010.29 334.169 999.637C334.169 999.637 371.664 1008.52 407.786 991.942C407.786 991.942 460.678 992.724 475.103 980.885C475.103 980.885 518.331 982.661 531.548 968.644C531.548 968.644 563.927 973.403 580.508 960.76C580.508 960.76 600.973 960.831 610.874 951.526C610.874 951.526 619.756 951.502 627.383 942.031" stroke="#542032" stroke-width="0.5" stroke-miterlimit="10"/>
<path d="M272.371 1019.03C272.371 1019.03 317.375 1020.47 334.145 1010.27C334.145 1010.27 385.663 1011.88 407.763 1000.44C407.763 1000.44 459.47 1000.04 474.866 988.603C474.866 988.603 518.047 989.195 532.472 977.948C532.472 977.948 570.204 976.433 581.645 965.849C581.645 965.849 600.168 964.926 610.827 956.26C610.827 956.26 625.417 953.135 627.336 946.197" stroke="#542032" stroke-width="0.5" stroke-miterlimit="10"/>
<path d="M620.68 928.038C618.524 927.848 616.416 927.422 614.379 926.712C612.366 926.001 610.376 924.983 608.837 923.397L609.074 923.515C606.8 923.326 604.573 922.971 602.37 922.284C600.215 921.621 598.012 920.674 596.449 918.851L596.685 918.993C594.317 918.732 591.972 918.354 589.651 917.833C588.49 917.572 587.329 917.288 586.192 916.909C585.055 916.531 583.918 916.104 582.876 915.418L583.089 915.489C580.2 915.465 577.357 915.252 574.515 914.755C571.696 914.234 568.854 913.5 566.367 911.89L566.509 911.937C563.146 911.464 559.853 910.753 556.608 909.712C553.41 908.67 550.165 907.367 547.583 905.047L547.797 905.142C545.76 904.976 543.723 904.716 541.709 904.361C540.691 904.171 539.696 903.958 538.701 903.698C537.706 903.39 536.688 903.106 535.788 902.348L535.977 902.443C533.987 902.111 532.021 901.567 530.174 900.762C528.35 899.957 526.455 898.844 525.46 896.902C525.437 896.855 525.413 896.784 525.437 896.713V896.689L526.763 886.295L527 886.674C524.868 885.892 522.879 884.851 521.007 883.596C519.16 882.317 517.431 880.778 516.175 878.837L516.436 879.002C513.736 878.695 511.059 878.197 508.454 877.44C507.151 877.061 505.848 876.635 504.616 876.043C503.385 875.474 502.153 874.788 501.134 873.793L501.348 873.888C498.647 873.486 495.971 872.965 493.342 872.278C490.712 871.568 488.083 870.739 485.762 869.247C485.714 869.224 485.715 869.176 485.738 869.129C485.762 869.082 485.809 869.082 485.857 869.105C488.178 870.479 490.831 871.213 493.436 871.852C496.066 872.468 498.742 872.894 501.419 873.202C501.49 873.202 501.561 873.225 501.608 873.273L501.632 873.296C502.532 874.196 503.716 874.859 504.901 875.403C506.109 875.972 507.364 876.398 508.643 876.753C511.201 877.487 513.854 877.984 516.507 878.292C516.625 878.316 516.72 878.363 516.767 878.458C517.952 880.281 519.586 881.773 521.386 883.004C523.186 884.235 525.176 885.253 527.213 886.011C527.379 886.058 527.474 886.224 527.45 886.39L526.124 896.784L526.1 896.594C526.953 898.252 528.682 899.341 530.458 900.099C532.235 900.88 534.177 901.401 536.096 901.709C536.167 901.732 536.214 901.756 536.285 901.803H536.309C536.972 902.372 537.967 902.703 538.914 902.987C539.885 903.248 540.857 903.461 541.851 903.65C543.841 904.005 545.854 904.242 547.868 904.408C547.939 904.408 548.034 904.455 548.081 904.503C550.521 906.681 553.695 907.983 556.845 909.001C560.019 910.019 563.311 910.706 566.604 911.203C566.651 911.203 566.722 911.227 566.77 911.251C569.091 912.742 571.886 913.5 574.633 913.997C577.405 914.494 580.247 914.707 583.066 914.731C583.137 914.731 583.208 914.755 583.279 914.802C584.203 915.418 585.316 915.844 586.406 916.199C587.519 916.554 588.656 916.862 589.793 917.099C592.09 917.596 594.412 917.975 596.757 918.235C596.851 918.235 596.946 918.306 596.993 918.377C598.367 920.011 600.475 920.934 602.583 921.574C604.691 922.213 606.918 922.592 609.121 922.758C609.216 922.758 609.287 922.805 609.358 922.876C610.779 924.344 612.65 925.338 614.616 926.025C616.582 926.688 618.666 927.138 620.727 927.304H620.751C620.94 927.327 621.082 927.493 621.082 927.682C621.059 927.895 620.893 928.038 620.68 928.038Z" fill="#542032"/>
<path d="M620.727 932.063C618.548 932.134 616.416 931.897 614.308 931.305C612.247 930.713 610.21 929.648 608.813 927.872L609.074 928.014C606.8 927.801 604.573 927.422 602.394 926.735C600.238 926.049 598.059 925.125 596.449 923.35L596.662 923.468C594.222 923.065 591.806 922.592 589.414 921.976C588.229 921.668 587.021 921.337 585.861 920.911C584.7 920.461 583.516 920.035 582.497 919.04L582.805 919.159C579.939 919.301 577.097 919.135 574.254 918.638C571.459 918.117 568.617 917.217 566.343 915.347L566.556 915.441C563.169 915.157 559.829 914.636 556.561 913.76C554.926 913.334 553.316 912.79 551.752 912.079C550.213 911.345 548.673 910.469 547.583 909.049L547.844 909.191C545.641 909.001 543.462 908.693 541.307 908.173C539.175 907.652 536.996 906.989 535.124 905.639L535.219 905.686C533.466 905.071 531.737 904.361 530.056 903.579C528.374 902.774 526.716 901.898 525.247 900.667C525.152 900.596 525.105 900.454 525.129 900.335L527.095 889.468L527.379 889.87C525.129 889.349 523.021 888.497 521.031 887.337C519.065 886.153 517.289 884.567 516.175 882.507L516.412 882.696C513.688 882.104 511.012 881.323 508.406 880.305C505.824 879.263 503.242 878.032 501.158 876.043L501.134 876.019L501.395 876.114C498.529 876.019 495.852 875.285 493.247 874.362C490.641 873.415 488.154 872.207 485.762 870.787C485.714 870.763 485.715 870.716 485.738 870.668C485.762 870.621 485.809 870.621 485.857 870.644C488.273 871.97 490.783 873.083 493.389 873.936C495.971 874.764 498.718 875.404 501.371 875.404C501.466 875.404 501.561 875.451 501.632 875.498L501.656 875.522C503.598 877.392 506.109 878.624 508.643 879.618C511.201 880.612 513.854 881.394 516.531 881.986C516.649 882.009 516.72 882.081 516.767 882.175C517.786 884.093 519.468 885.608 521.363 886.721C523.257 887.834 525.366 888.663 527.497 889.16C527.687 889.207 527.805 889.397 527.782 889.562L525.816 900.43L525.697 900.099C527.047 901.235 528.705 902.111 530.34 902.893C531.998 903.674 533.703 904.361 535.432 904.976C535.456 905 535.503 905 535.527 905.024C537.233 906.255 539.341 906.941 541.425 907.439C543.533 907.936 545.689 908.244 547.844 908.433C547.939 908.433 548.034 908.504 548.105 908.575C549.076 909.83 550.544 910.706 552.013 911.393C553.505 912.079 555.092 912.624 556.703 913.05C559.924 913.902 563.24 914.423 566.556 914.707C566.627 914.707 566.698 914.755 566.77 914.802C568.901 916.554 571.625 917.43 574.349 917.951C577.097 918.448 579.939 918.59 582.711 918.472C582.829 918.472 582.924 918.519 582.995 918.59L583.018 918.614C583.776 919.372 584.961 919.845 586.074 920.272C587.211 920.674 588.395 921.006 589.58 921.313C591.948 921.905 594.341 922.402 596.757 922.781C596.851 922.805 596.922 922.852 596.97 922.9C598.391 924.486 600.499 925.409 602.583 926.072C604.691 926.735 606.894 927.114 609.097 927.327C609.192 927.327 609.287 927.398 609.358 927.469C610.613 929.079 612.508 930.074 614.474 930.642C616.464 931.21 618.572 931.423 620.632 931.376H620.656C620.846 931.376 621.011 931.518 621.011 931.731C621.083 931.897 620.94 932.063 620.727 932.063Z" fill="#542032"/>
<path d="M1321.42 969.047C1321.06 969.118 1321.11 969.118 1321.42 969.047V969.047Z" fill="#56664B"/>
<path d="M1258.18 1004.49C1257.89 1004.56 1257.94 1004.54 1258.18 1004.49V1004.49Z" fill="#56664B"/>
<path d="M1198.87 1004.23C1198.61 1004.28 1198.65 1004.28 1198.87 1004.23V1004.23Z" fill="#56664B"/>
<path d="M1431.51 980.554C1431.25 980.625 1431.3 980.625 1431.51 980.554V980.554Z" fill="#56664B"/>
<path d="M160.831 1012.8C160.594 1012.87 160.618 1012.87 160.831 1012.8V1012.8Z" fill="#56664B"/>
<path d="M210.312 1002.93C210.051 1002.98 210.099 1002.98 210.312 1002.93V1002.93Z" fill="#56664B"/>
<path d="M259.296 1045.9C259.296 1045.9 260.907 1042.16 260.409 1036.46C259.888 1030.75 256.667 1028.19 256.667 1028.19L257.685 1026.75C257.685 1026.75 261.428 1030.06 262.802 1029.38C264.152 1028.69 268.676 1023.24 265.786 1017.56C262.897 1011.86 262.897 1011.86 262.897 1011.86L265.194 1011.43C265.194 1011.43 267.492 1016.45 268.676 1016.61C269.86 1016.78 271.139 1012.64 271.139 1012.64L275.308 1013.63C275.308 1013.63 269.339 1021.71 269.173 1024C269.008 1026.3 266.71 1029.61 268.747 1030.04C270.784 1030.47 273.011 1029.02 273.011 1029.02L274.55 1031.84C274.55 1031.84 269.268 1032.86 268.581 1034.23C267.894 1035.58 268.676 1045.88 268.676 1045.88C268.676 1045.88 265.17 1047.51 259.296 1045.9Z" fill="#56664B"/>
<path d="M258.112 1013.92C257.922 1013.96 257.946 1013.96 258.112 1013.92V1013.92Z" fill="#56664B"/>
<defs>
<linearGradient id="paint0_linear" x1="780.644" y1="887.171" x2="780.644" y2="-51.1128" gradientUnits="userSpaceOnUse">
<stop stop-color="#63B0C8"/>
<stop offset="1" stop-color="#B7EDFF"/>
</linearGradient>
<linearGradient id="paint1_linear" x1="208.768" y1="560.428" x2="208.768" y2="835.082" gradientUnits="userSpaceOnUse">
<stop stop-color="white" stop-opacity="0.8"/>
<stop offset="1" stop-color="white" stop-opacity="0"/>
</linearGradient>
<linearGradient id="paint2_linear" x1="1384.65" y1="560.428" x2="1384.65" y2="835.082" gradientUnits="userSpaceOnUse">
<stop stop-color="white" stop-opacity="0.8"/>
<stop offset="1" stop-color="white" stop-opacity="0"/>
</linearGradient>
<linearGradient id="paint3_linear" x1="560.989" y1="261.765" x2="560.989" y2="358.917" gradientUnits="userSpaceOnUse">
<stop stop-color="white"/>
<stop offset="1" stop-color="white" stop-opacity="0"/>
</linearGradient>
<linearGradient id="paint4_linear" x1="1520.44" y1="258.586" x2="1520.44" y2="442.591" gradientUnits="userSpaceOnUse">
<stop stop-color="white"/>
<stop offset="1" stop-color="white" stop-opacity="0"/>
</linearGradient>
<linearGradient id="paint5_linear" x1="60.4422" y1="263.119" x2="60.4422" y2="447.124" gradientUnits="userSpaceOnUse">
<stop stop-color="white"/>
<stop offset="1" stop-color="white" stop-opacity="0"/>
</linearGradient>
<linearGradient id="paint6_linear" x1="1219.96" y1="304.814" x2="1219.96" y2="438.178" gradientUnits="userSpaceOnUse">
<stop stop-color="white"/>
<stop offset="1" stop-color="white" stop-opacity="0"/>
</linearGradient>
<linearGradient id="paint7_linear" x1="211.833" y1="120.028" x2="211.833" y2="270.489" gradientUnits="userSpaceOnUse">
<stop stop-color="white"/>
<stop offset="1" stop-color="white" stop-opacity="0"/>
</linearGradient>
<linearGradient id="paint8_linear" x1="484.519" y1="384.863" x2="484.519" y2="532.322" gradientUnits="userSpaceOnUse">
<stop stop-color="white"/>
<stop offset="1" stop-color="white" stop-opacity="0"/>
</linearGradient>
<linearGradient id="paint9_linear" x1="821.421" y1="332.873" x2="821.421" y2="410.2" gradientUnits="userSpaceOnUse">
<stop stop-color="white"/>
<stop offset="1" stop-color="white" stop-opacity="0"/>
</linearGradient>
<linearGradient id="paint10_linear" x1="928.157" y1="444.542" x2="928.157" y2="506.489" gradientUnits="userSpaceOnUse">
<stop stop-color="white"/>
<stop offset="1" stop-color="white" stop-opacity="0"/>
</linearGradient>
<linearGradient id="paint11_linear" x1="1494.11" y1="136.04" x2="1494.11" y2="208.951" gradientUnits="userSpaceOnUse">
<stop stop-color="white"/>
<stop offset="1" stop-color="white" stop-opacity="0"/>
</linearGradient>
<linearGradient id="paint12_linear" x1="1109.22" y1="439.739" x2="1109.22" y2="512.65" gradientUnits="userSpaceOnUse">
<stop stop-color="white"/>
<stop offset="1" stop-color="white" stop-opacity="0"/>
</linearGradient>
<linearGradient id="paint13_linear" x1="659.438" y1="766.862" x2="661.806" y2="1067.8" gradientUnits="userSpaceOnUse">
<stop offset="0.00627475" stop-color="#87BC61"/>
<stop offset="1" stop-color="#637353"/>
</linearGradient>
<linearGradient id="paint14_linear" x1="671.152" y1="846.614" x2="672.913" y2="1085.65" gradientUnits="userSpaceOnUse">
<stop offset="0.00627475" stop-color="#87BC61"/>
<stop offset="1" stop-color="#637353"/>
</linearGradient>
</defs>
</svg>
